<?xml version="1.0" encoding="UTF-8"?>
<svg version="1.1" xmlns="http://www.w3.org/2000/svg" width="280" height="355">
<path d="M0 0 C92.4 0 184.8 0 280 0 C280 117.15 280 234.3 280 355 C187.6 355 95.2 355 0 355 C0 237.85 0 120.7 0 0 Z " fill="#F6F6F6" transform="translate(0,0)"/>
<path d="M0 0 C1.17778015 -0.00807175 2.3555603 -0.01614349 3.56903076 -0.02445984 C6.04665684 -0.03823264 8.52430136 -0.04898491 11.00195312 -0.05688477 C13.53911892 -0.06847372 16.07625905 -0.0890325 18.61328125 -0.1184082 C22.28402219 -0.16087606 25.95404464 -0.17721805 29.625 -0.1875 C31.32816376 -0.21376213 31.32816376 -0.21376213 33.06573486 -0.24055481 C34.64823029 -0.23616646 34.64823029 -0.23616646 36.26269531 -0.23168945 C37.65213348 -0.24048882 37.65213348 -0.24048882 39.06964111 -0.24946594 C42.38058098 0.40243117 43.5439877 1.55583745 45.546875 4.23828125 C46.0615387 6.58384705 46.0615387 6.58384705 46.08032227 9.20288086 C46.10407677 10.67977638 46.10407677 10.67977638 46.12831116 12.18650818 C46.12335129 13.24386673 46.11839142 14.30122528 46.11328125 15.390625 C46.11947983 16.48290909 46.12567841 17.57519318 46.13206482 18.70057678 C46.1391659 21.00960397 46.13598403 23.31868233 46.12329102 25.62768555 C46.10943826 29.15965129 46.1434796 32.68896171 46.18164062 36.22070312 C46.18259194 38.4648444 46.18073236 40.70898899 46.17578125 42.953125 C46.18903946 44.00845932 46.20229767 45.06379364 46.21595764 46.15110779 C46.15773609 50.73961615 46.03345691 53.46325052 43.55810547 57.40600586 C39.49241993 59.87989673 36.41299827 59.91700207 31.73828125 59.83984375 C30.89394028 59.84785004 30.0495993 59.85585632 29.17967224 59.86410522 C26.48908168 59.88712974 23.80000549 59.87773276 21.109375 59.86328125 C18.42259864 59.85942544 15.73649131 59.86294516 13.04978943 59.88388062 C11.38142346 59.89590606 9.7128694 59.89340587 8.04457092 59.87417603 C1.8928337 59.90360339 -2.08369983 61.12654221 -6.79003906 65.32104492 C-9.17605511 69.50638047 -9.05597256 73.17035051 -9.0625 77.9140625 C-9.07903625 78.83922165 -9.09557251 79.7643808 -9.11260986 80.71757507 C-9.16105496 83.6620449 -9.18245311 86.60599838 -9.203125 89.55078125 C-9.23128759 91.55145822 -9.26121542 93.55211117 -9.29296875 95.55273438 C-9.3668131 100.44787416 -9.41640914 105.34272788 -9.453125 110.23828125 C-8.83338303 110.2293988 -8.21364105 110.22051636 -7.57511902 110.21136475 C-1.13537808 110.12299502 5.30419117 110.0625902 11.74438477 110.01855469 C14.1490783 109.99841678 16.55372275 109.97110455 18.95825195 109.93652344 C22.41109314 109.88810248 25.86328798 109.86533414 29.31640625 109.84765625 C30.39461136 109.82701111 31.47281647 109.80636597 32.58369446 109.78509521 C34.08491096 109.78464203 34.08491096 109.78464203 35.61645508 109.78417969 C36.49803787 109.77529724 37.37962067 109.76641479 38.28791809 109.75726318 C40.546875 110.23828125 40.546875 110.23828125 42.33076477 111.92570496 C43.79776289 114.71537402 43.92723044 116.54782413 43.93505859 119.69360352 C43.94451508 120.78475967 43.95397156 121.87591583 43.9637146 123.00013733 C43.95460556 124.75963966 43.95460556 124.75963966 43.9453125 126.5546875 C43.94961777 128.36669899 43.94961777 128.36669899 43.95401001 130.21531677 C43.95605104 132.76814238 43.95051852 135.32098362 43.93798828 137.8737793 C43.9219223 141.78925378 43.93784393 145.70369811 43.95703125 149.61914062 C43.9550491 152.09765854 43.95120601 154.5761758 43.9453125 157.0546875 C43.95138519 158.22971329 43.95745789 159.40473907 43.9637146 160.6153717 C43.94952988 162.2473777 43.94952988 162.2473777 43.93505859 163.91235352 C43.93267181 164.87069595 43.93028503 165.82903839 43.92782593 166.81642151 C43.46639054 169.74995367 42.87591702 170.45017053 40.546875 172.23828125 C38.28791809 172.5990448 38.28791809 172.5990448 35.61645508 172.57885742 C34.11523857 172.57851753 34.11523857 172.57851753 32.58369446 172.57817078 C31.50548935 172.56268692 30.42728424 172.54720306 29.31640625 172.53125 C28.21084885 172.52700516 27.10529144 172.52276031 25.9662323 172.51838684 C22.43036688 172.50157562 18.89506855 172.4639181 15.359375 172.42578125 C12.96420093 172.41073761 10.56901794 172.39704865 8.17382812 172.38476562 C2.29798315 172.3516641 -3.57753042 172.30144018 -9.453125 172.23828125 C-9.45035962 172.90457928 -9.44759424 173.5708773 -9.44474506 174.25736618 C-9.37851029 190.4651299 -9.32885667 206.67285078 -9.29768848 222.88071823 C-9.2822154 230.71870533 -9.26111751 238.55660212 -9.22680664 246.39453125 C-9.19691772 253.22556914 -9.17755321 260.05654164 -9.17085952 266.8876431 C-9.16694637 270.50514143 -9.15774096 274.12245265 -9.13593483 277.73989105 C-9.11179674 281.77687401 -9.11115467 285.81353107 -9.11254883 289.85058594 C-9.101763 291.05180084 -9.09097717 292.25301575 -9.0798645 293.4906311 C-9.08398849 294.58996979 -9.08811249 295.68930847 -9.09236145 296.82196045 C-9.08959607 297.77693798 -9.08683069 298.73191551 -9.08398151 299.71583176 C-9.52348139 302.71904399 -10.35712497 304.06797159 -12.453125 306.23828125 C-15.45631549 307.23934475 -17.52993029 307.38806138 -20.67138672 307.43115234 C-22.26852005 307.45524673 -22.26852005 307.45524673 -23.8979187 307.47982788 C-28.75729707 307.5242969 -33.61654009 307.56532431 -38.47607422 307.58837891 C-41.04061953 307.60495792 -43.60511827 307.63227301 -46.16943359 307.67041016 C-49.86580387 307.72509722 -53.5610925 307.74703962 -57.2578125 307.76171875 C-58.97676224 307.79572281 -58.97676224 307.79572281 -60.73043823 307.83041382 C-62.33702805 307.82613876 -62.33702805 307.82613876 -63.97607422 307.82177734 C-64.91522675 307.8298642 -65.85437927 307.83795105 -66.82199097 307.84628296 C-70.86420464 306.91220937 -72.11438609 305.69240845 -74.453125 302.23828125 C-75.17515664 298.10152605 -75.0841289 294.01818043 -75.02075195 289.82885742 C-75.02148209 288.56991669 -75.02221222 287.31097595 -75.02296448 286.0138855 C-75.02439694 282.56971774 -74.99503655 279.12642365 -74.96009469 275.68245864 C-74.92880184 272.08036865 -74.92589818 268.4782578 -74.91996765 264.87605286 C-74.90443768 258.05845285 -74.86342114 251.24125454 -74.8132202 244.42383128 C-74.75730002 236.66092109 -74.72983359 228.89799154 -74.70474303 221.13493001 C-74.65250415 205.16914792 -74.56457888 189.20376642 -74.453125 173.23828125 C-76.38345581 173.26184692 -76.38345581 173.26184692 -78.3527832 173.28588867 C-83.12176264 173.340139 -87.89071474 173.37461355 -92.65991211 173.40307617 C-94.72506291 173.41817396 -96.7901816 173.43865399 -98.85522461 173.46459961 C-101.82153239 173.5009392 -104.78741671 173.51799755 -107.75390625 173.53125 C-109.14153923 173.55447578 -109.14153923 173.55447578 -110.5572052 173.57817078 C-111.41787094 173.57839737 -112.27853668 173.57862396 -113.1652832 173.57885742 C-113.92251175 173.58551926 -114.6797403 173.59218109 -115.45991516 173.5990448 C-118.01078843 173.13734625 -118.8893364 172.27038622 -120.453125 170.23828125 C-120.84080505 167.77845764 -120.84080505 167.77845764 -120.85717773 164.82055664 C-120.86986191 163.71253189 -120.88254608 162.60450714 -120.89561462 161.46290588 C-120.89267899 160.26600632 -120.88974335 159.06910675 -120.88671875 157.8359375 C-120.8919606 156.60669052 -120.89720245 155.37744354 -120.90260315 154.11094666 C-120.91067922 150.84247293 -120.90354449 147.57441727 -120.89227295 144.30596924 C-120.88954533 140.98705961 -120.92472001 137.66839548 -120.95117188 134.34960938 C-120.95278403 131.82421918 -120.95220608 129.29882644 -120.94921875 126.7734375 C-120.96045273 125.57856216 -120.97168671 124.38368683 -120.98326111 123.15260315 C-120.97388016 122.04142624 -120.96449921 120.93024933 -120.95483398 119.78540039 C-120.95458473 118.32004601 -120.95458473 118.32004601 -120.95433044 116.8250885 C-120.30242115 113.46047284 -119.16966249 112.27956 -116.453125 110.23828125 C-114.37762451 109.75726318 -114.37762451 109.75726318 -112.14355469 109.78417969 C-111.30298523 109.78448181 -110.46241577 109.78478394 -109.59637451 109.78509521 C-108.24929413 109.81606293 -108.24929413 109.81606293 -106.875 109.84765625 C-105.9484259 109.85331604 -105.02185181 109.85897583 -104.06719971 109.86480713 C-101.11197938 109.88717204 -98.15797795 109.93736863 -95.203125 109.98828125 C-93.1979342 110.0083461 -91.19272436 110.0265969 -89.1875 110.04296875 C-84.27557306 110.08703725 -79.36455558 110.1560657 -74.453125 110.23828125 C-74.46883545 108.92335693 -74.4845459 107.60843262 -74.50073242 106.25366211 C-74.55564523 101.30548395 -74.58969498 96.35733186 -74.61791992 91.40893555 C-74.63286837 89.28030852 -74.65323455 87.15171153 -74.67944336 85.02319336 C-74.97807957 60.11927558 -71.63319306 38.33621389 -53.93359375 19.56640625 C-46.27891272 12.38185523 -38.06103548 7.67379568 -28.328125 3.92578125 C-27.34271729 3.54353394 -27.34271729 3.54353394 -26.33740234 3.15356445 C-25.6923877 2.91726318 -25.04737305 2.68096191 -24.3828125 2.4375 C-23.53565674 2.12558716 -23.53565674 2.12558716 -22.67138672 1.80737305 C-15.24905734 -0.09681469 -7.60902848 0.04985816 0 0 Z " fill="#010101" transform="translate(172.453125,22.76171875)"/>
</svg>
