<?xml version="1.0" encoding="UTF-8"?>
<svg version="1.1" xmlns="http://www.w3.org/2000/svg" width="1071" height="1077">
<path d="M0 0 C353.43 0 706.86 0 1071 0 C1071 355.41 1071 710.82 1071 1077 C717.57 1077 364.14 1077 0 1077 C0 721.59 0 366.18 0 0 Z " fill="#4C6E53" transform="translate(0,0)"/>
<path d="M0 0 C13.64281157 9.22551155 20.72829026 25.90880464 28.55078125 39.87890625 C31.92726303 45.89526995 35.38817324 51.85956076 38.875 57.8125 C44.49107302 67.40170457 50.05902592 77.01741185 55.58740234 86.6574707 C56.75489533 88.68775832 57.94141846 90.70721561 59.14624023 92.71557617 C60.53057797 95.16829519 61.69411109 97.51227369 62.82446289 100.07543945 C65.95960097 107.1700511 65.95960097 107.1700511 71.849823 111.76107788 C77.13567736 112.85936455 82.46483478 112.43221914 87.8125 112.0625 C90.96434618 111.90672242 94.11469477 111.79540634 97.26953125 111.72265625 C98.02614044 111.70407562 98.78274963 111.685495 99.56228638 111.66635132 C107.61510776 111.67042312 114.01168183 114.61086578 120.13208008 119.81176758 C128.85518072 128.86322438 129.62787891 139.28789776 129.46655273 151.26855469 C129.43746715 153.62766439 129.44600282 155.98453563 129.45898438 158.34375 C129.45274836 159.86719825 129.44435849 161.39063952 129.43359375 162.9140625 C129.43652939 163.60698395 129.43946503 164.2999054 129.44248962 165.01382446 C129.32905682 170.98627074 127.65466848 175.69066304 125 181 C126.299375 180.9175 127.59875 180.835 128.9375 180.75 C135.03609228 180.74038077 140.46639636 182.77349983 145.0625 186.8125 C148.80480438 189.10617043 153.67126189 187.24937102 157.7890625 186.4765625 C181.64452537 182.47163078 206.33058756 184.62290017 229 193 C229.6919043 193.25265625 230.38380859 193.5053125 231.09667969 193.765625 C257.03065019 203.39790535 257.03065019 203.39790535 265 213 C265.3125 216.1875 265.3125 216.1875 265 219 C264.67 219.33 264.34 219.66 264 220 C269.445 224.455 269.445 224.455 275 229 C275.33 228.67 275.66 228.34 276 228 C279.76331311 227.63814297 282.13815351 227.43163944 285.3515625 229.55078125 C300.72091445 243.7640315 312.17166294 265.02653468 318 285 C318.23976563 285.80163574 318.47953125 286.60327148 318.7265625 287.42919922 C325.51389862 311.18934098 326.73885365 341.27788579 319 365 C318.76394043 365.75764648 318.52788086 366.51529297 318.28466797 367.29589844 C311.25440001 389.42469802 299.94276408 408.165522 284 425 C282.82824219 426.25103516 282.82824219 426.25103516 281.6328125 427.52734375 C262.65213823 447.20539104 237.44322028 459.74813211 211 466 C210.21802246 466.18691406 209.43604492 466.37382813 208.63037109 466.56640625 C201.02926582 468.17233372 193.51580751 468.3063404 185.78515625 468.26074219 C183.63512757 468.25005036 181.4859405 468.26068075 179.3359375 468.2734375 C160.31169901 468.29377946 139.83642359 464.84515923 122.828125 455.8515625 C120.88288175 454.78887543 120.88288175 454.78887543 118 455 C116.40619532 456.60599213 116.40619532 456.60599213 114.875 458.6875 C110.36876186 464.0835049 104.90379914 467.53472771 98 469 C96.62308043 469.08817919 95.24260448 469.12899682 93.8628664 469.13142776 C93.04185454 469.13526891 92.22084267 469.13911005 91.37495166 469.1430676 C90.47836925 469.14220112 89.58178685 469.14133463 88.65803528 469.14044189 C87.70133287 469.14341302 86.74463045 469.14638414 85.75893706 469.1494453 C82.5447676 469.158135 79.33063537 469.15964078 76.11645508 469.16113281 C73.81522543 469.16576082 71.51399654 469.17078546 69.21276855 469.17617798 C62.95433654 469.1893063 56.69591526 469.19574787 50.43747163 469.20018864 C46.52770165 469.20311888 42.61793462 469.20722361 38.70816612 469.21169281 C27.87784464 469.22380219 17.04752639 469.23418387 6.21719837 469.2375679 C5.52421427 469.23778747 4.83123017 469.23800703 4.11724655 469.23823325 C3.42262531 469.23845153 2.72800406 469.23866981 2.01233369 469.2388947 C0.60482077 469.23933816 -0.80269216 469.23978473 -2.21020508 469.24023438 C-2.90837675 469.2404558 -3.60654842 469.24067723 -4.32587681 469.24090537 C-15.63276027 469.24485139 -26.9395792 469.26229967 -38.24643775 469.2855939 C-49.86200899 469.30933042 -61.47754469 469.32151304 -73.09314042 469.32293582 C-79.61201435 469.32398393 -86.13079728 469.32989306 -92.64964867 469.34775543 C-98.78343589 469.36423541 -104.9170637 469.36639185 -111.05086517 469.35761642 C-113.2998351 469.356846 -115.54881359 469.36118948 -117.79776192 469.37107468 C-120.87306959 469.38379726 -123.94781299 469.37791533 -127.02311707 469.36749268 C-128.35126026 469.37957728 -128.35126026 469.37957728 -129.70623463 469.39190602 C-139.80536326 469.31211268 -147.85651464 466.20605147 -155 459 C-161.66765283 449.91673767 -161.882035 440.77444986 -161.67236328 429.98144531 C-161.62494179 427.37179658 -161.63130503 424.76622443 -161.64453125 422.15625 C-161.60905816 411.96241454 -160.74189894 404.01376615 -155.25 395.1875 C-152.09252381 392.11773148 -147.60286891 388 -143 388 C-143.28367432 387.41621582 -143.56734863 386.83243164 -143.85961914 386.23095703 C-147.43303678 377.88958601 -147.58389478 370.19622908 -147.46655273 361.28369141 C-147.43746412 358.87202543 -147.44600735 356.46254977 -147.45898438 354.05078125 C-147.44657337 346.22579088 -147.17250091 339.28749547 -144 332 C-144.66386719 331.68546875 -145.32773437 331.3709375 -146.01171875 331.046875 C-155.27377033 326.55782226 -161.11974882 322.12737844 -165.04638672 312.41064453 C-166.2049795 308.26688078 -166.34206211 304.51513747 -166.37109375 300.234375 C-166.38463646 298.984216 -166.38463646 298.984216 -166.39845276 297.70880127 C-166.4129089 295.95059777 -166.42183042 294.19234105 -166.42553711 292.43408203 C-166.4374041 289.77151668 -166.4866073 287.11129393 -166.53710938 284.44921875 C-166.63572759 274.19232251 -166.3840337 265.82697645 -159.06811523 257.90917969 C-153.43500345 252.38121125 -146.71179428 248.8278343 -138.74609375 248.609375 C-136.97613454 248.63549986 -135.20636517 248.68251578 -133.4375 248.75 C-132.52419922 248.76804687 -131.61089844 248.78609375 -130.66992188 248.8046875 C-128.44546486 248.85127299 -126.22333033 248.91664515 -124 249 C-124.73017334 247.55173828 -124.73017334 247.55173828 -125.47509766 246.07421875 C-127.36593641 241.6390518 -127.43388362 237.58050224 -127.3984375 232.8125 C-127.40130768 231.95116455 -127.40417786 231.0898291 -127.40713501 230.20239258 C-127.40916661 228.39045551 -127.40370036 226.57849605 -127.39111328 224.76660156 C-127.37504636 222.00796023 -127.39099251 219.25078378 -127.41015625 216.4921875 C-127.40817366 214.72395513 -127.40432965 212.95572366 -127.3984375 211.1875 C-127.40754654 209.96220581 -127.40754654 209.96220581 -127.4168396 208.7121582 C-127.35243963 203.41586069 -126.3884875 199.73744359 -124 195 C-125.11375 195.0825 -126.2275 195.165 -127.375 195.25 C-135.39423248 195.2357815 -142.42603045 191.57396955 -148 186 C-155.27464597 176.85473078 -155.50763902 167.05133426 -155.44604492 155.91674805 C-155.43752925 153.57055981 -155.46637472 151.22680866 -155.49804688 148.88085938 C-155.55095291 137.7040517 -154.23958202 128.14524727 -146.12109375 119.82421875 C-139.86372391 114.44265021 -134.65968379 111.65293727 -126.37890625 112.25390625 C-117.04856024 112.95371891 -117.04856024 112.95371891 -108 111 C-101.94090196 105.64839744 -98.91661068 97.68866228 -95.63623047 90.46533203 C-92.94725615 84.77041984 -89.70539781 79.41536855 -86.5 74 C-85.23702528 71.81397592 -83.97660076 69.62647645 -82.71875 67.4375 C-78.60227088 60.30226952 -74.4518406 53.18705931 -70.28930664 46.07861328 C-67.15085137 40.71250852 -64.04121699 35.33152335 -60.96484375 29.9296875 C-59.95099003 28.15433098 -58.93680776 26.37916243 -57.92260742 24.60400391 C-56.96429741 22.92203327 -56.01232845 21.23645475 -55.06054688 19.55078125 C-48.29173076 7.70349959 -41.15370605 0.07491771 -27.87890625 -4.30078125 C-17.8519336 -6.73609754 -9.01885961 -4.81611647 0 0 Z " fill="#020201" transform="translate(458,185)"/>
<path d="M0 0 C3.02888866 0.19753622 5.49943531 0.14186696 8.42578125 -0.6875 C11 -1 11 -1 13.23828125 0.08203125 C15.47589595 1.94881715 17.31184037 3.61547453 19 6 C19.125 8.23828125 19.125 8.23828125 18.8125 10.625 C18.46387799 14.53074826 18.84655755 15.77923362 21.13671875 19.07421875 C22.56569574 20.7400049 24.04048415 22.3568531 25.52001953 23.9777832 C36.89023547 36.44512525 45.6187901 53.68781672 50 70 C50.18046875 70.62551758 50.3609375 71.25103516 50.546875 71.89550781 C59.53412833 103.76078607 54.10474948 138.3150977 38.47802734 167.11376953 C32.62910102 177.45238202 25.11954169 186.36637187 17 195 C16.19369141 195.90298828 16.19369141 195.90298828 15.37109375 196.82421875 C-2.10145473 215.61049267 -28.156273 226.55278145 -52.95117188 230.65649414 C-54.58179968 230.92988467 -56.20486204 231.2483049 -57.82421875 231.58203125 C-74.28139064 233.7479813 -91.04014359 232.30406384 -107 228 C-107.65967773 227.82871582 -108.31935547 227.65743164 -108.99902344 227.48095703 C-129.88399184 221.89194621 -147.44139351 209.63054926 -163 195 C-163.88558594 194.21109375 -163.88558594 194.21109375 -164.7890625 193.40625 C-185.34419308 174.31238463 -198.90369194 143.26629268 -200.15966797 115.46582031 C-200.28109931 111.41374215 -200.34520735 107.36604536 -200.375 103.3125 C-200.38909912 102.01787842 -200.40319824 100.72325684 -200.41772461 99.3894043 C-200.37344272 90.57618727 -199.15333432 82.53334129 -197 74 C-196.72075684 72.83533203 -196.44151367 71.67066406 -196.15380859 70.47070312 C-188.6781137 40.15547143 -167.13462935 12.38352119 -140.5703125 -3.76171875 C-96.02448102 -29.73882112 -42.94946228 -28.63297486 0 0 Z " fill="#FDC04F" transform="translate(713,407)"/>
<path d="M0 0 C9.53808653 4.22668148 14.48420072 14.14675372 19.1796875 22.8828125 C20.410871 25.12733951 21.64399328 27.37080398 22.87890625 29.61328125 C23.50071777 30.74556152 24.1225293 31.8778418 24.76318359 33.04443359 C27.59383625 38.14139757 30.53714227 43.16975405 33.4921875 48.1953125 C38.93765072 57.47646271 44.30064721 66.80200787 49.62506104 76.15286255 C55.04446677 85.66819289 60.53406183 95.14067172 66.1015625 104.5703125 C76.31519109 121.95312269 76.31519109 121.95312269 74.21484375 133.6171875 C72.50509548 139.38339735 68.62097046 143.200052 63.6171875 146.3828125 C55.70866148 150.18567355 48.01367872 149.84125929 39.37695312 149.91015625 C38.29478516 149.93207031 37.21261719 149.95398438 36.09765625 149.9765625 C35.11692139 149.98365234 34.13618652 149.99074219 33.12573242 149.99804688 C30.13271233 150.45712227 29.44161402 151.01869625 27.6171875 153.3828125 C27.16799775 155.60111888 27.16799775 155.60111888 27.23864746 158.10700989 C27.22634346 159.56425224 27.22634346 159.56425224 27.21379089 161.05093384 C27.22301323 162.6476442 27.22301323 162.6476442 27.23242188 164.27661133 C27.2270491 165.39882584 27.22167633 166.52104034 27.21614075 167.67726135 C27.20634515 170.11793608 27.20342394 172.5586457 27.20649719 174.99933815 C27.21096284 178.86176373 27.19700916 182.72372811 27.17810059 186.58610535 C27.14125258 194.78916868 27.12744961 202.99217888 27.1171875 211.1953125 C27.10529947 220.68940958 27.08359662 230.18324868 27.03718567 239.67725182 C27.02359618 243.48290603 27.02779059 247.28827932 27.03259277 251.09394836 C27.023252 253.42957925 27.01308314 255.76520703 27.00195312 258.10083008 C27.01117546 259.6884314 27.01117546 259.6884314 27.02058411 261.30810547 C26.9755722 266.68557766 26.87376136 270.86267975 23.6171875 275.3828125 C20.12181972 278.14269702 17.48141237 278.76376471 13.08007812 278.80273438 C11.99545288 278.81864624 10.91082764 278.83455811 9.79333496 278.85095215 C8.05098572 278.85125427 8.05098572 278.85125427 6.2734375 278.8515625 C5.07158813 278.85917603 3.86973877 278.86678955 2.63146973 278.87463379 C0.0930387 278.88542861 -2.44543673 278.88829043 -4.98388672 278.88378906 C-8.86891548 278.88281598 -12.75197466 278.92446539 -16.63671875 278.96875 C-19.10416255 278.97395642 -21.57161321 278.9766452 -24.0390625 278.9765625 C-25.78141174 279.0011554 -25.78141174 279.0011554 -27.55895996 279.02624512 C-35.59243147 278.95732285 -35.59243147 278.95732285 -39.52929688 276.09570312 C-42.27578777 272.07581286 -43.63162378 269.43320471 -43.64109802 264.51817322 C-43.64792603 263.54096817 -43.65475403 262.56376312 -43.66178894 261.5569458 C-43.65923599 260.49135437 -43.65668304 259.42576294 -43.65405273 258.32788086 C-43.65927948 257.20070145 -43.66450623 256.07352203 -43.66989136 254.91218567 C-43.68013447 252.46442496 -43.6859123 250.01664244 -43.68777275 247.56886101 C-43.69142875 243.6988438 -43.7081333 239.8290846 -43.72853088 235.9591217 C-43.77700101 226.34907315 -43.80862625 216.73899226 -43.82983398 207.12884521 C-43.84778137 199.00737507 -43.87710741 190.88616991 -43.92387581 182.76480293 C-43.93555516 180.19671131 -43.94145641 177.62858685 -43.94155693 175.06046867 C-43.94174813 171.47623253 -43.95995145 167.89250682 -43.98217773 164.30834961 C-43.97760056 163.24073395 -43.97302338 162.17311829 -43.9683075 161.07315063 C-43.97795532 160.09876541 -43.98760315 159.12438019 -43.99754333 158.12046814 C-43.99955466 157.2730049 -44.00156599 156.42554167 -44.00363827 155.55239773 C-44.47081663 152.87926442 -45.23012944 151.99312661 -47.3828125 150.3828125 C-50.15241134 149.89254527 -50.15241134 149.89254527 -53.30078125 149.90625 C-54.47318359 149.8753125 -55.64558594 149.844375 -56.85351562 149.8125 C-58.08005859 149.79445313 -59.30660156 149.77640625 -60.5703125 149.7578125 C-62.98053954 149.70633942 -65.39070193 149.65172894 -67.80078125 149.59375 C-68.93821777 149.56772705 -70.0756543 149.5417041 -71.24755859 149.51489258 C-73.91428962 149.40255015 -76.4814922 149.16830852 -79.12109375 148.79296875 C-82.27345468 148.07866881 -82.27345468 148.07866881 -84.3828125 149.4453125 C-85.83380308 152.25660676 -85.77212086 154.26834562 -85.3828125 157.3828125 C-83.35023027 160.37819684 -80.76853134 161.30950472 -77.3828125 162.3828125 C-73.95091592 162.76490997 -70.52019513 162.89078468 -67.0703125 163.0078125 C-65.67329102 163.06582031 -65.67329102 163.06582031 -64.24804688 163.125 C-61.95982843 163.21887563 -59.67160955 163.30455759 -57.3828125 163.3828125 C-57.3828125 165.6928125 -57.3828125 168.0028125 -57.3828125 170.3828125 C-65.3629243 170.47566203 -73.34280886 170.5466525 -81.32332802 170.59006119 C-85.029386 170.61089965 -88.7350733 170.63914753 -92.44091797 170.68457031 C-96.02007036 170.72816362 -99.59886714 170.75197773 -103.17826462 170.76232147 C-104.54099497 170.76968885 -105.90370677 170.78407588 -107.26628494 170.80573273 C-118.08721935 170.97081648 -118.08721935 170.97081648 -123.01708984 168.73339844 C-127.47977031 164.29927175 -129.81902394 160.97804541 -129.93859863 154.52062988 C-129.93050171 153.80483765 -129.92240479 153.08904541 -129.9140625 152.3515625 C-129.9178894 151.59742065 -129.92171631 150.84327881 -129.92565918 150.06628418 C-129.92836844 148.4795599 -129.92107645 146.89279021 -129.90429688 145.30615234 C-129.88286982 142.88927837 -129.90412869 140.47537622 -129.9296875 138.05859375 C-129.92704404 136.51041016 -129.92191869 134.96222841 -129.9140625 133.4140625 C-129.92215942 132.69827026 -129.93025635 131.98247803 -129.93859863 131.24499512 C-129.84464968 126.17145167 -128.54524792 123.3048184 -125.3828125 119.3828125 C-121.34487623 116.05622252 -117.60443961 116.00743599 -112.5703125 116.1953125 C-111.53100586 116.21561523 -111.53100586 116.21561523 -110.47070312 116.23632812 C-108.77439985 116.27142405 -107.07850114 116.32522307 -105.3828125 116.3828125 C-105.36822998 116.93743164 -105.35364746 117.49205078 -105.33862305 118.06347656 C-105.26394353 120.58727492 -105.16735225 123.10977904 -105.0703125 125.6328125 C-105.04775391 126.50550781 -105.02519531 127.37820313 -105.00195312 128.27734375 C-104.82837529 134.4360903 -104.82837529 134.4360903 -101.3828125 139.3828125 C-96.36746198 139.05321034 -96.36746198 139.05321034 -92.3828125 136.3828125 C-92.15557303 133.1940095 -92.06471586 130.04691354 -92.08007812 126.8515625 C-91.89287757 120.47466617 -89.4999171 115.86232718 -86.3828125 110.3828125 C-85.65783569 109.10035645 -85.65783569 109.10035645 -84.91821289 107.79199219 C-83.32375006 105.01745825 -81.70052887 102.26148084 -80.0703125 99.5078125 C-74.77656161 90.50222133 -69.55155569 81.46046853 -64.3828125 72.3828125 C-58.85108758 62.67389455 -53.2794105 52.98986591 -47.61474609 43.35766602 C-44.84842091 38.64655192 -42.11240281 33.92336222 -39.45576477 29.14929199 C-38.46144277 27.36339227 -37.46111583 25.58098124 -36.45922852 23.79931641 C-35.1958181 21.54689574 -33.94419074 19.28780817 -32.70678711 17.02099609 C-25.2624937 3.81548493 -15.85864514 -4.10764907 0 0 Z " fill="#94D5A3" transform="translate(447.3828125,195.6171875)"/>
<path d="M0 0 C3.02888866 0.19753622 5.49943531 0.14186696 8.42578125 -0.6875 C11 -1 11 -1 13.23828125 0.08203125 C15.47589595 1.94881715 17.31184037 3.61547453 19 6 C19.125 8.23828125 19.125 8.23828125 18.8125 10.625 C18.46387799 14.53074826 18.84655755 15.77923362 21.13671875 19.07421875 C22.56569574 20.7400049 24.04048415 22.3568531 25.52001953 23.9777832 C36.89023547 36.44512525 45.6187901 53.68781672 50 70 C50.18046875 70.62551758 50.3609375 71.25103516 50.546875 71.89550781 C59.53412833 103.76078607 54.10474948 138.3150977 38.47802734 167.11376953 C32.62910102 177.45238202 25.11954169 186.36637187 17 195 C16.19369141 195.90298828 16.19369141 195.90298828 15.37109375 196.82421875 C-2.10145473 215.61049267 -28.156273 226.55278145 -52.95117188 230.65649414 C-54.58179968 230.92988467 -56.20486204 231.2483049 -57.82421875 231.58203125 C-74.28139064 233.7479813 -91.04014359 232.30406384 -107 228 C-107.65967773 227.82871582 -108.31935547 227.65743164 -108.99902344 227.48095703 C-129.88399184 221.89194621 -147.44139351 209.63054926 -163 195 C-163.88558594 194.21109375 -163.88558594 194.21109375 -164.7890625 193.40625 C-185.34419308 174.31238463 -198.90369194 143.26629268 -200.15966797 115.46582031 C-200.28109931 111.41374215 -200.34520735 107.36604536 -200.375 103.3125 C-200.38909912 102.01787842 -200.40319824 100.72325684 -200.41772461 99.3894043 C-200.37344272 90.57618727 -199.15333432 82.53334129 -197 74 C-196.72075684 72.83533203 -196.44151367 71.67066406 -196.15380859 70.47070312 C-188.6781137 40.15547143 -167.13462935 12.38352119 -140.5703125 -3.76171875 C-96.02448102 -29.73882112 -42.94946228 -28.63297486 0 0 Z M-122 20 C-123.01578125 20.57878906 -124.0315625 21.15757812 -125.078125 21.75390625 C-146.95061526 34.92016785 -162.33102067 56.91283154 -168.90698242 81.41772461 C-175.19724969 107.58905749 -169.72491668 132.84245123 -156.85546875 155.99609375 C-153.96128566 160.68162384 -150.57806136 164.82683488 -147 169 C-146.55527344 169.58910156 -146.11054687 170.17820312 -145.65234375 170.78515625 C-133.04215197 187.09742269 -110.83037686 198.54097705 -90.69921875 201.53125 C-63.24183128 204.73511753 -36.26246634 200.77234479 -14.07421875 183.4921875 C-13.05972656 182.66976562 -12.04523438 181.84734375 -11 181 C-10.09894531 180.28070312 -9.19789063 179.56140625 -8.26953125 178.8203125 C10.28533206 163.11340496 22.41460427 139.04017197 25 115 C26.73711632 93.56729346 22.60645936 74.63010826 12 56 C11.52949219 55.0925 11.05898438 54.185 10.57421875 53.25 C-0.20262923 33.4129701 -21.75201277 17.89820278 -43.02685547 11.37890625 C-70.33598854 3.58539287 -97.28432218 5.58722902 -122 20 Z " fill="#EEE34B" transform="translate(713,407)"/>
<path d="M0 0 C0.80802539 -0.01117892 1.61605078 -0.02235785 2.44856179 -0.03387552 C5.14770725 -0.06614061 7.84611611 -0.06996355 10.54544067 -0.07362366 C12.48407379 -0.09050902 14.4226936 -0.10898694 16.36129761 -0.12893677 C21.62165145 -0.17706295 26.881787 -0.19880531 32.1423316 -0.21278453 C35.42999998 -0.22229764 38.71761027 -0.2367491 42.00525284 -0.25279427 C53.47797729 -0.30775624 64.95052478 -0.33875871 76.42337036 -0.35096741 C87.11325307 -0.36307898 97.80179572 -0.43168486 108.49124229 -0.52569383 C117.67361744 -0.60362999 126.85554604 -0.63924496 136.03824914 -0.64261633 C141.52083319 -0.64550475 147.00198037 -0.66604385 152.4842186 -0.73025322 C157.64122429 -0.78940337 162.79566361 -0.7959171 167.95287323 -0.76231956 C169.84272428 -0.75896434 171.73271779 -0.77434184 173.62223434 -0.81005478 C187.88921483 -1.06356748 187.88921483 -1.06356748 192.63299942 2.92259026 C194.68697509 5.71562893 196.24914623 8.46905136 197.81546021 11.55503845 C207.94537044 25.63830667 220.59048986 36.7928039 234.81546021 46.55503845 C232.71235312 50.65056278 231.01920497 52.64148689 226.81546021 54.55503845 C223.64361843 54.99404849 220.49992528 54.97270515 217.30181885 54.95617676 C216.33876733 54.96297343 215.37571581 54.9697701 214.38348091 54.97677273 C211.15382936 54.99577556 207.92455604 54.99330587 204.69485474 54.99082947 C202.38037629 54.99980502 200.06590235 55.01001279 197.75143433 55.0213623 C191.46218081 55.04788622 185.17304971 55.05489676 178.88374567 55.05680966 C173.63512815 55.0596571 168.38653919 55.07069209 163.13793266 55.08132595 C151.46351586 55.10436485 139.78915879 55.11333167 128.11472107 55.11130989 C127.4144562 55.11119002 126.71419132 55.11107016 125.9927063 55.11094666 C125.29158489 55.11082401 124.59046349 55.11070137 123.86809598 55.11057501 C112.50486115 55.1093556 101.14192452 55.13806623 89.77877595 55.18036176 C78.1066598 55.22346398 66.43470275 55.24362244 54.76250541 55.24158043 C48.21119521 55.24081505 41.66022253 55.24939203 35.10898209 55.28111458 C28.94793808 55.31013292 22.78755486 55.31041317 16.62648773 55.28856468 C14.36538352 55.28542406 12.10423835 55.29253442 9.8432045 55.31064606 C6.75571338 55.333776 3.67051009 55.31989903 0.58306885 55.29675293 C-0.31139446 55.31218362 -1.20585777 55.32761431 -2.12742603 55.34351259 C-7.71892042 55.25089744 -10.70532956 54.06509232 -14.80136979 50.23208755 C-18.25727499 46.04191377 -18.50378919 42.21831373 -18.52047729 36.93785095 C-18.52713409 36.20307526 -18.53379089 35.46829956 -18.54064941 34.71125793 C-18.55075428 33.15969844 -18.5554671 31.60809567 -18.55514526 30.0565033 C-18.55951287 27.69460136 -18.59583551 25.33457809 -18.63375854 22.9730072 C-18.63962853 21.4612948 -18.64359671 19.94957358 -18.64547729 18.43785095 C-18.65984833 17.73765839 -18.67421936 17.03746582 -18.68902588 16.3160553 C-18.64224034 11.24200651 -17.4560022 8.39977273 -14.18453979 4.55503845 C-9.52712395 0.77685943 -5.8434485 -0.03242777 0 0 Z " fill="#F0E54B" transform="translate(329.1845397949219,584.4449615478516)"/>
<path d="M0 0 C4.2326752 1.55814983 8.49971022 3.30883366 11.53515625 6.73046875 C12.26025391 7.35888672 12.26025391 7.35888672 13 8 C16.87337437 7.68110773 19.67306252 5.37757906 22.8046875 3.25390625 C30.73715844 -1.2769179 40.51925766 -1.33885764 49.24609375 0.79296875 C53.83421886 2.41780003 57.86438345 4.43179684 62 7 C62.58007812 6.66226563 63.16015625 6.32453125 63.7578125 5.9765625 C64.53898438 5.53054688 65.32015625 5.08453125 66.125 4.625 C66.89070312 4.18414063 67.65640625 3.74328125 68.4453125 3.2890625 C73.8440931 0.56490715 78.73360791 -0.38939845 84.75 -0.375 C85.45229736 -0.37338867 86.15459473 -0.37177734 86.87817383 -0.37011719 C95.22591114 -0.17453451 101.78712031 2.34647925 108 8 C109.73046875 10.6640625 109.73046875 10.6640625 111.1875 13.625 C111.92033203 15.06746094 111.92033203 15.06746094 112.66796875 16.5390625 C116.22225024 25.7739405 116.27305966 34.96855837 116.1953125 44.7578125 C116.19157356 46.15599361 116.18873076 47.55417737 116.18673706 48.95236206 C116.17916983 52.59866817 116.15958246 56.24481014 116.1373291 59.89105225 C116.11672009 63.62526226 116.10770344 67.35949928 116.09765625 71.09375 C116.07632861 78.39590745 116.04227832 85.69793056 116 93 C112.93991711 94.02002763 110.83616385 94.12904068 107.6328125 94.1328125 C106.58222656 94.13410156 105.53164063 94.13539063 104.44921875 94.13671875 C103.35222656 94.13285156 102.25523437 94.12898437 101.125 94.125 C99.49111328 94.13080078 99.49111328 94.13080078 97.82421875 94.13671875 C96.24447266 94.13478516 96.24447266 94.13478516 94.6328125 94.1328125 C93.19252686 94.13112061 93.19252686 94.13112061 91.72314453 94.12939453 C89.04842823 94.00230114 86.61477303 93.55208109 84 93 C83.99191315 92.26750534 83.98382629 91.53501068 83.97549438 90.78031921 C83.89757273 83.87923677 83.81028939 76.9783295 83.71247292 70.07750225 C83.6625143 66.52965396 83.61618445 62.98183537 83.578125 59.43383789 C83.53421731 55.35543986 83.4745677 51.27740455 83.4140625 47.19921875 C83.40251129 45.92414963 83.39096008 44.64908051 83.37905884 43.33537292 C83.35918915 42.15437515 83.33931946 40.97337738 83.31884766 39.7565918 C83.30552399 38.71512497 83.29220032 37.67365814 83.2784729 36.60063171 C83.17782224 33.7651949 83.17782224 33.7651949 81 31 C76.65413172 30.60492107 74.67996503 30.54668998 71 33 C70.5218788 35.62293289 70.5218788 35.62293289 70.56762695 38.73486328 C70.54783279 39.93595734 70.52803864 41.13705139 70.50764465 42.37454224 C70.50125473 43.67664642 70.49486481 44.97875061 70.48828125 46.3203125 C70.47144088 47.6626857 70.45329151 49.00504306 70.43388367 50.34738159 C70.38630693 53.88188734 70.35654775 57.41632893 70.33044434 60.9510498 C70.30067711 64.55733925 70.25413377 68.16340739 70.20898438 71.76953125 C70.12286444 78.84622767 70.05555812 85.92299237 70 93 C65.80886724 95.09556638 60.29217332 94.18492612 55.6875 94.1875 C54.54603516 94.19974609 53.40457031 94.21199219 52.22851562 94.22460938 C50.57432617 94.22750977 50.57432617 94.22750977 48.88671875 94.23046875 C47.87826904 94.23457764 46.86981934 94.23868652 45.83081055 94.24291992 C42.85465714 93.98752771 40.73192606 93.15814141 38 92 C37.99191315 91.28003342 37.98382629 90.56006683 37.97549438 89.81828308 C37.89756976 83.03492739 37.81028552 76.25174984 37.71247292 69.46865368 C37.66251626 65.98134023 37.6161864 62.49405697 37.578125 59.0065918 C37.53421416 54.99768923 37.4745654 50.98915548 37.4140625 46.98046875 C37.40251129 45.72727341 37.39096008 44.47407806 37.37905884 43.1829071 C37.35918915 42.02193008 37.33931946 40.86095306 37.31884766 39.66479492 C37.30552399 38.64109299 37.29220032 37.61739105 37.2784729 36.56266785 C37.17339588 33.76006168 37.17339588 33.76006168 35 31 C30.65413172 30.60492107 28.67996503 30.54668998 25 33 C24.5218788 35.62293289 24.5218788 35.62293289 24.56762695 38.73486328 C24.54783279 39.93595734 24.52803864 41.13705139 24.50764465 42.37454224 C24.50125473 43.67664642 24.49486481 44.97875061 24.48828125 46.3203125 C24.47144088 47.6626857 24.45329151 49.00504306 24.43388367 50.34738159 C24.38630693 53.88188734 24.35654775 57.41632893 24.33044434 60.9510498 C24.30067711 64.55733925 24.25413377 68.16340739 24.20898438 71.76953125 C24.12286444 78.84622767 24.05555812 85.92299237 24 93 C20.99976462 94.00007846 18.98563836 94.12895348 15.8515625 94.1328125 C14.84609375 94.13410156 13.840625 94.13539063 12.8046875 94.13671875 C11.23074219 94.13091797 11.23074219 94.13091797 9.625 94.125 C8.06265625 94.13080078 8.06265625 94.13080078 6.46875 94.13671875 C5.46070313 94.13542969 4.45265625 94.13414062 3.4140625 94.1328125 C2.03661865 94.13112061 2.03661865 94.13112061 0.63134766 94.12939453 C-2 94 -2 94 -7 93 C-7 72.87 -7 52.74 -7 32 C-9.31 32 -11.62 32 -14 32 C-16.61593153 30.16884793 -16.96989455 29.09031634 -18 26 C-18.69880555 17.83199415 -18.45236764 10.11829147 -14 3 C-9.75488626 -0.99434752 -5.55100838 -0.86313825 0 0 Z " fill="#EFE75D" transform="translate(473,782)"/>
<path d="M0 0 C0.67805826 -0.0034177 1.35611653 -0.0068354 2.05472201 -0.01035666 C4.31984919 -0.01692939 6.58378324 0.00502843 8.84880066 0.0269165 C10.47513298 0.02804512 12.10146733 0.02741084 13.72779846 0.02514648 C18.13869751 0.02399896 22.54916135 0.04751431 26.95995927 0.07544231 C31.57105187 0.10044967 36.18215449 0.10279744 40.79330444 0.10754395 C49.52327008 0.11997568 58.25303532 0.15279997 66.98291272 0.1929419 C76.92235176 0.23765345 86.86180038 0.2596451 96.80131495 0.27972364 C117.24588492 0.32153242 137.6902745 0.39188835 158.13468933 0.48101807 C158.2128035 1.18891983 158.29091766 1.89682159 158.37139893 2.62617493 C158.7347071 5.88199999 159.10845638 9.13654806 159.48234558 12.39117432 C159.60500793 13.5044812 159.72767029 14.61778809 159.85404968 15.76483154 C161.28137437 28.05154912 164.50791724 39.34106498 169.43547058 50.69586182 C170.13468933 52.48101807 170.13468933 52.48101807 170.13468933 54.48101807 C147.30809694 54.59783625 124.48155387 54.68599892 101.65472317 54.74007893 C91.05573978 54.76585701 80.45694216 54.80100012 69.858078 54.85821533 C60.6197537 54.90806224 51.38156395 54.94031195 42.1431089 54.95146054 C37.25166389 54.95797709 32.36060377 54.97328474 27.46928215 55.00966835 C22.86374402 55.04364809 18.25874873 55.05406702 13.65309715 55.04655647 C11.9644348 55.04793013 10.27575399 55.05785103 8.58720016 55.07704544 C-5.76072041 55.23212045 -5.76072041 55.23212045 -10.30534363 52.12290955 C-16.90046235 45.31673287 -16.36249834 38.18084775 -16.31135559 29.2588501 C-16.30283287 26.98693572 -16.33166329 24.71752919 -16.36335754 22.44586182 C-16.36496966 20.98883131 -16.36439183 19.5317964 -16.36140442 18.07476807 C-16.36325745 16.76185791 -16.36511047 15.44894775 -16.36701965 14.09625244 C-15.63838516 8.84582929 -13.40048433 5.96756496 -9.6517992 2.33761978 C-6.17431998 0.02061979 -4.15666062 -0.01264383 0 0 Z " fill="#F0E54B" transform="translate(340.8653106689453,516.5189819335938)"/>
<path d="M0 0 C17.59627907 13.9244268 30.03311735 31.87878969 35.625 53.625 C35.92277344 54.59050781 36.22054687 55.55601562 36.52734375 56.55078125 C43.58703132 81.63381866 36.77630076 107.49945339 24.48046875 129.62109375 C21.58628566 134.30662384 18.20306136 138.45183488 14.625 142.625 C14.18027344 143.21410156 13.73554687 143.80320312 13.27734375 144.41015625 C6.38968262 153.31988304 -4.25084715 160.86995465 -14.375 165.625 C-15.54417969 166.19992187 -16.71335937 166.77484375 -17.91796875 167.3671875 C-40.56159277 178.16900566 -68.97630487 179.49898722 -92.69921875 171.1484375 C-119.75988492 161.00292435 -138.29457896 141.30246016 -150.375 115.625 C-160.21079074 93.92335705 -160.14064055 67.91468164 -152.375 45.625 C-150.13744831 40.04588034 -147.34536387 34.84240559 -144.375 29.625 C-143.90449219 28.7175 -143.43398438 27.81 -142.94921875 26.875 C-132.39320689 7.44446489 -110.88227122 -8.481164 -90.06591797 -15.11035156 C-59.15229879 -24.24898329 -26.23323471 -18.98722615 0 0 Z M-125.33984375 25.921875 C-139.98628524 45.71615874 -145.02208038 67.86286567 -142.06152344 92.20214844 C-140.47849561 101.95538125 -137.07095448 110.93976379 -132.375 119.625 C-131.88515625 120.54539062 -131.3953125 121.46578125 -130.890625 122.4140625 C-120.24853297 140.69528 -102.00668653 153.30286031 -82.15234375 159.65625 C-59.10349663 165.59016058 -35.66863896 161.17427879 -15.15625 149.84765625 C3.33176726 138.34129814 16.51850682 120.31220981 22.24951172 99.33959961 C27.41152544 76.57562563 23.66403078 53.42397676 11.625 33.625 C8.58584309 29.04153152 5.19110565 24.80615537 1.625 20.625 C1.06425781 19.95082031 0.50351562 19.27664063 -0.07421875 18.58203125 C-12.1311852 5.3102571 -32.15072167 -3.16841654 -49.74243164 -4.66064453 C-53.12524082 -4.77449736 -56.4906 -4.78505132 -59.875 -4.75 C-61.55529297 -4.76740234 -61.55529297 -4.76740234 -63.26953125 -4.78515625 C-87.7685103 -4.7003847 -109.54382447 7.45654829 -125.33984375 25.921875 Z " fill="#050401" transform="translate(699.375,433.375)"/>
<path d="M0 0 C1.06933022 -0.00065712 1.06933022 -0.00065712 2.16026306 -0.00132751 C4.4979162 0.00074924 6.83483668 0.02402637 9.17236328 0.04760742 C10.80046192 0.05320737 12.42856563 0.05747558 14.05667114 0.06047058 C18.32782106 0.07188805 22.59866166 0.10132824 26.86968994 0.13458252 C31.23355933 0.16535046 35.59747903 0.17899025 39.96142578 0.1940918 C48.51365057 0.2262012 57.06562462 0.27735967 65.61767578 0.34057617 C65.6335675 0.90977783 65.64945923 1.47897949 65.66583252 2.06542969 C65.74617431 4.6785613 65.84584847 7.29062407 65.94580078 9.90307617 C65.9704541 10.79833008 65.99510742 11.69358398 66.02050781 12.6159668 C66.33378223 20.21809267 67.9061381 26.16971267 72.61767578 32.34057617 C81.41147151 40.04366855 89.77310883 40.50006979 100.97314453 40.57885742 C102.07056473 40.58692917 103.16798492 40.59500092 104.29866028 40.60331726 C106.61762938 40.6171185 108.93661846 40.62785827 111.25561523 40.63574219 C113.6130982 40.64725476 115.97055525 40.6676949 118.32788086 40.69726562 C121.75148053 40.74017148 125.17430857 40.75614337 128.59814453 40.76635742 C129.63811081 40.78386551 130.67807709 40.8013736 131.7495575 40.81941223 C140.15668237 40.79483779 147.49573367 39.01660141 154.60205078 34.40307617 C164.09350236 24.69089317 163.44518491 13.10490082 163.61767578 0.34057617 C171.86767578 0.34057617 180.11767578 0.34057617 188.61767578 0.34057617 C187.75297452 4.66408246 186.72419616 7.43614156 184.86767578 11.34057617 C182.1629305 17.35330689 180.38650692 23.43134067 178.86767578 29.84057617 C178.66948242 30.66944336 178.47128906 31.49831055 178.26708984 32.35229492 C177.11465901 37.43481037 176.27323471 42.52109889 175.55029297 47.68237305 C175.37439636 48.93240112 175.19849976 50.1824292 175.01727295 51.47033691 C174.88540588 52.41751587 174.75353882 53.36469482 174.61767578 54.34057617 C150.74803892 54.48074647 126.87846375 54.58654746 103.00849819 54.6514492 C91.92520323 54.68238542 80.84216401 54.72456171 69.7590332 54.79321289 C60.09880673 54.85302178 50.43876547 54.89172702 40.778359 54.90510714 C35.66328475 54.91292834 30.54874038 54.93130528 25.43383598 54.97495651 C20.61812527 55.01572093 15.80316202 55.02823744 10.98729515 55.01922226 C9.22121873 55.02087119 7.45511699 55.03278356 5.68918991 55.05580902 C-9.3193914 55.24188184 -9.3193914 55.24188184 -13.86265564 51.54800415 C-19.54815058 45.40684046 -18.78836597 38.26036048 -18.80786133 30.37915039 C-18.81971603 28.11127321 -18.86887927 25.84615738 -18.91943359 23.57885742 C-19.07025613 10.52919462 -19.07025613 10.52919462 -15.04663086 4.79467773 C-10.42128443 0.75352131 -5.99739143 -0.03112833 0 0 Z " fill="#EFE34B" transform="translate(324.38232421875,447.659423828125)"/>
<path d="M0 0 C1.27156952 -0.01283524 2.54313904 -0.02567047 3.85324097 -0.03889465 C5.25257989 -0.04706112 6.65192318 -0.05450503 8.05126953 -0.0612793 C8.75269199 -0.06535482 9.45411446 -0.06943035 10.17679214 -0.07362938 C13.88901731 -0.09450608 17.60120534 -0.10880098 21.31347656 -0.11816406 C25.15284842 -0.1292341 28.99164155 -0.16363526 32.83080864 -0.20333576 C35.7784637 -0.22945058 38.72597981 -0.23785124 41.67374039 -0.24144554 C43.08917272 -0.24632464 44.50459832 -0.25797629 45.91991806 -0.27648354 C47.8995958 -0.30076183 49.87955358 -0.29750136 51.859375 -0.29296875 C52.98665009 -0.29883499 54.11392517 -0.30470123 55.27536011 -0.31074524 C58.05908203 0.17700195 58.05908203 0.17700195 59.90359497 2.04621887 C63.51265573 8.70152974 62.8763795 18.55007051 61.12158203 25.73950195 C60.05908203 29.17700195 60.05908203 29.17700195 59.05908203 31.17700195 C54.43908203 31.17700195 49.81908203 31.17700195 45.05908203 31.17700195 C45.05908203 52.95700195 45.05908203 74.73700195 45.05908203 97.17700195 C49.67908203 97.17700195 54.29908203 97.17700195 59.05908203 97.17700195 C62.43993099 102.81175023 62.43993099 102.81175023 62.45751953 107.08325195 C62.46138672 107.99204102 62.46525391 108.90083008 62.46923828 109.8371582 C62.45763672 110.77430664 62.44603516 111.71145508 62.43408203 112.67700195 C62.44568359 113.61415039 62.45728516 114.55129883 62.46923828 115.5168457 C62.46537109 116.42563477 62.46150391 117.33442383 62.45751953 118.27075195 C62.45413574 119.0925293 62.45075195 119.91430664 62.44726562 120.76098633 C61.93999601 123.91818134 61.03686048 125.65502739 59.05908203 128.17700195 C56.23066711 128.77827454 56.23066711 128.77827454 52.75170898 128.74462891 C51.4505867 128.74425125 50.14946442 128.7438736 48.80891418 128.7434845 C47.38838752 128.71795104 45.9678706 128.69187105 44.54736328 128.6652832 C43.09434728 128.6559566 41.64131555 128.64883976 40.1882782 128.6438446 C36.36559566 128.62476213 32.54386449 128.57565255 28.72155762 128.52032471 C24.82052481 128.46915797 20.91933812 128.4463362 17.01806641 128.42114258 C9.36463809 128.36753332 1.7119934 128.2822076 -5.94091797 128.17700195 C-9.31932524 120.75591269 -9.31932524 120.75591269 -9.33935547 117.02075195 C-9.34322266 116.30790039 -9.34708984 115.59504883 -9.35107422 114.8605957 C-9.33947266 114.14000977 -9.32787109 113.41942383 -9.31591797 112.67700195 C-9.33332031 111.59612305 -9.33332031 111.59612305 -9.35107422 110.4934082 C-9.32322197 105.35931042 -8.22598368 101.77131397 -5.94091797 97.17700195 C-1.32091797 97.17700195 3.29908203 97.17700195 8.05908203 97.17700195 C8.05908203 75.39700195 8.05908203 53.61700195 8.05908203 31.17700195 C3.10908203 31.17700195 -1.84091797 31.17700195 -6.94091797 31.17700195 C-9.62614442 25.78523774 -10.41176704 21.60506921 -10.31591797 15.61450195 C-10.32751953 14.88553711 -10.33912109 14.15657227 -10.35107422 13.40551758 C-10.30679409 5.20631396 -8.58823584 0.0751049 0 0 Z " fill="#F0E75D" transform="translate(350.94091796875,746.822998046875)"/>
<path d="M0 0 C1.72208427 0.01665459 1.72208427 0.01665459 3.47895813 0.03364563 C4.78008041 0.03402328 6.0812027 0.03440094 7.42175293 0.03479004 C8.84227959 0.0603235 10.26279652 0.08640348 11.68330383 0.11299133 C13.13631983 0.12231794 14.58935157 0.12943478 16.04238892 0.13442993 C19.86507145 0.15351241 23.68680263 0.20262198 27.5091095 0.25794983 C31.4101423 0.30911656 35.311329 0.33193834 39.21260071 0.35713196 C46.86602903 0.41074122 54.51867371 0.49606694 62.17158508 0.60127258 C65.54996928 7.9859664 65.54996928 7.9859664 65.57002258 12.01142883 C65.57388977 12.7739093 65.57775696 13.53638977 65.58174133 14.32197571 C65.57013977 15.09476868 65.55853821 15.86756165 65.54658508 16.66377258 C65.55818665 17.44043274 65.56978821 18.2170929 65.58174133 19.01728821 C65.57787415 19.77847961 65.57400696 20.53967102 65.57002258 21.32392883 C65.56663879 22.00205627 65.563255 22.68018372 65.55976868 23.37886047 C65.17158508 25.60127258 65.17158508 25.60127258 62.17158508 31.60127258 C57.55158508 31.60127258 52.93158508 31.60127258 48.17158508 31.60127258 C48.17158508 53.38127258 48.17158508 75.16127258 48.17158508 97.60127258 C52.79158508 97.60127258 57.41158508 97.60127258 62.17158508 97.60127258 C66.10828277 102.85020283 66.33604823 105.80935611 66.42158508 112.28877258 C66.44736633 113.44763977 66.47314758 114.60650696 66.49971008 115.80049133 C66.17158508 119.60127258 66.17158508 119.60127258 63.17158508 128.60127258 C41.39158508 128.60127258 19.61158508 128.60127258 -2.82841492 128.60127258 C-6.65984791 120.93840659 -7.42239131 110.4489418 -5.15653992 102.13642883 C-4.32841492 100.22627258 -4.32841492 100.22627258 -2.82841492 97.60127258 C2.12158508 97.60127258 7.07158508 97.60127258 12.17158508 97.60127258 C12.17158508 75.82127258 12.17158508 54.04127258 12.17158508 31.60127258 C7.22158508 31.60127258 2.27158508 31.60127258 -2.82841492 31.60127258 C-6.20926388 25.96652431 -6.20926388 25.96652431 -6.22685242 21.69502258 C-6.2307196 20.78623352 -6.23458679 19.87744446 -6.23857117 18.94111633 C-6.2269696 18.0039679 -6.21536804 17.06681946 -6.20341492 16.10127258 C-6.21501648 15.16412415 -6.22661804 14.22697571 -6.23857117 13.26142883 C-6.23470398 12.35263977 -6.23083679 11.44385071 -6.22685242 10.50752258 C-6.22346863 9.68574524 -6.22008484 8.8639679 -6.21659851 8.01728821 C-5.53295316 3.76234836 -4.41373705 0.93828492 0 0 Z " fill="#F1E85D" transform="translate(188.8284149169922,746.3987274169922)"/>
<path d="M0 0 C9.56073326 6.66570749 15.71369121 16.0202968 18.38916016 27.37573242 C19.12549078 31.67933024 19.11622864 35.97588571 19.08984375 40.33203125 C19.0842041 41.30374268 19.07856445 42.2754541 19.07275391 43.27661133 C18.85728034 56.0802211 16.54611475 68.19888315 7.66796875 77.96484375 C3.17435559 82.16404777 -1.48733533 85.40365151 -7.22265625 87.64453125 C-8.09148438 88.0003125 -8.9603125 88.35609375 -9.85546875 88.72265625 C-19.55266169 91.37757218 -32.63340627 91.14855204 -41.8359375 87.03125 C-53.92042482 80.00998486 -60.30252024 70.91268391 -64.22265625 57.64453125 C-65.45997895 52.23611525 -65.44444512 46.98288664 -65.47265625 41.45703125 C-65.49328125 40.46638672 -65.51390625 39.47574219 -65.53515625 38.45507812 C-65.59704576 26.65738981 -62.13860883 15.30847783 -54.18359375 6.34765625 C-39.80015824 -7.17175664 -17.15546575 -10.46212059 0 0 Z " fill="#F0E85D" transform="translate(666.22265625,787.35546875)"/>
<path d="M0 0 C23.1 0 46.2 0 70 0 C71.39886325 2.7977265 71.12974597 5.12388892 71.1328125 8.25 C71.13410156 9.4978125 71.13539063 10.745625 71.13671875 12.03125 C71.13285156 13.3409375 71.12898438 14.650625 71.125 16 C71.12886719 17.3096875 71.13273437 18.619375 71.13671875 19.96875 C71.13542969 21.2165625 71.13414062 22.464375 71.1328125 23.75 C71.13168457 24.89984375 71.13055664 26.0496875 71.12939453 27.234375 C71 30 71 30 70 32 C58.45 32 46.9 32 35 32 C35 38.93 35 45.86 35 53 C36.63710937 52.96519531 38.27421875 52.93039062 39.9609375 52.89453125 C42.09894811 52.86639953 44.23696977 52.83909872 46.375 52.8125 C47.45523438 52.78736328 48.53546875 52.76222656 49.6484375 52.73632812 C50.6796875 52.72666016 51.7109375 52.71699219 52.7734375 52.70703125 C53.72653809 52.6913208 54.67963867 52.67561035 55.66162109 52.65942383 C56.43328613 52.77181396 57.20495117 52.8842041 58 53 C60.20544434 56.3081665 60.25627135 57.36771832 60.265625 61.21875 C60.26949219 62.74048828 60.26949219 62.74048828 60.2734375 64.29296875 C60.26570313 65.35128906 60.25796875 66.40960937 60.25 67.5 C60.26160156 69.08748047 60.26160156 69.08748047 60.2734375 70.70703125 C60.27085937 71.72152344 60.26828125 72.73601562 60.265625 73.78125 C60.26336914 74.71001953 60.26111328 75.63878906 60.25878906 76.59570312 C60 79 60 79 58 82 C55.66162109 82.34057617 55.66162109 82.34057617 52.7734375 82.29296875 C51.7421875 82.28330078 50.7109375 82.27363281 49.6484375 82.26367188 C48.02808594 82.2259668 48.02808594 82.2259668 46.375 82.1875 C45.28703125 82.17396484 44.1990625 82.16042969 43.078125 82.14648438 C40.38492591 82.11104754 37.69270626 82.06164331 35 82 C35.00444122 82.5593222 35.00888245 83.11864441 35.01345825 83.69491577 C35.05761149 89.50198824 35.08783294 95.30901325 35.10986328 101.11621094 C35.11993789 103.28517594 35.13359798 105.45412731 35.15087891 107.62304688 C35.17506323 110.73571126 35.18646832 113.84819651 35.1953125 116.9609375 C35.20563507 117.934935 35.21595764 118.9089325 35.22659302 119.91244507 C35.22681961 121.26361923 35.22681961 121.26361923 35.22705078 122.64208984 C35.231492 123.43706879 35.23593323 124.23204773 35.24050903 125.05111694 C35 127 35 127 33 129 C27.43668455 130.49579708 21.71810319 130.22270595 16 130.25 C14.91976562 130.270625 13.83953125 130.29125 12.7265625 130.3125 C11.68242188 130.31765625 10.63828125 130.3228125 9.5625 130.328125 C8.61503906 130.3374707 7.66757813 130.34681641 6.69140625 130.35644531 C3.3943313 129.91978626 1.64738234 129.00640609 -1 127 C-1.61803246 124.68427181 -1.61803246 124.68427181 -1.60800171 121.9072113 C-1.61632019 120.85420837 -1.62463867 119.80120544 -1.63320923 118.71629333 C-1.61680389 117.56137894 -1.60039856 116.40646454 -1.58349609 115.21655273 C-1.58583252 114.00013092 -1.58816895 112.78370911 -1.59057617 111.53042603 C-1.59191579 108.1932056 -1.57097859 104.85752758 -1.53990126 101.52054477 C-1.51237631 98.03147332 -1.51236226 94.54240101 -1.50918579 91.05323792 C-1.49997983 85.19459928 -1.47243958 79.33628697 -1.43212891 73.4777832 C-1.37529429 65.21011522 -1.35297942 56.94261151 -1.33684421 48.67477882 C-1.32439532 42.9536516 -1.30371388 37.23254938 -1.2814641 31.51145291 C-1.27609938 30.12267938 -1.27096309 28.73390494 -1.26605177 27.34512973 C-1.24957331 22.78136981 -1.22359512 18.21774384 -1.19287109 13.65405273 C-1.18861115 12.49711411 -1.1843512 11.34017548 -1.17996216 10.1481781 C-1.17136169 9.097995 -1.16276123 8.04781189 -1.15390015 6.96580505 C-1.14832785 6.04975211 -1.14275555 5.13369917 -1.13701439 4.18988705 C-1 2 -1 2 0 0 Z " fill="#F1E85D" transform="translate(102,747)"/>
<path d="M0 0 C4.17502406 1.35705591 7.19067529 3.16819405 10.25 6.3125 C10.8275 6.869375 11.405 7.42625 12 8 C15.68207775 7.55948054 18.80577906 5.67880534 22.0625 4 C31.64485135 -0.92738957 42.1683577 -1.68252762 52.6796875 0.90625 C61.68048397 4.40780673 65.35505742 8.95078563 69.203125 17.65625 C70.88459235 22.60174222 71.13040581 27.51876942 71.16113281 32.70800781 C71.17074036 34.02246887 71.1803479 35.33692993 71.19024658 36.69122314 C71.19509185 38.11185532 71.19937134 39.53248952 71.203125 40.953125 C71.2088821 42.41949463 71.21463976 43.88586426 71.22039795 45.35223389 C71.23086629 48.41516467 71.2367379 51.4780695 71.24023438 54.54101562 C71.24574747 58.47103217 71.26985201 62.40070719 71.29820633 66.330616 C71.31678668 69.35370918 71.32203556 72.37671872 71.32357025 75.3998642 C71.32660164 76.84959556 71.33464655 78.29932528 71.34775543 79.74900055 C71.36473724 81.76912117 71.36110235 83.78938368 71.35644531 85.80957031 C71.36191376 87.534487 71.36191376 87.534487 71.36749268 89.29425049 C71.24622009 90.18714783 71.12494751 91.08004517 71 92 C67.58490159 94.27673228 66.35258186 94.24673629 62.34375 94.23046875 C61.23902344 94.22853516 60.13429688 94.22660156 58.99609375 94.22460938 C57.84238281 94.21236328 56.68867187 94.20011719 55.5 94.1875 C54.34628906 94.18685547 53.19257812 94.18621094 52.00390625 94.18554688 C43.42144432 94.14048144 43.42144432 94.14048144 40 93 C39.98969254 92.28225403 39.97938507 91.56450806 39.96876526 90.82501221 C39.87073617 84.05675462 39.76821404 77.28857835 39.66066074 70.52046585 C39.60552632 67.04101916 39.55212175 63.56156393 39.50268555 60.08203125 C39.44575876 56.08063803 39.38128113 52.07939731 39.31640625 48.078125 C39.29969376 46.83009094 39.28298126 45.58205688 39.26576233 44.29620361 C39.2358445 42.55485138 39.2358445 42.55485138 39.20532227 40.77832031 C39.18200584 39.24609833 39.18200584 39.24609833 39.15821838 37.68292236 C39.01804572 35.30600272 38.67606948 33.27433101 38 31 C36.58376784 30.94552953 35.16691809 30.90699492 33.75 30.875 C32.56664062 30.84019531 32.56664062 30.84019531 31.359375 30.8046875 C28.77783437 31.01839119 27.26197418 31.793892 25 33 C24.98969254 33.73693588 24.97938507 34.47387177 24.96876526 35.23313904 C24.87095357 42.16421076 24.76846284 49.09519902 24.66066074 56.02612209 C24.60539973 59.58972968 24.55197482 63.15334543 24.50268555 66.71704102 C24.44599468 70.81015245 24.38142682 74.9031061 24.31640625 78.99609375 C24.29133751 80.92418129 24.29133751 80.92418129 24.26576233 82.89122009 C24.24581711 84.07236893 24.22587189 85.25351776 24.20532227 86.47045898 C24.18977798 87.51636703 24.1742337 88.56227509 24.15821838 89.63987732 C24 92 24 92 23 93 C20.79349344 93.10012401 18.58377614 93.1308118 16.375 93.1328125 C15.71290527 93.13376923 15.05081055 93.13472595 14.36865234 93.13571167 C12.96647039 93.13639326 11.5642853 93.13454042 10.16210938 93.13037109 C8.00904287 93.12502246 5.85618498 93.1303167 3.703125 93.13671875 C2.34374954 93.13605796 0.9843742 93.13477679 -0.375 93.1328125 C-1.62023437 93.13168457 -2.86546875 93.13055664 -4.1484375 93.12939453 C-7 93 -7 93 -8 92 C-8.09386381 90.1281906 -8.11743804 88.2528194 -8.11352539 86.37866211 C-8.11344986 85.17749252 -8.11337433 83.97632294 -8.11329651 82.73875427 C-8.10813522 81.4314888 -8.10297394 80.12422333 -8.09765625 78.77734375 C-8.09579198 77.43355868 -8.09436812 76.08977293 -8.09336853 74.74598694 C-8.08954402 71.20317723 -8.07971432 67.6604083 -8.06866455 64.11761475 C-8.05844899 60.50484773 -8.0538706 56.89207416 -8.04882812 53.27929688 C-8.03809198 46.1861812 -8.02101636 39.09309326 -8 32 C-9.11632812 32.02578125 -10.23265625 32.0515625 -11.3828125 32.078125 C-15 32 -15 32 -16.875 30.75 C-20.3048829 25.4146266 -19.52746765 18.04781402 -19 12 C-18.08166948 8.96903346 -16.80987232 6.58462468 -15 4 C-14.484375 3.175 -13.96875 2.35 -13.4375 1.5 C-9.2278039 -1.09058222 -4.78570512 -0.66192325 0 0 Z " fill="#F0E75D" transform="translate(713,782)"/>
<path d="M0 0 C4.3782512 -0.02469081 8.75646567 -0.04285557 13.13476562 -0.05493164 C14.62468166 -0.05996514 16.11459274 -0.06679242 17.60449219 -0.07543945 C19.74415304 -0.08754805 21.88374868 -0.09323807 24.0234375 -0.09765625 C25.31169434 -0.10289307 26.59995117 -0.10812988 27.92724609 -0.11352539 C31 0 31 0 33 1 C33.77441406 2.92333984 33.77441406 2.92333984 34.515625 5.4609375 C34.79462646 6.39929443 35.07362793 7.33765137 35.36108398 8.30444336 C35.65442627 9.31772705 35.94776855 10.33101074 36.25 11.375 C36.87018038 13.46771881 37.49129011 15.56016241 38.11328125 17.65234375 C38.58241943 19.23958252 38.58241943 19.23958252 39.06103516 20.85888672 C40.46874021 25.56807372 41.94774632 30.25373614 43.4375 34.9375 C43.6962793 35.75331543 43.95505859 36.56913086 44.22167969 37.40966797 C44.81332443 39.27347065 45.40647079 41.13679658 46 43 C46.1858667 42.29617188 46.3717334 41.59234375 46.56323242 40.8671875 C56.80146488 2.19853512 56.80146488 2.19853512 59 0 C61.17131722 -0.1002001 63.3459042 -0.13081297 65.51953125 -0.1328125 C66.17451096 -0.13376923 66.82949066 -0.13472595 67.50431824 -0.13571167 C68.8939117 -0.13639355 70.28350832 -0.13453873 71.6730957 -0.13037109 C73.79320524 -0.12504844 75.91310044 -0.13030242 78.03320312 -0.13671875 C79.38281297 -0.13605747 80.73242267 -0.13477527 82.08203125 -0.1328125 C83.92631714 -0.13112061 83.92631714 -0.13112061 85.80786133 -0.12939453 C88.44678221 -0.02242489 90.48591499 0.31312599 93 1 C91.15855308 8.07391872 89.06769655 14.97741596 86.5859375 21.8515625 C86.09528053 23.22754105 86.09528053 23.22754105 85.5947113 24.63131714 C84.89105305 26.60385463 84.18565835 28.5757734 83.47866821 30.54711914 C81.57205775 35.86422421 79.67865022 41.18602504 77.78515625 46.5078125 C77.19667152 48.16076324 77.19667152 48.16076324 76.59629822 49.84710693 C71.54192173 64.0671985 66.62420848 78.33483072 61.71044922 92.60400391 C58.74129604 101.21236899 55.75318522 109.81020146 52.57421875 118.34375 C52.32638138 119.01233032 52.07854401 119.68091064 51.82319641 120.36975098 C50.12376122 124.87623878 50.12376122 124.87623878 49 126 C44.46435593 126.25609302 39.91700304 126.1852403 35.375 126.1875 C34.10269531 126.19974609 32.83039062 126.21199219 31.51953125 126.22460938 C25.31897611 126.23430784 19.83019914 126.21477535 14 124 C14.66865598 119.63501795 16.22756304 115.81373353 17.9765625 111.79296875 C18.57114261 110.38772073 19.1648661 108.98211002 19.7578125 107.57617188 C20.68876196 105.38049472 21.62491509 103.18769521 22.57617188 101.00073242 C23.49750054 98.8757865 24.39482172 96.74192981 25.2890625 94.60546875 C25.57544586 93.96248337 25.86182922 93.31949799 26.15689087 92.6570282 C30.20120555 82.84309809 25.33648884 73.85198506 21.79296875 64.60546875 C21.26510604 63.2086565 20.73804617 61.81154062 20.21174622 60.41413879 C18.82854916 56.74776146 17.43497922 53.08541601 16.03900146 49.42388916 C14.63137944 45.72690124 13.23286483 42.02647439 11.83398438 38.32617188 C10.01177703 33.50678664 8.18653839 28.68859915 6.35381031 23.87320423 C5.6612106 22.04911323 4.97364228 20.22311431 4.28622437 18.39706421 C3.44851833 16.18458771 2.59636237 13.97751137 1.72769165 11.77700806 C1.35131561 10.80299042 0.97493958 9.82897278 0.5871582 8.82543945 C0.25488724 7.98439163 -0.07738373 7.14334381 -0.41972351 6.27680969 C-1.06019889 3.76379981 -0.8531259 2.41816405 0 0 Z " fill="#F0E85D" transform="translate(884,783)"/>
<path d="M0 0 C1.22783203 -0.020625 2.45566406 -0.04125 3.72070312 -0.0625 C4.90470703 -0.06765625 6.08871094 -0.0728125 7.30859375 -0.078125 C8.38810303 -0.0874707 9.4676123 -0.09681641 10.57983398 -0.10644531 C14.18448692 0.32433092 15.794797 0.87546155 18.5625 3.25 C19.04841481 6.30277318 19.19619499 8.79895206 19.13012695 11.85229492 C19.13085709 12.73055435 19.13158722 13.60881378 19.13233948 14.51368713 C19.12885286 17.41990687 19.08994142 20.32452866 19.05078125 23.23046875 C19.04145694 25.24399439 19.03433902 27.25753136 19.02934265 29.27107239 C19.01024287 34.57322455 18.96111607 39.87469291 18.90582275 45.17657471 C18.85469469 50.58572132 18.83184237 55.99497833 18.80664062 61.40429688 C18.75300049 72.01983185 18.6676514 82.63485909 18.5625 93.25 C19.42528564 93.22905273 20.28807129 93.20810547 21.17700195 93.18652344 C24.3805751 93.11832098 27.58377816 93.06818686 30.7878418 93.03027344 C32.17403338 93.01016725 33.56014025 92.98287755 34.94604492 92.94824219 C36.93891906 92.89968775 38.93241389 92.87916028 40.92578125 92.859375 C42.12501221 92.83842773 43.32424316 92.81748047 44.55981445 92.79589844 C47.5625 93.25 47.5625 93.25 49.41479492 95.08691406 C52.03031802 100.01640452 51.78123271 104.55949239 51.8125 110 C51.833125 110.88171875 51.85375 111.7634375 51.875 112.671875 C51.90865219 118.32544364 51.21613191 122.23758416 48.5625 127.25 C46.7906792 129.0218208 44.22309907 128.42366051 41.82104492 128.45874023 C40.5927446 128.47803085 39.36444427 128.49732147 38.09892273 128.51719666 C36.74694872 128.53200256 35.39496307 128.54577618 34.04296875 128.55859375 C33.36485956 128.56516558 32.68675037 128.5717374 31.98809242 128.57850838 C28.39792594 128.61112799 24.80778944 128.63557085 21.2175293 128.6550293 C18.24410841 128.67284103 15.27163626 128.70765121 12.29858398 128.75756836 C8.71170795 128.8177272 5.1257114 128.84849857 1.53835487 128.85820198 C0.1711333 128.86676703 -1.19606412 128.88561183 -2.56299782 128.9149456 C-13.25073416 129.13192564 -13.25073416 129.13192564 -16.14974976 126.97756958 C-18.7979348 123.15956346 -19.56226964 119.03522747 -19.57121277 114.49888611 C-19.57547775 113.52161057 -19.57974274 112.54433502 -19.58413696 111.53744507 C-19.58345718 109.93130844 -19.58345718 109.93130844 -19.58276367 108.29272461 C-19.58612228 107.16408493 -19.5894809 106.03544525 -19.59294128 104.87260437 C-19.60246017 101.13250639 -19.60439469 97.3924531 -19.60546875 93.65234375 C-19.60868 91.06067384 -19.61204397 88.46900412 -19.61555481 85.87733459 C-19.62154796 80.44255068 -19.62343719 75.00778461 -19.62280273 69.57299805 C-19.62220123 63.28533537 -19.63276833 56.99775828 -19.6485464 50.71011728 C-19.66317588 44.6654199 -19.66679145 38.62076918 -19.66619301 32.57605171 C-19.66737701 30.00152804 -19.67182212 27.4270038 -19.67952538 24.85249138 C-19.6892678 21.26088111 -19.68647033 17.66949434 -19.68041992 14.07788086 C-19.68603943 13.00509888 -19.69165894 11.93231689 -19.69744873 10.82702637 C-19.691157 9.36534279 -19.691157 9.36534279 -19.68473816 7.87413025 C-19.68528293 7.0244464 -19.68582769 6.17476255 -19.68638897 5.29933071 C-19.4375 3.25 -19.4375 3.25 -17.4375 1.25 C-11.96832893 -0.67191131 -5.71160369 0.02391043 0 0 Z " fill="#EFE75D" transform="translate(284.4375,746.75)"/>
<path d="M0 0 C8.28930512 4.48437818 14.73413665 10.51048461 18.30078125 19.359375 C20.69318755 28.39438428 19.50561467 37.0671715 15.55078125 45.43359375 C11.82314367 51.60250532 6.76153303 54.66419768 0 57 C-5.75724661 58.31132294 -11.50615449 58.11172258 -17.375 58.0625 C-18.39722656 58.05798828 -19.41945313 58.05347656 -20.47265625 58.04882812 C-22.98183194 58.037103 -25.4908849 58.02069176 -28 58 C-27.5504955 59.31554985 -27.09010284 60.62738358 -26.625 61.9375 C-26.36976563 62.66839844 -26.11453125 63.39929688 -25.8515625 64.15234375 C-25.14728587 66.18682116 -25.14728587 66.18682116 -23 67 C-13.58869305 67.69250871 -5.60533939 67.14439822 3.328125 63.77734375 C6.15475954 62.95497493 7.37787133 62.67168482 10 64 C13.23607588 69.03389581 14.78576791 75.13854582 14.4296875 81.09765625 C14 83 14 83 12.1875 85.3125 C-1.22681072 92.41419391 -17.28381263 94.45880945 -32.125 90.875 C-37.37562786 89.14921224 -41.63606696 86.33712526 -46 83 C-47.051875 82.2575 -48.10375 81.515 -49.1875 80.75 C-58.30465181 71.83545157 -62.00325053 59.85398443 -62.29248047 47.37670898 C-62.41795806 32.08833592 -58.87702147 19.27607751 -48.375 7.75 C-36.28368893 -3.7800123 -15.24544793 -7.4272695 0 0 Z " fill="#F0E75D" transform="translate(858,785)"/>
<path d="M0 0 C1.0209375 0.02900391 1.0209375 0.02900391 2.0625 0.05859375 C3.0834375 0.06052734 3.0834375 0.06052734 4.125 0.0625 C6.67755163 0.63373635 7.56092976 1.35763459 9.0625 3.49609375 C9.35546875 5.9765625 9.35546875 5.9765625 9.25 8.68359375 C9.20939453 10.03517578 9.20939453 10.03517578 9.16796875 11.4140625 C9.13316406 12.10113281 9.09835937 12.78820312 9.0625 13.49609375 C9.64515625 13.49867188 10.2278125 13.50125 10.828125 13.50390625 C18.59545617 13.8702898 24.35154031 16.725503 31.0625 20.49609375 C31.0625 21.15609375 31.0625 21.81609375 31.0625 22.49609375 C31.7225 22.49609375 32.3825 22.49609375 33.0625 22.49609375 C33.54525862 28.77195582 33.54525862 28.77195582 31.4375 31.93359375 C28.26915073 34.01803406 26.81494129 34.07339241 23.0625 33.49609375 C20.99690051 32.5911258 19.04836464 31.5861883 17.08984375 30.46875 C14.66377188 29.2019847 14.66377188 29.2019847 10.0625 28.49609375 C10.3925 38.72609375 10.7225 48.95609375 11.0625 59.49609375 C15.0225 60.81609375 18.9825 62.13609375 23.0625 63.49609375 C31.0671311 68.07016866 39.09316034 74.41340772 42.0625 83.49609375 C43.19186487 93.20863163 40.93100336 100.27131976 36.3125 108.68359375 C30.2686986 116.2383455 23.37618724 120.70841081 14.0625 123.49609375 C11.19921875 123.625 11.19921875 123.625 9.0625 123.49609375 C9.10890625 124.24375 9.1553125 124.99140625 9.203125 125.76171875 C9.49690289 133.77765821 9.49690289 133.77765821 7.4375 137.18359375 C4.37279126 138.87724858 2.51431843 139.01019437 -0.9375 138.49609375 C-3.49699546 136.642666 -3.91668798 135.55852982 -4.9375 132.49609375 C-5.06531786 129.82214411 -4.98141871 127.17513518 -4.9375 124.49609375 C-5.989375 124.57859375 -7.04125 124.66109375 -8.125 124.74609375 C-18.1069035 124.7283639 -28.85275196 120.58084179 -35.9375 113.49609375 C-36.40132725 109.94008484 -36.36519679 108.14619287 -34.375 105.12109375 C-30.87957201 102.79080843 -29.1038718 102.89129784 -24.9375 103.49609375 C-22.48889878 104.64837668 -20.17171526 105.90537162 -17.85546875 107.3046875 C-13.90949542 109.07697527 -13.90949542 109.07697527 -4.9375 109.49609375 C-4.9375 96.29609375 -4.9375 83.09609375 -4.9375 69.49609375 C-7.9075 68.50609375 -10.8775 67.51609375 -13.9375 66.49609375 C-21.41900616 63.31701531 -27.4739652 58.51349295 -31.109375 51.109375 C-33.18179745 44.56951358 -32.83724677 36.6565643 -30.0390625 30.3671875 C-26.25538599 23.94030435 -20.87417784 18.41813753 -13.9375 15.49609375 C-10.93119294 14.8686091 -8.00514372 14.57420505 -4.9375 14.49609375 C-4.98970703 13.48289062 -4.98970703 13.48289062 -5.04296875 12.44921875 C-5.07003906 11.5571875 -5.09710937 10.66515625 -5.125 9.74609375 C-5.15980469 8.864375 -5.19460938 7.98265625 -5.23046875 7.07421875 C-4.82062534 3.4675967 -3.69450998 0.94597332 0 0 Z " fill="#050401" transform="translate(636.9375,442.50390625)"/>
<path d="M0 0 C0.70178375 0.00565979 1.4035675 0.01131958 2.12661743 0.01715088 C4.34815337 0.03938017 6.56802173 0.08954444 8.7890625 0.140625 C10.30336197 0.16070769 11.81768696 0.17895536 13.33203125 0.1953125 C17.02657518 0.23919867 20.72015583 0.30812923 24.4140625 0.390625 C23.44291504 1.85157593 23.44291504 1.85157593 22.45214844 3.34204102 C20.0141724 7.62744291 19.81239793 11.31567482 19.8046875 16.16796875 C19.78815125 16.97931778 19.77161499 17.79066681 19.75457764 18.62660217 C19.70636166 21.19385546 19.6847865 23.76051763 19.6640625 26.328125 C19.63588058 28.07880536 19.60595006 29.8294585 19.57421875 31.58007812 C19.50061044 35.85021168 19.45087531 40.12002216 19.4140625 44.390625 C20.50296658 44.3817841 21.59187065 44.37294319 22.71377182 44.36383438 C49.18600973 44.14982341 75.65833699 43.95887294 102.1309166 43.79222488 C114.932761 43.71109958 127.73447079 43.62242963 140.53613281 43.51611328 C151.69159234 43.42348747 162.84704639 43.34490023 174.00272202 43.28330398 C179.91182263 43.25018294 185.82068449 43.20994238 191.72960663 43.1529007 C197.2879079 43.09946525 202.84600724 43.06475934 208.40452576 43.04459572 C210.44761759 43.03385015 212.49068618 43.01618304 214.53365326 42.99117851 C217.31760962 42.95812682 220.10057821 42.94970376 222.88470459 42.9475708 C223.69793426 42.93202849 224.51116394 42.91648617 225.34903693 42.90047288 C229.06174513 42.92275974 230.99997479 43.05915491 233.94714737 45.41831589 C234.43122936 46.06917789 234.91531136 46.7200399 235.4140625 47.390625 C228.77895961 54.20505499 228.77895961 54.20505499 225.53628278 54.645926 C224.82430446 54.64841899 224.11232615 54.65091199 223.37877274 54.65348053 C222.55503513 54.66116282 221.73129752 54.66884511 220.88259816 54.6767602 C219.97784773 54.67502723 219.07309729 54.67329427 218.14093018 54.67150879 C217.1795875 54.67745103 216.21824483 54.68339328 215.22777057 54.68951559 C211.99198147 54.70692103 208.75634008 54.70990869 205.52050781 54.71289062 C203.20632611 54.72214479 200.89214747 54.73219381 198.57797241 54.74298096 C192.28036142 54.76925476 185.9827931 54.78212393 179.68513584 54.79100227 C175.75243363 54.79685974 171.81974314 54.8050686 167.88704681 54.81401062 C156.9975744 54.83823196 146.1081149 54.85899468 135.21861649 54.8657608 C134.52162653 54.86619994 133.82463657 54.86663907 133.1065257 54.86709151 C132.05854289 54.86774634 132.05854289 54.86774634 130.9893887 54.8684144 C129.57365497 54.86930133 128.15792123 54.87019446 126.7421875 54.87109375 C125.68880889 54.87175804 125.68880889 54.87175804 124.6141499 54.87243575 C113.23786456 54.88032996 101.86183558 54.91523195 90.48564926 54.96181279 C78.80456765 55.00925574 67.12362732 55.0336494 55.44244838 55.03649664 C48.88438694 55.03859474 42.32668696 55.0504519 35.7687149 55.08613586 C29.59950966 55.11905048 23.43093845 55.12343172 17.26167679 55.10585785 C14.99734171 55.10431453 12.73297288 55.11303665 10.4687233 55.13277435 C7.37676759 55.15814651 4.28706892 55.14650171 1.19512939 55.12561035 C0.29930185 55.14172316 -0.5965257 55.15783597 -1.51949954 55.17443705 C-7.11579931 55.08601669 -10.10406439 53.90517802 -14.20324063 50.06791067 C-17.65808653 45.87699678 -17.90518647 42.05403593 -17.921875 36.7734375 C-17.9285318 36.0386618 -17.9351886 35.30388611 -17.94204712 34.54684448 C-17.95215198 32.99528498 -17.95686481 31.44368221 -17.95654297 29.89208984 C-17.96091057 27.53018791 -17.99723321 25.17016463 -18.03515625 22.80859375 C-18.04102624 21.29688135 -18.04499441 19.78516013 -18.046875 18.2734375 C-18.06124603 17.57324493 -18.07561707 16.87305237 -18.09042358 16.15164185 C-18.04363804 11.07759306 -16.85739991 8.23535928 -13.5859375 4.390625 C-9.03909109 0.54040185 -5.89456228 -0.094313 0 0 Z " fill="#FDC24F" transform="translate(328.5859375,584.609375)"/>
<path d="M0 0 C0.7031987 0.00565979 1.4063974 0.01131958 2.13090515 0.01715088 C4.36272123 0.03942731 6.59289336 0.08960127 8.82421875 0.140625 C10.34307566 0.16070157 11.86195791 0.17895032 13.38085938 0.1953125 C17.0916742 0.23926143 20.80153585 0.30822579 24.51171875 0.390625 C24.20234375 1.15375 23.89296875 1.916875 23.57421875 2.703125 C18.45152459 15.66052788 20.89860507 30.46271763 20.51171875 44.390625 C68.69171875 44.390625 116.87171875 44.390625 166.51171875 44.390625 C167.50171875 47.690625 168.49171875 50.990625 169.51171875 54.390625 C146.68512636 54.50744318 123.85858329 54.59560586 101.03175259 54.64968586 C90.4327692 54.67546395 79.83397157 54.71060706 69.23510742 54.76782227 C59.99678312 54.81766917 50.75859337 54.84991889 41.52013832 54.86106747 C36.62869331 54.86758403 31.73763319 54.88289168 26.84631157 54.91927528 C22.24077344 54.95325503 17.63577815 54.96367395 13.03012657 54.95616341 C11.34146422 54.95753707 9.6527834 54.96745796 7.96422958 54.98665237 C-6.38369099 55.14172738 -6.38369099 55.14172738 -10.92831421 52.03251648 C-17.52343293 45.22633981 -16.98546892 38.09045468 -16.93432617 29.16845703 C-16.92580345 26.89654266 -16.95463387 24.62713613 -16.98632812 22.35546875 C-16.98794024 20.89843825 -16.98736241 19.44140333 -16.984375 17.984375 C-16.98622803 16.67146484 -16.98808105 15.35855469 -16.98999023 14.00585938 C-16.25008166 8.67419699 -13.88350137 5.82778979 -10.20629883 2.04003906 C-6.62208164 -0.13502348 -4.17429179 -0.06652258 0 0 Z " fill="#F9BE4E" transform="translate(341.48828125,516.609375)"/>
<path d="M0 0 C1.06933022 -0.00065712 1.06933022 -0.00065712 2.16026306 -0.00132751 C4.4979162 0.00074924 6.83483668 0.02402637 9.17236328 0.04760742 C10.80046192 0.05320737 12.42856563 0.05747558 14.05667114 0.06047058 C18.32782106 0.07188805 22.59866166 0.10132824 26.86968994 0.13458252 C31.23355933 0.16535046 35.59747903 0.17899025 39.96142578 0.1940918 C48.51365057 0.2262012 57.06562462 0.27735967 65.61767578 0.34057617 C65.61767578 0.67057617 65.61767578 1.00057617 65.61767578 1.34057617 C51.42767578 1.67057617 37.23767578 2.00057617 22.61767578 2.34057617 C16.17993981 15.21604812 19.00659363 30.9506156 18.61767578 45.34057617 C70.42767578 45.01057617 122.23767578 44.68057617 175.61767578 44.34057617 C175.28767578 47.64057617 174.95767578 50.94057617 174.61767578 54.34057617 C150.74803892 54.48074647 126.87846375 54.58654746 103.00849819 54.6514492 C91.92520323 54.68238542 80.84216401 54.72456171 69.7590332 54.79321289 C60.09880673 54.85302178 50.43876547 54.89172702 40.778359 54.90510714 C35.66328475 54.91292834 30.54874038 54.93130528 25.43383598 54.97495651 C20.61812527 55.01572093 15.80316202 55.02823744 10.98729515 55.01922226 C9.22121873 55.02087119 7.45511699 55.03278356 5.68918991 55.05580902 C-9.3193914 55.24188184 -9.3193914 55.24188184 -13.86265564 51.54800415 C-19.54815058 45.40684046 -18.78836597 38.26036048 -18.80786133 30.37915039 C-18.81971603 28.11127321 -18.86887927 25.84615738 -18.91943359 23.57885742 C-19.07025613 10.52919462 -19.07025613 10.52919462 -15.04663086 4.79467773 C-10.42128443 0.75352131 -5.99739143 -0.03112833 0 0 Z " fill="#FABF4E" transform="translate(324.38232421875,447.659423828125)"/>
<path d="M0 0 C-1.41291794 4.23875382 -4.50469199 5.30548187 -8.1875 7.4375 C-14.03780036 10.95347324 -19.40711196 14.71032181 -24.5625 19.1875 C-25.10865967 19.66179443 -25.65481934 20.13608887 -26.2175293 20.62475586 C-27.83531143 22.05973775 -29.42316049 23.52017097 -31 25 C-31.57097412 25.53512207 -32.14194824 26.07024414 -32.73022461 26.62158203 C-37.15713513 30.90009425 -40.86208079 35.495718 -44.4375 40.5 C-44.99953125 41.28536133 -45.5615625 42.07072266 -46.140625 42.87988281 C-53.3887377 53.18969829 -58.90274509 63.70823528 -62.89453125 75.68359375 C-63.68345879 78.05037636 -64.54942281 80.3920481 -65.46533203 82.71264648 C-66.96405892 86.70520463 -67.94029458 90.71428083 -68.66015625 94.9140625 C-68.78608658 95.64444733 -68.91201691 96.37483215 -69.04176331 97.12734985 C-70.33245868 105.2037066 -70.50831909 113.21172522 -70.4375 121.375 C-70.43412628 122.13658417 -70.43075256 122.89816833 -70.42727661 123.68283081 C-70.1965853 159.74096713 -55.63605974 190.11000908 -31 216 C-30.01773438 217.07894531 -30.01773438 217.07894531 -29.015625 218.1796875 C-20.32762343 227.42461225 -9.26992711 234.3420366 2 240 C1.67 240.66 1.34 241.32 1 242 C-5.90617883 240.16500741 -12.08542674 237.75736949 -18.375 234.375 C-19.61044556 233.71576538 -19.61044556 233.71576538 -20.87084961 233.04321289 C-31.76410815 227.10095049 -40.97460906 219.48703428 -50 211 C-50.88558594 210.21109375 -50.88558594 210.21109375 -51.7890625 209.40625 C-72.34419308 190.31238463 -85.90369194 159.26629268 -87.15966797 131.46582031 C-87.28109931 127.41374215 -87.34520735 123.36604536 -87.375 119.3125 C-87.38909912 118.01787842 -87.40319824 116.72325684 -87.41772461 115.3894043 C-87.37344272 106.57618727 -86.15333432 98.53334129 -84 90 C-83.72075684 88.83533203 -83.44151367 87.67066406 -83.15380859 86.47070312 C-75.90658761 57.08197253 -55.27442815 29.73181138 -29.76904297 13.58789062 C-7.15929126 0 -7.15929126 0 0 0 Z " fill="#FBBF4E" transform="translate(600,391)"/>
<path d="M0 0 C32.67 0 65.34 0 99 0 C95.88101707 2.3392372 93.15598981 3.96079002 89.67138672 5.59863281 C72.21900663 13.81886624 50.9505689 27.88632248 41.28857422 45.03808594 C36.388617 53.18932354 36.388617 53.18932354 32.13113403 54.63427734 C26.89722618 55.49950732 21.70741225 55.09004287 16.4375 54.75 C8.3009375 54.37875 8.3009375 54.37875 0 54 C0 36.18 0 18.36 0 0 Z " fill="#F0E54B" transform="translate(488,380)"/>
<path d="M0 0 C6.70178959 3.78704301 12.20586421 9.96297736 14.4609375 17.390625 C15.64322641 24.17647073 14.1153427 30.60086664 10.4609375 36.390625 C7.21488126 39.90511468 3.74397782 43.00860183 0.06445312 46.05908203 C-1.48329188 47.34431365 -3.0039964 48.66189617 -4.5234375 49.98046875 C-11.77005849 56.15611122 -17.23494003 60.10242888 -27.0546875 59.73046875 C-34.23655633 58.7480433 -38.50842017 54.8520508 -43.09375 49.48828125 C-47.35802989 43.29931287 -47.50303244 36.6768482 -46.5390625 29.390625 C-45.08790572 25.86481062 -43.03819765 23.24824265 -40.5390625 20.390625 C-39.47171875 19.15699219 -39.47171875 19.15699219 -38.3828125 17.8984375 C-36.86470268 16.18796445 -35.3281287 14.49369894 -33.7734375 12.81640625 C-31.73075827 10.59874226 -29.78844623 8.325316 -27.8515625 6.015625 C-20.0018361 -2.99972202 -10.9031867 -4.76385388 0 0 Z " fill="#020201" transform="translate(648.5390625,214.609375)"/>
<path d="M0 0 C7.22186203 4.67737178 9.22191503 11.40380125 11.26171875 19.46484375 C12.12161094 25.6990621 10.32118027 31.05057803 7.26171875 36.46484375 C-1.74108033 46.63738007 -16.57285338 47.83848833 -29.3984375 48.93359375 C-35.32544062 49.25130615 -40.49443889 49.32342997 -45.48828125 45.77734375 C-47.26171875 44.10546875 -47.26171875 44.10546875 -48.73828125 42.46484375 C-49.52203125 41.66046875 -50.30578125 40.85609375 -51.11328125 40.02734375 C-55.0505104 33.81863625 -55.74058679 26.64631125 -54.73828125 19.46484375 C-52.34923347 13.40507019 -47.78742309 8.4921752 -41.94775391 5.56835938 C-40.02010283 4.7826293 -38.08229479 4.07758387 -36.11328125 3.40234375 C-35.41396484 3.15339355 -34.71464844 2.90444336 -33.99414062 2.64794922 C-32.57980892 2.1471208 -31.16347691 1.65190223 -29.74511719 1.16259766 C-27.92482982 0.52970455 -26.11592294 -0.13568752 -24.30859375 -0.8046875 C-15.03023242 -4.14536976 -8.91878416 -4.9305989 0 0 Z " fill="#020201" transform="translate(695.73828125,292.53515625)"/>
<path d="M0 0 C5.53237728 3.40862401 8.96309127 7.85132741 11 14 C11.76611905 22.2378393 9.43295559 28.95402769 6.75 36.6875 C6.35425781 37.88439453 5.95851563 39.08128906 5.55078125 40.31445312 C2.50879536 49.27584435 -0.34022288 55.29591065 -8 61 C-14.50396222 63.16798741 -23.18286114 63.30781164 -29.5 60.4375 C-34.66178887 57.32491916 -38.66609947 52.53876809 -41 47 C-41.87949033 38.63768504 -40.51305867 30.4303052 -38.875 22.25 C-38.68679688 21.17878906 -38.49859375 20.10757813 -38.3046875 19.00390625 C-36.59492627 10.31618199 -33.40160154 4.45424261 -26.375 -1 C-18.48810883 -5.45519043 -7.91966778 -3.63728243 0 0 Z " fill="#020201" transform="translate(575,172)"/>
<path d="M0 0 C4.37487331 -0.08738991 8.74952078 -0.140524 13.125 -0.1875 C14.98125 -0.22520508 14.98125 -0.22520508 16.875 -0.26367188 C18.07382812 -0.27333984 19.27265625 -0.28300781 20.5078125 -0.29296875 C21.60754395 -0.3086792 22.70727539 -0.32438965 23.84033203 -0.34057617 C28.98026835 0.21345034 31.94484217 1.79208002 35.34399414 5.68334961 C37.29204543 9.58490891 37.56272545 12.80224644 37.49609375 17.06640625 C37.49754898 17.82291977 37.49900421 18.57943329 37.50050354 19.35887146 C37.49885145 20.94981763 37.48736769 22.54078094 37.46655273 24.1315918 C37.43754034 26.55912433 37.44596824 28.98447704 37.45898438 31.41210938 C37.45274757 32.96355222 37.44435708 34.51498821 37.43359375 36.06640625 C37.43652939 36.78735977 37.43946503 37.50831329 37.44248962 38.25111389 C37.36005651 42.67674777 36.68928377 45.46802842 34 49 C29.01751584 53.37486414 26.58826474 54.12472587 19.97998047 54.11352539 C19.25792419 54.11367142 18.53586792 54.11381744 17.79193115 54.1139679 C15.40031959 54.11327007 13.00878549 54.10548375 10.6171875 54.09765625 C8.96094811 54.09579161 7.30470816 54.09436792 5.64846802 54.09336853 C1.28532392 54.08954699 -3.077787 54.07971978 -7.44091797 54.06866455 C-11.89159699 54.05844264 -16.34228137 54.05386924 -20.79296875 54.04882812 C-29.52866108 54.0380972 -38.26432641 54.02102512 -47 54 C-47 51.69 -47 49.38 -47 47 C-45.75605469 46.97421875 -44.51210938 46.9484375 -43.23046875 46.921875 C-30.55029956 46.54071781 -18.35739631 45.63377511 -9 36 C-6.38160009 32.4812017 -4.07949524 28.86111685 -2 25 C-1.608125 24.27554687 -1.21625 23.55109375 -0.8125 22.8046875 C0.4462015 18.45974676 0.20761216 14.18350812 0.125 9.6875 C0.11597656 8.75615234 0.10695313 7.82480469 0.09765625 6.86523438 C0.07418263 4.5765564 0.04134729 2.28841328 0 0 Z " fill="#EFE44B" transform="translate(535,312)"/>
<path d="M0 0 C0.68199463 0.00402832 1.36398926 0.00805664 2.06665039 0.01220703 C4.5889822 0.03297158 7.11092733 0.08881643 9.6328125 0.140625 C15.2840625 0.223125 20.9353125 0.305625 26.7578125 0.390625 C26.7578125 18.210625 26.7578125 36.030625 26.7578125 54.390625 C21.1065625 54.473125 15.4553125 54.555625 9.6328125 54.640625 C7.86019043 54.67704102 6.08756836 54.71345703 4.26123047 54.75097656 C2.8408326 54.76266968 1.42042122 54.77286003 0 54.78125 C-0.72501709 54.80171387 -1.45003418 54.82217773 -2.19702148 54.84326172 C-7.40375341 54.84680733 -10.30459335 53.77494535 -14.2421875 50.390625 C-18.02686798 45.92729039 -18.83999157 42.28190829 -18.7734375 36.578125 C-18.7772644 35.8461792 -18.78109131 35.1142334 -18.78503418 34.36010742 C-18.7877428 32.82046118 -18.78045531 31.28076809 -18.76367188 29.74121094 C-18.74224334 27.39673387 -18.76350529 25.0553203 -18.7890625 22.7109375 C-18.78641903 21.20832663 -18.78129365 19.70571766 -18.7734375 18.203125 C-18.78153442 17.50920654 -18.78963135 16.81528809 -18.79797363 16.1003418 C-18.70189727 11.06446726 -17.48233482 8.21178289 -14.2421875 4.390625 C-9.64840729 0.44231971 -5.8752284 -0.16583043 0 0 Z " fill="#FDC14F" transform="translate(363.2421875,379.609375)"/>
<path d="M0 0 C1.60645419 0.44362097 3.21010125 0.89741539 4.8125 1.35546875 C5.70582031 1.60707764 6.59914063 1.85868652 7.51953125 2.11791992 C11.01219824 3.35994806 12.80158567 5.04588074 15 8 C17.34269527 13.36644532 17.29938778 18.40092837 17.30297852 24.14868164 C17.31141785 25.15589767 17.31985718 26.16311371 17.32855225 27.20085144 C17.3542819 30.52062467 17.36645961 33.84030902 17.37890625 37.16015625 C17.39508592 39.47131551 17.41226641 41.78246796 17.43040466 44.09361267 C17.47605781 50.17270763 17.51087934 56.25181177 17.54260254 62.33099365 C17.59450621 72.0648425 17.65967179 81.79859101 17.73081779 91.53231621 C17.75363246 94.93185923 17.76991514 98.33138957 17.78553772 101.73097229 C17.79894608 103.81422057 17.81256103 105.89746753 17.82641602 107.98071289 C17.82902939 108.92578705 17.83164276 109.87086121 17.83433533 110.84457397 C17.86731771 115.01978213 17.93766486 118.93050451 19 123 C8.08774474 123.78317621 8.08774474 123.78317621 3.875 120.75 C1.13559879 116.73221156 -0.25132484 114.10147562 -0.24050903 109.19110107 C-0.24325836 108.22638885 -0.24600769 107.26167664 -0.24884033 106.26773071 C-0.24164978 105.21612762 -0.23445923 104.16452454 -0.22705078 103.08105469 C-0.22734283 101.96856354 -0.22763489 100.85607239 -0.22793579 99.70986938 C-0.22654177 96.03045875 -0.21097693 92.35125029 -0.1953125 88.671875 C-0.19158263 86.12168488 -0.18873554 83.57149333 -0.18673706 81.02130127 C-0.17987941 74.99359629 -0.16411435 68.96597817 -0.14403808 62.938308 C-0.12167527 56.07499452 -0.11068469 49.21167755 -0.10064721 42.3483367 C-0.07974798 28.23218426 -0.04457439 14.11609611 0 0 Z " fill="#75BD9F" transform="translate(404,351)"/>
<path d="M0 0 C1.03930664 0.02030273 1.03930664 0.02030273 2.09960938 0.04101562 C3.79591265 0.07611155 5.49181136 0.12991057 7.1875 0.1875 C7.20208252 0.74211914 7.21666504 1.29673828 7.23168945 1.86816406 C7.30636897 4.39196242 7.40296025 6.91446654 7.5 9.4375 C7.52255859 10.31019531 7.54511719 11.18289063 7.56835938 12.08203125 C7.7696382 17.12683274 7.7696382 17.12683274 9.5546875 21.78125 C11.18634088 23.46280429 11.18634088 23.46280429 14 23.4375 C18.33592344 24.45771728 19.41576371 26.66896915 21.79296875 30.27734375 C23.2138598 32.45419727 23.2138598 32.45419727 26.1875 34.1875 C26.7214784 36.45690821 26.94268126 38.67741707 27.171875 40.99609375 C28.48352924 43.82624002 30.14987531 44.57251815 33.01708984 45.63549805 C37.17116201 46.69200617 41.3576413 46.76747116 45.625 46.875 C46.54732422 46.90916016 47.46964844 46.94332031 48.41992188 46.97851562 C50.67565951 47.06032994 52.93104119 47.12969122 55.1875 47.1875 C55.1875 49.4975 55.1875 51.8075 55.1875 54.1875 C47.2073882 54.28034953 39.22750364 54.35134 31.24698448 54.39474869 C27.5409265 54.41558715 23.8352392 54.44383503 20.12939453 54.48925781 C16.55024214 54.53285112 12.97144536 54.55666523 9.39204788 54.56700897 C8.02931753 54.57437635 6.66660573 54.58876338 5.30402756 54.61042023 C-5.51690685 54.77550398 -5.51690685 54.77550398 -10.44677734 52.53808594 C-14.90945781 48.10395925 -17.24871144 44.78273291 -17.36828613 38.32531738 C-17.36018921 37.60952515 -17.35209229 36.89373291 -17.34375 36.15625 C-17.3475769 35.40210815 -17.35140381 34.64796631 -17.35534668 33.87097168 C-17.35805594 32.2842474 -17.35076395 30.69747771 -17.33398438 29.11083984 C-17.31255732 26.69396587 -17.33381619 24.28006372 -17.359375 21.86328125 C-17.35673154 20.31509766 -17.35160619 18.76691591 -17.34375 17.21875 C-17.35184692 16.50295776 -17.35994385 15.78716553 -17.36828613 15.04968262 C-17.27433718 9.97613917 -15.97493542 7.1095059 -12.8125 3.1875 C-8.77456373 -0.13908998 -5.03412711 -0.18787651 0 0 Z " fill="#FABE4E" transform="translate(334.8125,311.8125)"/>
<path d="M0 0 C0.495 0.99 0.495 0.99 1 2 C0.01616227 4.78285528 -1.0449292 7.46930234 -2.1875 10.1875 C-2.92902196 11.99399712 -3.6684627 13.8013494 -4.40625 15.609375 C-4.81746094 16.61548828 -5.22867188 17.62160156 -5.65234375 18.65820312 C-8.23305804 25.05762653 -10.70435097 31.49973847 -13.1875 37.9375 C-13.69092739 39.24050632 -14.19442545 40.54348534 -14.69799805 41.84643555 C-16.98724194 47.77200716 -19.27016262 53.70000968 -21.55078125 59.62890625 C-21.95635254 60.68207031 -22.36192383 61.73523438 -22.77978516 62.8203125 C-23.60307848 64.96568509 -24.42165839 67.11287161 -25.23583984 69.26171875 C-27.274156 74.6225942 -29.37919242 79.92769807 -31.67578125 85.18359375 C-38.00896126 99.97387896 -42.97610465 115.04184251 -37.84765625 131.03125 C-36.72073314 133.8273259 -35.53128718 136.40774956 -34 139 C-45.5592474 139.17338871 -45.5592474 139.17338871 -50.5 138.3125 C-53.97102488 137.66532454 -53.97102488 137.66532454 -56.5 139.4375 C-56.995 139.953125 -57.49 140.46875 -58 141 C-62.59506182 137.44984265 -65.76454254 134.52289491 -68 129 C-67.34902344 128.66097656 -66.69804687 128.32195312 -66.02734375 127.97265625 C-63.52291654 125.53578584 -63.58639168 123.93758836 -63.53710938 120.53710938 C-63.55370649 119.16465577 -63.57436822 117.79224372 -63.59960938 116.41992188 C-63.49604969 110.02968028 -61.12728705 105.48575481 -58 100 C-57.516521 99.14494873 -57.03304199 98.28989746 -56.53491211 97.40893555 C-54.94079456 94.63436872 -53.31764316 91.87854467 -51.6875 89.125 C-46.3937476 80.11940628 -41.16889126 71.07757309 -36 62 C-29.33459905 50.30294746 -22.58174418 38.65894109 -15.77929688 27.04101562 C-12.5552732 21.53080173 -9.34084839 16.01498765 -6.125 10.5 C-4.94014285 8.46872744 -3.75525078 6.43747524 -2.5703125 4.40625 C-2.07289551 3.55353516 -1.57547852 2.70082031 -1.06298828 1.82226562 C-0.53680908 0.92024414 -0.53680908 0.92024414 0 0 Z " fill="#77BFA1" transform="translate(419,206)"/>
<path d="M0 0 C-0.06967431 3.48371543 -0.18866548 6.07858492 -2.5546875 8.765625 C-7.59582915 13.07465064 -10.27630289 14.12495542 -17.02001953 14.11352539 C-17.74207581 14.11367142 -18.46413208 14.11381744 -19.20806885 14.1139679 C-21.59968041 14.11327007 -23.99121451 14.10548375 -26.3828125 14.09765625 C-28.03905189 14.09579161 -29.69529184 14.09436792 -31.35153198 14.09336853 C-35.71467608 14.08954699 -40.077787 14.07971978 -44.44091797 14.06866455 C-48.89159699 14.05844264 -53.34228137 14.05386924 -57.79296875 14.04882812 C-66.52866108 14.0380972 -75.26432641 14.02102512 -84 14 C-84 11.69 -84 9.38 -84 7 C-82.11667969 6.92652344 -82.11667969 6.92652344 -80.1953125 6.8515625 C-78.50519032 6.77644596 -76.81508709 6.70090211 -75.125 6.625 C-74.30257813 6.5940625 -73.48015625 6.563125 -72.6328125 6.53125 C-71.8078125 6.49257813 -70.9828125 6.45390625 -70.1328125 6.4140625 C-69.38918457 6.3826416 -68.64555664 6.3512207 -67.87939453 6.31884766 C-65.29429127 6.03258813 -62.89007006 5.55175165 -60.35375977 4.9934082 C-54.93859686 3.88002076 -49.72130833 3.70405962 -44.20703125 3.69140625 C-42.17512706 3.66626846 -40.14322609 3.64087015 -38.11132812 3.61523438 C-34.95158578 3.58644009 -31.79189867 3.56237823 -28.63208008 3.54370117 C-25.55262886 3.5220065 -22.47377451 3.48259557 -19.39453125 3.44140625 C-18.45583694 3.44129044 -17.51714264 3.44117462 -16.55000305 3.4410553 C-10.64203414 3.35232573 -5.36625798 0 0 0 Z " fill="#F6BC4D" transform="translate(572,352)"/>
<path d="M0 0 C2.90717073 2.21863029 3.83981643 3.51944929 5 7 C5.203125 8.9375 5.203125 8.9375 5.25 11 C5.27578125 11.680625 5.3015625 12.36125 5.328125 13.0625 C5 15 5 15 3.9765625 16.6171875 C0.97844643 18.71468372 -2.36026543 19.33339311 -5.875 20.125 C-6.58269531 20.29386719 -7.29039062 20.46273438 -8.01953125 20.63671875 C-22.07721424 23.96134769 -22.07721424 23.96134769 -28 23 C-31.34250232 20.30969326 -31.89588856 18.65937244 -32.5625 14.4375 C-32 11 -32 11 -30.08203125 9.01953125 C-25.9772255 6.32981697 -21.75150067 4.82829379 -17.125 3.25 C-16.25230469 2.93417969 -15.37960937 2.61835938 -14.48046875 2.29296875 C-9.52834429 0.5727571 -5.31415454 -0.55757321 0 0 Z " fill="#F0ED8F" transform="translate(687,304)"/>
<path d="M0 0 C3.77507006 0.60401121 6.73465353 1.7396278 10.125 3.5 C12.27920274 6.73130411 12.31852228 7.66074565 11.65917969 11.33740234 C10.5222418 15.94023408 8.87932581 20.36543333 7.25 24.8125 C6.72212891 26.31393555 6.72212891 26.31393555 6.18359375 27.84570312 C5.83683594 28.80025391 5.49007812 29.75480469 5.1328125 30.73828125 C4.81973145 31.60493408 4.50665039 32.47158691 4.18408203 33.36450195 C3.125 35.5 3.125 35.5 0.125 37.5 C-4.14302947 38.05326308 -6.19599528 37.92437795 -9.875 35.625 C-12.86690456 30.95014913 -11.84355705 27.79434224 -10.875 22.5 C-10.67818538 21.08259537 -10.4857969 19.66457195 -10.296875 18.24609375 C-10.07500099 16.72625676 -9.85103249 15.2067241 -9.625 13.6875 C-9.52832031 12.95821289 -9.43164062 12.22892578 -9.33203125 11.47753906 C-8.39548671 5.76093433 -6.25960265 1.08862655 0 0 Z " fill="#F1EE8F" transform="translate(559.875,182.5)"/>
<path d="M0 0 C2.92937654 1.81310142 5.43647949 3.87295899 7 7 C7.625 10.0625 7.625 10.0625 7 14 C4.39561159 17.44532346 1.24719593 20.17043476 -2 23 C-2.91265625 23.84949219 -3.8253125 24.69898438 -4.765625 25.57421875 C-12.61953204 32.56156342 -12.61953204 32.56156342 -17.4375 32.875 C-21 32 -21 32 -23.5 29.875 C-25.26997579 26.48254641 -25.41283278 24.78586424 -25 21 C-23.3125 18.32421875 -23.3125 18.32421875 -21 15.6875 C-20.18402344 14.74519531 -19.36804688 13.80289063 -18.52734375 12.83203125 C-17.69332031 11.89746094 -16.85929688 10.96289062 -16 10 C-15.23816406 9.11699219 -14.47632813 8.23398438 -13.69140625 7.32421875 C-6.65736327 -0.7681573 -6.65736327 -0.7681573 0 0 Z " fill="#F2EF90" transform="translate(641,227)"/>
<path d="M0 0 C2.67025232 2.53673971 4.84054533 5.12785722 5.16113281 8.8918457 C5.20661395 11.3655435 5.23528427 13.83841872 5.25 16.3125 C5.270625 17.16779297 5.29125 18.02308594 5.3125 18.90429688 C5.34253172 23.75066611 5.22290385 27.10691287 2 31 C-1.7373856 33.4915904 -3.57331583 33.45793285 -8 33 C-12.04850876 30.57089474 -13.61607837 28.44440029 -15 24 C-15.24029699 21.32320334 -15.38059613 18.79901738 -15.375 16.125 C-15.3747583 15.0575354 -15.3747583 15.0575354 -15.37451172 13.96850586 C-15.25405718 8.46119771 -14.49479226 5.21430831 -11 1 C-7.53969009 -0.73015495 -3.77455703 -0.61789902 0 0 Z " fill="#4E7054" transform="translate(648,813)"/>
<path d="M0 0 C12.99977543 2.88883898 12.99977543 2.88883898 17 9 C18.23053782 14.63933589 17.81459542 19.31046875 15.3125 24.5 C11.62064625 28.49119324 8.23631826 31.34642581 3 33 C2.01 33 1.02 33 0 33 C0 22.11 0 11.22 0 0 Z " fill="#FBBF4E" transform="translate(647,518)"/>
<path d="M0 0 C1.32 0 2.64 0 4 0 C4 14.52 4 29.04 4 44 C1.36 44 -1.28 44 -4 44 C-4.0993309 38.85886184 -4.17168514 33.71828975 -4.21972656 28.57641602 C-4.23976622 26.82957216 -4.26700587 25.08279475 -4.30175781 23.33618164 C-4.35061582 20.81640168 -4.37304486 18.29751315 -4.390625 15.77734375 C-4.41127014 15.00414291 -4.43191528 14.23094208 -4.45318604 13.43431091 C-4.45546876 7.84137085 -3.11196522 4.64910375 0 0 Z " fill="#F1E54C" transform="translate(386,380)"/>
<path d="M0 0 C13.2 0 26.4 0 40 0 C34 9 34 9 30.19775391 10.02172852 C28.78988565 10.02032163 27.38145096 9.97046727 25.9765625 9.87890625 C25.23038666 9.86617172 24.48421082 9.85343719 23.71542358 9.84031677 C21.34853872 9.79020731 18.98953438 9.67742591 16.625 9.5625 C15.01443431 9.51732125 13.40374745 9.47626251 11.79296875 9.43945312 C7.85897577 9.34059804 3.93081986 9.18553571 0 9 C0 6.03 0 3.06 0 0 Z " fill="#FEC14F" transform="translate(488,425)"/>
<path d="M0 0 C0 8.58 0 17.16 0 26 C-9.30487805 22.01219512 -9.30487805 22.01219512 -12 19 C-13.25925402 14.85689882 -13.4848493 11.33333557 -12 7.25 C-8.68078185 3.51587958 -5.15865408 0 0 0 Z " fill="#F9BD4E" transform="translate(632,471)"/>
<path d="M0 0 C2.4375 1.625 2.4375 1.625 4 4 C4.44272216 7.09905509 4.65267427 9.01639229 2.890625 11.671875 C0.06256876 13.65852608 -2.28305693 13.28862207 -5.6875 13.1875 C-7.45673828 13.14689453 -7.45673828 13.14689453 -9.26171875 13.10546875 C-10.16535156 13.07066406 -11.06898438 13.03585937 -12 13 C-12.29363808 8.00815264 -12.07836372 5.02555256 -9 1 C-5.90826248 -0.54586876 -3.40570448 -0.29359521 0 0 Z " fill="#4F7054" transform="translate(842,810)"/>
<path d="M0 0 C6.50739958 3.61522199 6.50739958 3.61522199 7.91015625 7.55859375 C8.38533977 10.04010768 8.7607404 12.48533276 9 15 C6.03 15 3.06 15 0 15 C0 10.05 0 5.1 0 0 Z " fill="#F0E34C" transform="translate(354,341)"/>
</svg>
