<?xml version="1.0" encoding="UTF-8"?>
<svg version="1.1" xmlns="http://www.w3.org/2000/svg" width="445" height="468">
<path d="M0 0 C146.85 0 293.7 0 445 0 C445 154.44 445 308.88 445 468 C298.15 468 151.3 468 0 468 C0 313.56 0 159.12 0 0 Z " fill="#F6F6F6" transform="translate(0,0)"/>
<path d="M0 0 C0.66452179 0.00027191 1.32904358 0.00054382 2.01370239 0.00082397 C11.95791138 0.01953326 21.5643597 0.43037039 31.375 2.1875 C32.48746094 2.34734375 33.59992188 2.5071875 34.74609375 2.671875 C60.50152849 6.92137817 85.97365408 18.44247821 107.375 33.1875 C109.16535233 34.37698066 110.95684841 35.56474346 112.75 36.75 C113.95917518 37.56124662 115.1678918 38.37318097 116.375 39.1875 C114.66912773 43.16461935 112.00225266 46.34557506 109.3125 49.6875 C105.7848989 54.11875712 102.30966404 58.57319616 98.9375 63.125 C95.02473526 68.38168393 90.95620444 73.49560438 86.83642578 78.59008789 C82.79365211 83.60751676 78.96561918 88.75367433 75.21484375 93.9921875 C73.375 96.1875 73.375 96.1875 70.375 97.1875 C67.625 95.74609375 67.625 95.74609375 64.375 93.625 C63.19508801 92.87590413 62.01408232 92.1285284 60.83203125 91.3828125 C60.24502441 91.00930664 59.65801758 90.63580078 59.05322266 90.25097656 C50.86496228 85.06214005 42.84452504 81.84111977 33.5859375 79.16796875 C30.375 78.1875 30.375 78.1875 29.375 77.1875 C-1.40838273 70.31111937 -33.45005192 73.56592982 -60.625 90.1875 C-68.93396333 95.515308 -76.47956258 101.35005558 -83.625 108.1875 C-84.31078125 108.81011719 -84.9965625 109.43273437 -85.703125 110.07421875 C-91.71422061 115.71849554 -96.15410156 122.31880128 -100.625 129.1875 C-101.18316406 130.03441406 -101.74132812 130.88132813 -102.31640625 131.75390625 C-109.43839074 143.04122892 -113.67456501 155.25923033 -116.625 168.1875 C-116.88990234 169.29544922 -116.88990234 169.29544922 -117.16015625 170.42578125 C-122.25228316 193.24876734 -118.788375 219.21269654 -108.625 240.1875 C-108.16738281 241.19296875 -107.70976563 242.1984375 -107.23828125 243.234375 C-101.43099985 255.30235918 -93.86968278 265.52639007 -84.625 275.1875 C-84.00238281 275.87328125 -83.37976563 276.5590625 -82.73828125 277.265625 C-77.09400446 283.27672061 -70.49369872 287.71660156 -63.625 292.1875 C-62.77808594 292.74566406 -61.93117187 293.30382812 -61.05859375 293.87890625 C-49.77127108 301.00089074 -37.55326967 305.23706501 -24.625 308.1875 C-23.50617432 308.45457764 -23.50617432 308.45457764 -22.36474609 308.72705078 C-15.7993997 310.19081301 -9.46627996 310.57248117 -2.75 310.5625 C-1.66517334 310.56161377 -0.58034668 310.56072754 0.53735352 310.55981445 C10.81360847 310.41155944 20.45154897 308.76069653 30.375 306.1875 C31.41140625 305.92582031 32.4478125 305.66414063 33.515625 305.39453125 C39.04978522 303.85820763 44.202636 301.66452497 49.375 299.1875 C50.3134375 298.75566406 51.251875 298.32382812 52.21875 297.87890625 C63.74834256 292.39640669 73.12661912 284.90917242 82.375 276.1875 C83.05175781 275.57519531 83.72851562 274.96289062 84.42578125 274.33203125 C97.36150153 262.17400959 106.32973124 246.00506252 111.375 229.1875 C74.415 229.1875 37.455 229.1875 -0.625 229.1875 C-0.625 204.7675 -0.625 180.3475 -0.625 155.1875 C62.735 155.1875 126.095 155.1875 191.375 155.1875 C191.375 226.26135347 182.81351505 279.27943443 133.25 330.5625 C111.8673565 351.23238872 85.43675983 366.32337026 57.29736328 375.55126953 C55.56429276 376.12485117 53.84189371 376.7304368 52.12109375 377.33984375 C35.23471862 383.05490047 16.53313356 384.38825899 -1.1875 384.375 C-2.88289917 384.3737915 -2.88289917 384.3737915 -4.61254883 384.37255859 C-16.54024297 384.28626703 -28.14854164 383.61269744 -39.625 380.1875 C-41.07917587 379.89516568 -42.53750452 379.62237377 -44 379.375 C-91.83787403 369.92287104 -133.206715 338.80694762 -160.39746094 299.02001953 C-170.61636021 283.76483696 -178.27206355 267.5422877 -183.98876953 250.10986328 C-184.56235117 248.37679276 -185.1679368 246.65439371 -185.77734375 244.93359375 C-191.49240047 228.04721862 -192.82575899 209.34563356 -192.8125 191.625 C-192.81169434 190.49473389 -192.81088867 189.36446777 -192.81005859 188.19995117 C-192.72376703 176.27225703 -192.05019744 164.66395836 -188.625 153.1875 C-188.33266568 151.73332413 -188.05987377 150.27499548 -187.8125 148.8125 C-178.05967923 99.45280405 -145.53164361 58.08448974 -104.625 30.1875 C-104.04782227 29.79046875 -103.47064453 29.3934375 -102.87597656 28.984375 C-88.47017294 19.19729365 -72.01648989 12.88360575 -55.46313477 7.76611328 C-53.78927916 7.23921226 -52.12989056 6.66689808 -50.47265625 6.08984375 C-47.61906512 5.1856194 -44.89425101 4.63928187 -41.9375 4.1875 C-37.13257194 3.43320351 -32.35894904 2.58686543 -27.5859375 1.65234375 C-18.39803506 0.20991579 -9.29115762 -0.00641292 0 0 Z " fill="#010101" transform="translate(219.625,45.8125)"/>
</svg>
