<?xml version="1.0" encoding="UTF-8"?>
<svg version="1.1" xmlns="http://www.w3.org/2000/svg" width="480" height="480">
<path d="M0 0 C1.42141129 -0.00302246 2.84282095 -0.00691242 4.26422775 -0.01159257 C8.16092876 -0.02186861 12.05753773 -0.01969178 15.95424628 -0.01541197 C20.16013057 -0.01294413 24.36599272 -0.02195949 28.5718689 -0.02944946 C36.80698044 -0.04219556 45.04205939 -0.04399037 53.27717914 -0.0416492 C59.96890717 -0.03986626 66.6606253 -0.04161516 73.35235214 -0.04587364 C74.78085048 -0.04676643 74.78085048 -0.04676643 76.23820736 -0.04767724 C78.17281597 -0.04888899 80.10742458 -0.05010312 82.04203318 -0.05131962 C100.18132376 -0.06219422 118.32059574 -0.06003268 136.45988737 -0.05393478 C153.06212786 -0.04876222 169.66430974 -0.06003014 186.26653863 -0.07903299 C203.31076698 -0.09839243 220.35496758 -0.10667095 237.399207 -0.10290974 C246.96955856 -0.10099526 256.53986018 -0.10350954 266.11020279 -0.11762428 C274.25475753 -0.1295147 282.39923158 -0.13096911 290.54378738 -0.11883412 C294.70035486 -0.11292975 298.85677457 -0.1118889 303.01333237 -0.12383652 C306.81664561 -0.134642 310.61968675 -0.13165612 314.42298697 -0.11757483 C316.45398679 -0.11365016 318.48499847 -0.12451819 320.51597035 -0.13587171 C321.71989678 -0.12866517 322.92382321 -0.12145862 324.16423225 -0.1140337 C325.72317811 -0.11411622 325.72317811 -0.11411622 327.31361783 -0.11420041 C330.58686936 0.32115706 332.50582338 1.28302445 335.1322937 3.26069641 C335.1322937 3.92069641 335.1322937 4.58069641 335.1322937 5.26069641 C336.71399993 6.71177904 336.71399993 6.71177904 338.7572937 8.13569641 C339.48432495 8.66807922 340.2113562 9.20046204 340.9604187 9.74897766 C342.76572388 11.00554799 344.63044299 12.17623209 346.5072937 13.32319641 C351.92119409 17.31917051 352.84783796 25.51681038 353.85714722 31.87245178 C354.78419573 39.9191424 354.4892727 48.11113056 354.4135437 56.19697571 C354.38194469 59.61090341 354.37251929 63.02437026 354.3666687 66.43843079 C354.35751449 68.60445211 354.34714382 70.77046872 354.3354187 72.93647766 C354.33116882 73.9592128 354.32691895 74.98194794 354.32254028 76.03567505 C354.30812897 77.4393055 354.30812897 77.4393055 354.29342651 78.87129211 C354.28318451 80.1103405 354.28318451 80.1103405 354.2727356 81.37442017 C354.1322937 83.26069641 354.1322937 83.26069641 353.1322937 84.26069641 C350.63830305 84.38567256 348.17061041 84.44672521 345.67501831 84.46601868 C344.89458664 84.47591827 344.11415497 84.48581787 343.31007385 84.49601746 C340.71829307 84.52772416 338.12649393 84.55242591 335.53463745 84.57710266 C333.74244192 84.59766429 331.95025133 84.61866054 330.1580658 84.64007568 C325.4316405 84.69537817 320.70517085 84.74475124 315.97866821 84.79292297 C311.15939365 84.84307846 306.34018383 84.89879552 301.52096558 84.95405579 C292.05813019 85.0617373 282.59523871 85.16315993 273.1322937 85.26069641 C273.1322937 85.59069641 273.1322937 85.92069641 273.1322937 86.26069641 C270.4922937 86.26069641 267.8522937 86.26069641 265.1322937 86.26069641 C265.1322937 86.92069641 265.1322937 87.58069641 265.1322937 88.26069641 C264.2247937 88.54944641 263.3172937 88.83819641 262.3822937 89.13569641 C254.99451455 91.69300458 251.9938435 95.49798225 248.1322937 102.26069641 C239.41521997 121.33898946 239.98717703 145.85505173 246.2572937 165.57319641 C248.67425866 171.90436127 251.75574133 177.03100159 257.1322937 181.26069641 C260.34531948 182.30142777 260.34531948 182.30142777 263.1322937 182.26069641 C263.7922937 182.92069641 264.4522937 183.58069641 265.1322937 184.26069641 C268.88961538 186.83289244 272.89750552 186.56031854 277.28146362 186.56367493 C278.50888023 186.57633392 278.50888023 186.57633392 279.76109314 186.58924866 C282.46165554 186.61500851 285.16210877 186.62716038 287.86276245 186.63960266 C289.73795947 186.65577538 291.61314806 186.67295514 293.48832703 186.69110107 C298.42146925 186.73677891 303.35462263 186.77159439 308.28787231 186.80329895 C316.1953014 186.8551927 324.10260708 186.92014616 332.00988197 186.99151421 C334.7780662 187.014419 337.54623452 187.0306411 340.31446838 187.04623413 C342.00008319 187.05963423 343.68569632 187.07324845 345.37130737 187.08711243 C346.14688995 187.0897258 346.92247253 187.09233917 347.72155762 187.09503174 C353.0186548 187.14705751 353.0186548 187.14705751 354.1322937 188.26069641 C354.23583339 189.74216585 354.27080305 191.22850941 354.27755737 192.71357727 C354.28712715 194.13657387 354.28712715 194.13657387 354.29689026 195.58831787 C354.29855949 197.1412429 354.29855949 197.1412429 354.30026245 198.72554016 C354.30359085 199.78801468 354.30691925 200.8504892 354.31034851 201.94515991 C354.315426 204.20406154 354.31775658 206.46297072 354.31759644 208.72187805 C354.31976467 212.15226484 354.33786081 215.58232052 354.35690308 219.01264954 C354.35984061 221.20861198 354.36182299 223.40457595 354.36276245 225.60054016 C354.36994797 226.61760544 354.37713348 227.63467072 354.38453674 228.68255615 C354.36428892 235.11258328 353.61170596 241.00888063 352.1322937 247.26069641 C351.8641687 248.51882141 351.5960437 249.77694641 351.3197937 251.07319641 C349.07078026 257.11002197 343.95080808 260.26984182 338.90182495 263.92866516 C336.96321094 265.38797505 335.37929973 266.96664162 333.8197937 268.82319641 C330.34093824 271.78666588 325.59576537 271.38682118 321.22225761 271.39212418 C320.03124817 271.39596532 318.84023872 271.39980647 317.61313808 271.40376401 C316.30839224 271.40289753 315.00364639 271.40203104 313.65936279 271.40113831 C312.25632938 271.40372292 310.85329671 271.40673635 309.45026505 271.41014171 C305.59485817 271.4182038 301.73946992 271.42000084 297.88405561 271.42073917 C293.72574331 271.42259113 289.56744064 271.43013922 285.40913391 271.43687439 C276.31600753 271.450453 267.22288556 271.4564818 258.12975073 271.46088505 C252.45055517 271.46364848 246.77136131 271.46788604 241.0921669 271.47238922 C225.36442357 271.48458167 209.6366816 271.49488077 193.90893364 271.49826431 C192.90242099 271.49848388 191.89590834 271.49870344 190.85889531 271.49892966 C189.8499886 271.49914794 188.84108189 271.49936622 187.80160224 271.49959111 C185.75721033 271.50003458 183.71281842 271.50048114 181.66842651 271.50093079 C180.6543398 271.50115222 179.64025308 271.50137365 178.59543647 271.50160179 C162.16848806 271.50554868 145.74158405 271.52299949 129.31465279 271.54629031 C112.44448448 271.57001623 95.57433844 271.58246674 78.70415318 271.58363223 C69.2341801 271.58454834 59.76426484 271.59028433 50.29430771 271.60845184 C42.22929857 271.62386962 34.16436514 271.62896342 26.09934406 271.62071374 C21.98659835 271.61681307 17.87400501 271.61770822 13.76127815 271.63177109 C9.99088493 271.64454513 6.22075801 271.64328199 2.45036496 271.63118038 C0.45153587 271.62831029 -1.54729799 271.64013259 -3.54609025 271.65260243 C-11.11902362 271.61124479 -17.6868503 270.68064251 -24.8677063 268.26069641 C-25.8577063 267.93069641 -26.8477063 267.60069641 -27.8677063 267.26069641 C-27.8677063 266.60069641 -27.8677063 265.94069641 -27.8677063 265.26069641 C-29.85370967 263.90660321 -31.85588173 262.57612017 -33.8677063 261.26069641 C-36.32482356 259.00833892 -38.00925442 257.04837423 -39.8677063 254.26069641 C-40.3833313 253.78632141 -40.8989563 253.31194641 -41.4302063 252.82319641 C-43.12619634 250.97972898 -43.33964225 249.67470349 -43.8677063 247.26069641 C-44.5277063 246.27069641 -45.1877063 245.28069641 -45.8677063 244.26069641 C-47.13567941 240.45677709 -47.00901308 236.89296973 -47.00141907 232.92993164 C-47.00368462 232.06997221 -47.00595018 231.21001279 -47.00828439 230.32399398 C-47.01463382 227.43138063 -47.01379442 224.53881402 -47.01296997 221.64619446 C-47.0159609 219.57669514 -47.01936327 217.50719638 -47.02314758 215.43769836 C-47.03199913 209.80748444 -47.0343262 204.1772857 -47.03496337 198.5470655 C-47.03591173 193.85020849 -47.03958925 189.15335504 -47.04313546 184.4564994 C-47.05128462 173.37601181 -47.0537193 162.29553235 -47.05300903 151.21504211 C-47.05240829 139.77878561 -47.06295835 128.34257628 -47.0787527 116.90633172 C-47.09182229 107.09394219 -47.09719317 97.28156809 -47.09655362 87.46916991 C-47.09629844 81.60600332 -47.09916075 75.74287863 -47.10973167 69.87972069 C-47.11940271 64.36484305 -47.11949863 58.85004744 -47.11221504 53.33516693 C-47.11116793 51.31069888 -47.1135396 49.28622575 -47.1195755 47.26176643 C-47.12728048 44.49855147 -47.12266043 41.73562084 -47.11494446 38.97241211 C-47.12008802 38.17094543 -47.12523158 37.36947874 -47.13053101 36.54372519 C-47.10286127 32.06069965 -46.5618567 28.4860039 -44.8677063 24.26069641 C-44.2077063 24.26069641 -43.5477063 24.26069641 -42.8677063 24.26069641 C-42.7645813 23.31194641 -42.6614563 22.36319641 -42.5552063 21.38569641 C-41.8677063 18.26069641 -41.8677063 18.26069641 -38.8677063 16.26069641 C-38.5377063 15.60069641 -38.2077063 14.94069641 -37.8677063 14.26069641 C-36.77039001 13.2506027 -35.64084096 12.27513084 -34.4927063 11.32319641 C-30.07881437 7.7986431 -30.07881437 7.7986431 -26.8677063 3.26069641 C-24.87592889 2.88131024 -22.87340288 2.55783665 -20.8677063 2.26069641 C-19.92911837 1.92576077 -18.99053043 1.59082514 -18.02350044 1.24573994 C-12.17220374 -0.44688393 -6.03553766 -0.01735034 0 0 Z M-45.8677063 31.26069641 C-45.8677063 100.23069641 -45.8677063 169.20069641 -45.8677063 240.26069641 C-45.5377063 240.26069641 -45.2077063 240.26069641 -44.8677063 240.26069641 C-44.8677063 171.29069641 -44.8677063 102.32069641 -44.8677063 31.26069641 C-45.1977063 31.26069641 -45.5277063 31.26069641 -45.8677063 31.26069641 Z " fill="#000000" transform="translate(66.86770629882813,186.7393035888672)"/>
<path d="M0 0 C0.7115625 0.01675781 1.423125 0.03351562 2.15625 0.05078125 C4 0.1875 4 0.1875 7 1 C8.5625 3.125 8.5625 3.125 10 6 C11.49152224 7.66580337 13.02467164 9.27428662 14.59765625 10.86328125 C18.16789911 16.30317775 18.30151143 22.98782635 18.265625 29.296875 C18.26753845 30.0529303 18.2694519 30.8089856 18.27142334 31.58795166 C18.27277377 33.17110532 18.26915794 34.75427048 18.26074219 36.33740234 C18.24996555 38.75773823 18.26070674 41.17734214 18.2734375 43.59765625 C18.27211687 45.1432308 18.26955648 46.68880489 18.265625 48.234375 C18.26967346 48.9542157 18.27372192 49.6740564 18.27789307 50.41571045 C18.24381289 54.06250698 18.19326143 56.99098622 16 60 C13.25 61.125 13.25 61.125 10 62 C4.85503973 63.56849304 0.0551786 65.6758761 -4.8125 67.9375 C-5.58787109 68.28490234 -6.36324219 68.63230469 -7.16210938 68.99023438 C-7.89880859 69.33248047 -8.63550781 69.67472656 -9.39453125 70.02734375 C-10.06331299 70.33406006 -10.73209473 70.64077637 -11.42114258 70.95678711 C-13.33999137 71.99133491 -13.33999137 71.99133491 -14 75 C-16.87789143 76.7401204 -19.23794025 77.90818557 -22.59375 78.3125 C-27.36199746 79.27489857 -31.44172058 81.28390796 -35.8125 83.375 C-37.11864258 83.97441406 -37.11864258 83.97441406 -38.45117188 84.5859375 C-39.69157227 85.17375 -39.69157227 85.17375 -40.95703125 85.7734375 C-41.70960205 86.12841309 -42.46217285 86.48338867 -43.23754883 86.84912109 C-45.33035299 87.95534418 -45.33035299 87.95534418 -46 91 C-48.6875 92.0625 -48.6875 92.0625 -52 93 C-57.92515055 94.73083996 -63.33660046 97.44262819 -68.875 100.125 C-70.40821899 100.86314941 -70.40821899 100.86314941 -71.97241211 101.61621094 C-78.99131754 105.00415398 -85.98178149 108.44515229 -92.94140625 111.953125 C-93.555 112.24952881 -94.16859375 112.54593262 -94.80078125 112.85131836 C-97.1413484 114.03541453 -97.1413484 114.03541453 -99.80859375 115.77563477 C-110.64068978 122.13643581 -120.56764492 121.82530608 -132.875 121.4375 C-134.83457902 121.40230478 -136.79421964 121.3703804 -138.75390625 121.34179688 C-143.50415511 121.26550424 -148.25137798 121.14518365 -153 121 C-153 120.34 -153 119.68 -153 119 C-152.29230469 118.77054687 -151.58460938 118.54109375 -150.85546875 118.3046875 C-147.40246413 116.72698087 -145.10401079 114.69181893 -142.3125 112.125 C-141.35988281 111.26132813 -140.40726563 110.39765625 -139.42578125 109.5078125 C-137.30115527 107.31133926 -136.24343664 105.71690906 -135 103 C-134.1028125 102.7834375 -134.1028125 102.7834375 -133.1875 102.5625 C-129.85421896 101.70537059 -128.31518196 99.48458552 -126 97 C-125.154375 96.175 -124.30875 95.35 -123.4375 94.5 C-120.94920874 92.05534084 -120.94920874 92.05534084 -118.9375 89.25 C-116.82682327 86.79889154 -116.02387648 86.62562962 -113 86 C-112.505 84.515 -112.505 84.515 -112 83 C-111.21625 82.71125 -110.4325 82.4225 -109.625 82.125 C-106.28298706 80.69270874 -105.71833084 79.13782153 -104 76 C-101.38167403 72.95936339 -99.82056393 71.92220509 -96 71 C-95.505 69.515 -95.505 69.515 -95 68 C-94.401875 67.896875 -93.80375 67.79375 -93.1875 67.6875 C-89.76949449 66.6132697 -88.83441351 63.95873146 -87 61 C-84.62817592 58.13404591 -84.62817592 58.13404591 -82.1328125 57.6015625 C-79.63638614 56.89744224 -78.32386433 55.88309782 -76.375 54.1875 C-75.78460938 53.68605469 -75.19421875 53.18460938 -74.5859375 52.66796875 C-72.89871649 51.07194973 -72.89871649 51.07194973 -72.0390625 48.92578125 C-70.7164826 46.47453354 -69.5180044 46.09960559 -67 45 C-65.6229181 44.07489699 -64.26866373 43.115037 -62.9375 42.125 C-62.26589844 41.63257813 -61.59429687 41.14015625 -60.90234375 40.6328125 C-57.99225991 38.13504033 -56.11831301 35.17746951 -54 32 C-53.40703125 31.86851563 -52.8140625 31.73703125 -52.203125 31.6015625 C-48.93561595 30.70937031 -47.1931141 28.68548791 -44.75 26.375 C-43.76481026 25.4552069 -42.77913097 24.53593787 -41.79296875 23.6171875 C-40.41044922 22.32167969 -40.41044922 22.32167969 -39 21 C-35.36478959 17.72762604 -31.67163074 14.53675212 -27.875 11.453125 C-27.0550354 10.78313477 -27.0550354 10.78313477 -26.21850586 10.09960938 C-25.13290406 9.21486711 -24.042702 8.33573317 -22.94750977 7.46289062 C-20.34504441 5.34008212 -19.08582658 4.25747973 -18 1 C-11.97309297 -0.07145014 -6.1132553 -0.18879171 0 0 Z " fill="#000000" transform="translate(238,52)"/>
<path d="M0 0 C0.93236984 -0.0049649 1.86473969 -0.00992981 2.82536316 -0.01504517 C5.90409082 -0.02962707 8.98276694 -0.0364624 12.06152344 -0.04199219 C14.20758057 -0.04774718 16.3536377 -0.05350487 18.49969482 -0.05926514 C22.99865966 -0.06976402 27.49760668 -0.07561388 31.99658203 -0.07910156 C37.74752131 -0.08458203 43.49822333 -0.10860538 49.24908829 -0.13707352 C53.68274615 -0.15574309 58.11634736 -0.16090781 62.5500412 -0.16243744 C64.66942389 -0.16545504 66.7888058 -0.17345327 68.90814972 -0.18662262 C71.88035375 -0.20377237 74.85198465 -0.20178098 77.82421875 -0.1953125 C78.69102768 -0.20452728 79.55783661 -0.21374207 80.45091248 -0.22323608 C90.41034105 -0.15570377 97.95099043 2.97757799 105.42089844 9.59863281 C110.04876261 14.8692559 109.97869545 19.88662368 109.97167969 26.59082031 C109.97596481 27.49937775 109.98024994 28.40793518 109.98466492 29.34402466 C109.99039594 31.26205616 109.99091754 33.18010939 109.98657227 35.09814453 C109.98341666 38.01926122 110.00687159 40.93936026 110.03222656 43.86035156 C110.03450025 45.72883988 110.03520273 47.5973309 110.03417969 49.46582031 C110.04338943 50.33270477 110.05259918 51.19958923 110.06208801 52.09274292 C110.01372112 58.49273454 109.02612482 63.35542654 104.79199219 68.39941406 C102.53120583 70.27715742 100.2542188 71.83769426 97.73339844 73.34863281 C96.899375 73.8578125 96.06535156 74.36699219 95.20605469 74.89160156 C89.80721227 77.59518213 84.2464691 77.31472128 78.34179688 77.32226562 C77.40942703 77.32723053 76.47705719 77.33219543 75.51643372 77.33731079 C72.43770606 77.3518927 69.35902993 77.35872803 66.28027344 77.36425781 C64.1342163 77.3700128 61.98815917 77.37577049 59.84210205 77.38153076 C55.34313722 77.39202964 50.8441902 77.39787951 46.34521484 77.40136719 C40.59427557 77.40684766 34.84357354 77.430871 29.09270859 77.45933914 C24.65905073 77.47800872 20.22544952 77.48317344 15.79175568 77.48470306 C13.67237299 77.48772067 11.55299108 77.4957189 9.43364716 77.50888824 C6.46144313 77.52603799 3.48981223 77.5240466 0.51757812 77.51757812 C-0.3492308 77.52679291 -1.21603973 77.53600769 -2.1091156 77.54550171 C-9.23919483 77.49715448 -16.99347645 76.29914218 -22.32910156 71.16113281 C-26.13646491 66.79386309 -28.55730459 63.40679242 -28.63549805 57.53540039 C-28.65148544 56.6237764 -28.66747284 55.7121524 -28.6839447 54.77290344 C-28.6893074 53.79371445 -28.6946701 52.81452545 -28.70019531 51.80566406 C-28.70922379 50.7894548 -28.71825226 49.77324554 -28.72755432 48.72624207 C-28.74205688 46.57525577 -28.75094357 44.42422537 -28.75463867 42.27319336 C-28.76649637 39.0026476 -28.81565058 35.7340127 -28.86621094 32.46386719 C-28.87568021 30.36947531 -28.88291283 28.27507189 -28.88769531 26.18066406 C-28.90722763 25.21159622 -28.92675995 24.24252838 -28.94688416 23.24409485 C-28.90355611 16.63278004 -27.61371142 11.35816331 -23.32910156 6.16113281 C-21.31175232 5.01277161 -21.31175232 5.01277161 -19.32910156 4.16113281 C-18.52472656 3.64550781 -17.72035156 3.12988281 -16.89160156 2.59863281 C-11.58172069 -0.38008085 -5.92807417 0.00757424 0 0 Z M-5.32910156 19.16113281 C-6.75689431 22.270483 -6.75689431 22.270483 -7.32910156 25.16113281 C-7.82410156 25.63550781 -8.31910156 26.10988281 -8.82910156 26.59863281 C-11.91651388 29.81468731 -12.24507234 34.25361723 -12.64160156 38.53613281 C-12.25764446 42.99003523 -11.32112466 47.13609849 -9.32910156 51.16113281 C-8.33910156 51.82113281 -7.34910156 52.48113281 -6.32910156 53.16113281 C-6.1834375 53.95261719 -6.03777344 54.74410156 -5.88769531 55.55957031 C-4.99364327 59.72347703 -2.25232404 61.15803803 1.06542969 63.57910156 C7.859387 67.704368 15.17520642 69.18123618 23.00683594 67.72753906 C29.64724505 66.08276081 34.90456014 63.10594633 39.67089844 58.16113281 C41.09869118 55.05178263 41.09869118 55.05178263 41.67089844 52.16113281 C42.16589844 51.68675781 42.66089844 51.21238281 43.17089844 50.72363281 C46.25831075 47.50757832 46.58686922 43.0686484 46.98339844 38.78613281 C46.59944133 34.3322304 45.66292154 30.18616714 43.67089844 26.16113281 C42.68089844 25.50113281 41.69089844 24.84113281 40.67089844 24.16113281 C40.52523437 23.36964844 40.37957031 22.57816406 40.22949219 21.76269531 C39.33544015 17.5987886 36.59412092 16.16422759 33.27636719 13.74316406 C20.31678814 5.8741543 5.09432863 8.34739797 -5.32910156 19.16113281 Z M-26.32910156 13.16113281 C-25.32910156 15.16113281 -25.32910156 15.16113281 -25.32910156 15.16113281 Z M106.67089844 15.16113281 C107.67089844 17.16113281 107.67089844 17.16113281 107.67089844 17.16113281 Z M-27.32910156 16.16113281 C-26.32910156 19.16113281 -26.32910156 19.16113281 -26.32910156 19.16113281 Z M107.67089844 18.16113281 C107.67089844 31.69113281 107.67089844 45.22113281 107.67089844 59.16113281 C108.00089844 59.16113281 108.33089844 59.16113281 108.67089844 59.16113281 C108.67089844 45.63113281 108.67089844 32.10113281 108.67089844 18.16113281 C108.34089844 18.16113281 108.01089844 18.16113281 107.67089844 18.16113281 Z M-27.32910156 58.16113281 C-26.32910156 61.16113281 -26.32910156 61.16113281 -26.32910156 61.16113281 Z M106.67089844 60.16113281 C107.67089844 62.16113281 107.67089844 62.16113281 107.67089844 62.16113281 Z M-26.32910156 62.16113281 C-25.32910156 64.16113281 -25.32910156 64.16113281 -25.32910156 64.16113281 Z " fill="#000000" transform="translate(350.3291015625,283.8388671875)"/>
<path d="M0 0 C2.81867292 2.3488941 3.87024905 3.59452827 5 7.125 C5.69065022 10.12150219 5.69065022 10.12150219 8.0625 11.1875 C8.701875 11.455625 9.34125 11.72375 10 12 C10.495 13.485 10.495 13.485 11 15 C12.175625 16.11375 12.175625 16.11375 13.375 17.25 C16.30261167 20.31702175 17.4132002 23.10512777 19 27 C20.64492685 28.97391222 21.71268921 29.8563446 24 31 C24.33 31.99 24.66 32.98 25 34 C25.66 34.33 26.32 34.66 27 35 C27.144375 35.598125 27.28875 36.19625 27.4375 36.8125 C28.11794921 39.45869138 29.28420473 40.88825197 31 43 C33.12873193 45.61997776 34.59117139 47.59771445 35 51 C32.73846154 55.63076923 32.73846154 55.63076923 30 57 C27.28239892 57.07181821 24.59140612 57.09299506 21.875 57.0625 C20.74384766 57.05573242 20.74384766 57.05573242 19.58984375 57.04882812 C17.72652873 57.03703499 15.86325445 57.01909942 14 57 C14.04640625 57.66902344 14.0928125 58.33804688 14.140625 59.02734375 C14.38649183 65.56915764 13.68841656 71.47660684 12.1875 77.8125 C12.02217773 78.51689209 11.85685547 79.22128418 11.68652344 79.94702148 C8.89463804 91.10536196 8.89463804 91.10536196 5 95 C3.44366095 97.80141028 2.13173119 100.22843162 1.58984375 103.40234375 C0.91871365 106.35798292 -0.18522742 108.24476503 -1.875 110.75 C-2.64457031 111.91789062 -2.64457031 111.91789062 -3.4296875 113.109375 C-5 115 -5 115 -8 116 C-9.55844612 118.30650026 -10.81513945 120.55105296 -11.875 123.125 C-13.40123389 125.66872314 -15.47718097 126.51218365 -18 128 C-18.33 128.99 -18.66 129.98 -19 131 C-19.5775 131.12375 -20.155 131.2475 -20.75 131.375 C-24.09627653 132.30452126 -25.71469818 134.46763852 -28 137 C-28.33 137.66 -28.66 138.32 -29 139 C-32.39144731 139.26877464 -34.40394855 139.36337356 -37.3515625 137.56640625 C-38.47691406 136.57447266 -38.47691406 136.57447266 -39.625 135.5625 C-43.44360932 132.31581552 -47.30222983 129.1964358 -51.3125 126.1875 C-52.27800781 125.45917969 -53.24351562 124.73085937 -54.23828125 123.98046875 C-56.94535669 121.98201192 -56.94535669 121.98201192 -59.73046875 120.36328125 C-62 119 -62 119 -64 117 C-62.73574988 113.20724963 -61.02996102 112.83939113 -57.63671875 111.04296875 C-55.54047723 109.70717761 -55.03303278 108.21364167 -54 106 C-52.33927151 105.31867549 -50.672233 104.65257873 -49 104 C-47.32382098 102.13757887 -46.19462931 100.40554919 -45.11328125 98.15234375 C-43.45143845 94.93944767 -41.32343904 92.07368265 -39.2421875 89.12109375 C-37.7473238 86.97822046 -37.7473238 86.97822046 -38 84 C-37.67881964 81.68578079 -37.34343355 79.37352158 -37 77.0625 C-36.04401049 70.34515687 -35.77239473 63.79022395 -36 57 C-37.09699219 57.05800781 -38.19398438 57.11601563 -39.32421875 57.17578125 C-40.77860314 57.22269688 -42.23303374 57.26819511 -43.6875 57.3125 C-44.40873047 57.35439453 -45.12996094 57.39628906 -45.87304688 57.43945312 C-50.00592307 57.53381103 -51.5897695 57.29887472 -55.05078125 54.77734375 C-57 52 -57 52 -57.15625 49.578125 C-56.9396875 48.80984375 -56.723125 48.0415625 -56.5 47.25 C-56.20609375 46.08210938 -56.20609375 46.08210938 -55.90625 44.890625 C-55.6071875 44.26671875 -55.308125 43.6428125 -55 43 C-53.515 42.505 -53.515 42.505 -52 42 C-50.87483915 40.16715557 -50.87483915 40.16715557 -50 38 C-48.24777972 34.14511539 -46.09770156 31.96464683 -42.9375 29.1875 C-40.80733405 27.07926291 -40.80733405 27.07926291 -40.0625 24.0625 C-38.77173494 20.34205952 -36.82638243 18.68506331 -34 16 C-33.4740625 14.9171875 -33.4740625 14.9171875 -32.9375 13.8125 C-31.72658139 11.47139069 -30.39822186 10.95928874 -28 10 C-28 9.34 -28 8.68 -28 8 C-27.34 7.34 -26.68 6.68 -26 6 C-25.8453125 5.0409375 -25.8453125 5.0409375 -25.6875 4.0625 C-24.68155899 1.04467698 -22.72286993 0.49109544 -20 -1 C-19.2265625 -1.804375 -19.2265625 -1.804375 -18.4375 -2.625 C-12.95612087 -7.8680583 -5.02929649 -3.91167505 0 0 Z M-35 57 C-35 58.98 -35 60.96 -35 63 C-34.67 63 -34.34 63 -34 63 C-34 61.02 -34 59.04 -34 57 C-34.33 57 -34.66 57 -35 57 Z M12 57 C12 60.63 12 64.26 12 68 C12.33 68 12.66 68 13 68 C13 64.37 13 60.74 13 57 C12.67 57 12.34 57 12 57 Z M-34 63 C-34 65.64 -34 68.28 -34 71 C-33.67 71 -33.34 71 -33 71 C-33 68.36 -33 65.72 -33 63 C-33.33 63 -33.66 63 -34 63 Z M11 69 C11 70.65 11 72.3 11 74 C11.33 74 11.66 74 12 74 C12 72.35 12 70.7 12 69 C11.67 69 11.34 69 11 69 Z M-35 71 C-35 72.98 -35 74.96 -35 77 C-34.67 77 -34.34 77 -34 77 C-34 75.02 -34 73.04 -34 71 C-34.33 71 -34.66 71 -35 71 Z M10 76 C11 78 11 78 11 78 Z M-36 78 C-35 81 -35 81 -35 81 Z M8 83 C9 85 9 85 9 85 Z M7 86 C8 88 8 88 8 88 Z M6 89 C7 91 7 91 7 91 Z " fill="#000000" transform="translate(431,19)"/>
<path d="M0 0 C4.25026945 3.55634791 4.87669091 4.38345457 6 10 C5.67 27.16 5.34 44.32 5 62 C-49.12 62 -103.24 62 -159 62 C-159 61.34 -159 60.68 -159 60 C-158.12770752 59.58657349 -158.12770752 59.58657349 -157.23779297 59.16479492 C-145.99724689 53.83042894 -134.77876082 48.45135434 -123.625 42.9375 C-122.6747998 42.47303467 -121.72459961 42.00856934 -120.74560547 41.5300293 C-119.87307129 41.09601807 -119.00053711 40.66200684 -118.1015625 40.21484375 C-117.33150879 39.83448975 -116.56145508 39.45413574 -115.76806641 39.06225586 C-113.83428362 38.11554953 -113.83428362 38.11554953 -113 36 C-111.33645291 35.65143154 -109.66905142 35.32117947 -108 35 C-103.88893399 33.25124913 -99.92743159 31.19550479 -95.9375 29.1875 C-94.84888672 28.65318359 -93.76027344 28.11886719 -92.63867188 27.56835938 C-91.59130859 27.04435547 -90.54394531 26.52035156 -89.46484375 25.98046875 C-88.512146 25.50504639 -87.55944824 25.02962402 -86.57788086 24.53979492 C-83.92362883 23.09838052 -83.92362883 23.09838052 -81.8840332 20.87280273 C-79.55366611 18.55632664 -77.43098627 18.27500497 -74.28320312 17.60839844 C-69.83953132 16.42430625 -65.83238409 14.20253374 -61.75 12.125 C-60.86570312 11.69058594 -59.98140625 11.25617188 -59.0703125 10.80859375 C-54.70013958 8.61030435 -51.35322634 6.62312017 -48 3 C-46.18930568 2.56409211 -44.37584051 2.13682349 -42.55078125 1.765625 C-38.46220255 0.53842527 -34.76435191 -1.51934183 -31.01220703 -3.5246582 C-19.93737608 -9.35065852 -9.80463108 -7.2960588 0 0 Z M4 8 C5 10 5 10 5 10 Z " fill="#000000" transform="translate(318,111)"/>
<path d="M0 0 C1.7109375 1.3984375 1.7109375 1.3984375 3 3 C4.83347504 5.06023243 4.83347504 5.06023243 7 5.9375 C9 7 9 7 11 10 C11.3359375 13.3984375 11.3359375 13.3984375 11.375 17.375 C11.40335937 18.68210937 11.43171875 19.98921875 11.4609375 21.3359375 C10.93829283 25.49051973 9.9518729 27.09750787 7 30 C5 30.6875 5 30.6875 3 31 C2.38898438 31.33 1.77796875 31.66 1.1484375 32 C-2.47617861 33.68709404 -6.08300244 33.45641537 -10 33 C-13.3125 31.625 -13.3125 31.625 -16 30 C-16.7425 29.67 -17.485 29.34 -18.25 29 C-20 28 -20 28 -22 25 C-22.69044016 19.3437018 -23.35068245 12.81881555 -20.83203125 7.5625 C-19.33816985 5.78061905 -17.85051748 4.40123319 -16 3 C-15.278125 2.360625 -14.55625 1.72125 -13.8125 1.0625 C-9.36751824 -0.61671533 -4.68486174 -0.73971501 0 0 Z M-10 1 C-10 1.33 -10 1.66 -10 2 C-7.03 2 -4.06 2 -1 2 C-1 1.67 -1 1.34 -1 1 C-3.97 1 -6.94 1 -10 1 Z " fill="#000000" transform="translate(373,305)"/>
<path d="M0 0 C1.31064847 0.24260512 1.31064847 0.24260512 2.6477747 0.49011135 C8.60931492 1.33286605 14.62762938 1.15366604 20.63560486 1.15821838 C22.0317054 1.16278843 23.42780458 1.1677891 24.82390219 1.17318195 C28.65041416 1.18672202 32.47691728 1.1941694 36.30344689 1.20060861 C40.43357064 1.20863076 44.56367608 1.22232227 48.69378662 1.23532104 C55.8462307 1.25705808 62.99867665 1.27521268 70.1511364 1.29092598 C80.49236021 1.31364989 90.83356373 1.34178921 101.1747703 1.37124526 C117.95317449 1.41889027 134.73158698 1.46216282 151.51000977 1.50268555 C167.80754238 1.5420562 184.10506762 1.58348619 200.40258789 1.62768555 C201.40736634 1.63040982 202.41214478 1.63313409 203.44737106 1.63594092 C208.48810872 1.64962065 213.52884627 1.66334088 218.56958377 1.67708123 C260.37970714 1.79099745 302.18984642 1.89781753 344 2 C344 2.33 344 2.66 344 3 C301.04293378 3.04576021 258.08587037 3.08101045 215.12878462 3.10213066 C210.05932643 3.10463212 204.98986828 3.10722076 199.92041016 3.10986328 C198.91115623 3.1103879 197.9019023 3.11091252 196.86206491 3.11145304 C180.51226544 3.12015981 164.16248001 3.13593129 147.81268887 3.15430559 C131.04101673 3.17299706 114.26935195 3.18411513 97.49766982 3.18817699 C87.14550918 3.19092361 76.79338822 3.19960411 66.44123979 3.21583293 C59.34602838 3.22639052 52.25083753 3.22960341 45.15561883 3.22700275 C41.05975935 3.22571955 36.96396929 3.22771093 32.8681221 3.23841095 C29.11881437 3.24813427 25.36962284 3.24864089 21.62030979 3.24179779 C19.62053302 3.24055094 17.62075765 3.24918498 15.62100065 3.25816262 C14.43166665 3.25418052 13.24233266 3.25019842 12.01695824 3.24609566 C10.48023006 3.24723482 10.48023006 3.24723482 8.91245687 3.24839699 C5.69249998 2.973774 3.01681721 2.13204398 0 1 C0 0.67 0 0.34 0 0 Z " fill="#000000" transform="translate(46,457)"/>
<path d="M0 0 C1.77802785 -0.00298657 1.77802785 -0.00298657 3.59197545 -0.00603348 C5.54720919 -0.00166422 5.54720919 -0.00166422 7.5419426 0.00279331 C8.93957754 0.00235733 10.3372124 0.00148193 11.73484683 0.00020415 C15.5795518 -0.00203556 19.424229 0.00197333 23.26893044 0.00698221 C27.41341146 0.01129402 31.55789087 0.00983976 35.7023735 0.00907993 C42.88434598 0.00855516 50.06630938 0.01169708 57.24827957 0.01731777 C67.63224848 0.02543911 78.01621298 0.02804864 88.40018472 0.02930576 C105.24681728 0.03149528 122.09344499 0.03815267 138.94007492 0.04760838 C155.30661113 0.05678507 171.67314603 0.06386465 188.0396843 0.06811619 C189.04823791 0.06837891 190.05679152 0.06864164 191.09590736 0.06891232 C196.1554409 0.07021734 201.21497445 0.07148105 206.274508 0.07272422 C248.25938784 0.08309372 290.24426235 0.10070934 332.22913742 0.12304783 C332.22913742 0.45304783 332.22913742 0.78304783 332.22913742 1.12304783 C331.51871369 1.12478408 330.80828996 1.12652033 330.07633823 1.12830919 C287.98126667 1.23131243 245.88621091 1.33941953 203.79116964 1.45416477 C198.73802163 1.46793453 193.68487351 1.4816616 188.63172531 1.49536228 C187.1227238 1.49945474 187.1227238 1.49945474 185.58323742 1.50362987 C169.28909275 1.54771824 152.99494121 1.5883473 136.7007845 1.62770044 C119.98446671 1.66815008 103.26816171 1.71231142 86.55186278 1.75992638 C76.23504346 1.78919573 65.91822509 1.81556166 55.60138912 1.8382268 C48.52905755 1.85404126 41.45674162 1.87345741 34.38442742 1.89571624 C30.30264897 1.90845622 26.22088249 1.91959818 22.13908958 1.92646694 C18.40146444 1.93279158 14.66388066 1.94364352 10.9262783 1.95808113 C8.93520899 1.96459878 6.94412567 1.96628473 4.95304626 1.96779341 C-0.72191634 1.99394779 -6.18399512 2.08890124 -11.77086258 3.12304783 C-8.33106784 -0.31674691 -4.69580461 -0.00173919 0 0 Z " fill="#000000" transform="translate(57.7708625793457,184.87695217132568)"/>
<path d="M0 0 C54.12 0 108.24 0 164 0 C164 0.33 164 0.66 164 1 C109.88 1 55.76 1 0 1 C0 0.67 0 0.34 0 0 Z " fill="#000000" transform="translate(159,174)"/>
<path d="M0 0 C0.33 0 0.66 0 1 0 C1 17.16 1 34.32 1 52 C0.67 52 0.34 52 0 52 C0 34.84 0 17.68 0 0 Z " fill="#000000" transform="translate(324,121)"/>
<path d="M0 0 C0.33 0 0.66 0 1 0 C0.9278125 1.00417969 0.855625 2.00835937 0.78125 3.04296875 C-0.19243149 17.12496728 -0.01155653 30.92852611 1 45 C0.67 45 0.34 45 0 45 C-2.71331013 29.71340452 -2.71331013 15.28659548 0 0 Z " fill="#000000" transform="translate(311,300)"/>
<path d="M0 0 C0.33 0 0.66 0 1 0 C1 12.87 1 25.74 1 39 C-1.14480712 34.71038575 -1.24592362 32.67915157 -1.23046875 27.96875 C-1.23001053 27.29581909 -1.22955231 26.62288818 -1.2290802 25.92956543 C-1.22606738 24.51080556 -1.21821016 23.09204872 -1.20581055 21.67333984 C-1.18756207 19.50736711 -1.18530101 17.34182284 -1.18554688 15.17578125 C-1.14452703 3.64878641 -1.14452703 3.64878641 0 0 Z " fill="#000000" transform="translate(321,303)"/>
<path d="M0 0 C-1 1 -1 1 -4.87719727 1.11352539 C-6.60694167 1.11336621 -8.33669081 1.10766849 -10.06640625 1.09765625 C-10.97502914 1.0962413 -11.88365204 1.09482635 -12.81980896 1.09336853 C-15.73407221 1.08775193 -18.64825981 1.07519665 -21.5625 1.0625 C-23.53320202 1.05748714 -25.50390524 1.05292386 -27.47460938 1.04882812 C-32.31643559 1.03777711 -37.15820495 1.02050138 -42 1 C-42 0.67 -42 0.34 -42 0 C-36.34017703 -0.16740321 -30.68021782 -0.32798446 -25.02001953 -0.48217773 C-23.09353392 -0.53562804 -21.16709958 -0.59095971 -19.24072266 -0.64819336 C-16.4756984 -0.73001986 -13.71056186 -0.80513291 -10.9453125 -0.87890625 C-10.0806839 -0.90594131 -9.2160553 -0.93297638 -8.32522583 -0.96083069 C-2.22774341 -1.11387171 -2.22774341 -1.11387171 0 0 Z " fill="#000000" transform="translate(129,174)"/>
<path d="M0 0 C1.01450835 3.04352505 0.98033913 4.07921327 0.5 7.125 C-0.12493179 11.94251213 0.31435057 16.20045401 1 21 C-2.08834071 17.91165929 -1.9506765 14.88782307 -2.1875 10.625 C-1.98479941 6.70612192 -1.21187233 3.71135901 0 0 Z " fill="#000000" transform="translate(341,312)"/>
<path d="M0 0 C-1.299375 -0.020625 -2.59875 -0.04125 -3.9375 -0.0625 C-8.69382325 -0.07004972 -13.28388953 0.40112883 -18 1 C-13.39355494 -3.60644506 -5.39470364 -2.9865646 0 0 Z " fill="#000000" transform="translate(375,296)"/>
<path d="M0 0 C0.85078125 0.24363281 0.85078125 0.24363281 1.71875 0.4921875 C4.05543918 1.01234091 6.10980766 1.13318559 8.5 1.125 C9.2528125 1.12757813 10.005625 1.13015625 10.78125 1.1328125 C12.973535 1.00158417 14.89319137 0.60331338 17 0 C15.207335 2.28928166 14.33081505 2.94918203 11.40625 3.3984375 C10.4471875 3.39070313 9.488125 3.38296875 8.5 3.375 C7.5409375 3.38273437 6.581875 3.39046875 5.59375 3.3984375 C2.66918495 2.94918203 1.792665 2.28928166 0 0 Z " fill="#000000" transform="translate(359,337)"/>
<path d="M0 0 C4.95 0 9.9 0 15 0 C10.72293099 2.13853451 8.68240915 2.3344578 4 2 C2.68 1.34 1.36 0.68 0 0 Z " fill="#000000" transform="translate(360,349)"/>
<path d="M0 0 C0.33 0 0.66 0 1 0 C2.33257403 10.55808656 2.33257403 10.55808656 1 15 C0.67 15 0.34 15 0 15 C0 10.05 0 5.1 0 0 Z " fill="#000000" transform="translate(394,315)"/>
<path d="M0 0 C1.09054688 0.02320313 2.18109375 0.04640625 3.3046875 0.0703125 C4.40039062 0.08835938 5.49609375 0.10640625 6.625 0.125 C7.46804687 0.14820313 8.31109375 0.17140625 9.1796875 0.1953125 C9.1796875 0.5253125 9.1796875 0.8553125 9.1796875 1.1953125 C4.5596875 1.5253125 -0.0603125 1.8553125 -4.8203125 2.1953125 C-2.8203125 0.1953125 -2.8203125 0.1953125 0 0 Z " fill="#000000" transform="translate(228.8203125,49.8046875)"/>
<path d="M0 0 C0.33 0 0.66 0 1 0 C1 2.97 1 5.94 1 9 C0.67 9 0.34 9 0 9 C0 6.03 0 3.06 0 0 Z " fill="#000000" transform="translate(384,318)"/>
<path d="M0 0 C0.33 0 0.66 0 1 0 C1 2.97 1 5.94 1 9 C0.67 9 0.34 9 0 9 C0 6.03 0 3.06 0 0 Z " fill="#000000" transform="translate(350,318)"/>
<path d="M0 0 C0.66 0.33 1.32 0.66 2 1 C0.35 1.66 -1.3 2.32 -3 3 C-2.01 2.01 -1.02 1.02 0 0 Z " fill="#000000" transform="translate(159,157)"/>
<path d="M0 0 C0.66 0.33 1.32 0.66 2 1 C1.01 1.66 0.02 2.32 -1 3 C-0.67 2.01 -0.34 1.02 0 0 Z " fill="#000000" transform="translate(409,17)"/>
<path d="M0 0 C4 1 4 1 4 1 Z " fill="#000000" transform="translate(390,458)"/>
<path d="M0 0 C4 1 4 1 4 1 Z " fill="#000000" transform="translate(336,372)"/>
<path d="M0 0 C0.99 0.33 1.98 0.66 3 1 C2.01 1 1.02 1 0 1 C0 0.67 0 0.34 0 0 Z " fill="#000000" transform="translate(323,366)"/>
<path d="M0 0 C1 4 1 4 1 4 Z " fill="#000000" transform="translate(312,345)"/>
<path d="M0 0 C1 4 1 4 1 4 Z " fill="#000000" transform="translate(312,296)"/>
<path d="M0 0 C0.66 0.33 1.32 0.66 2 1 C1.01 1 0.02 1 -1 1 C-0.67 0.67 -0.34 0.34 0 0 Z " fill="#000000" transform="translate(324,277)"/>
<path d="M0 0 C4 1 4 1 4 1 Z " fill="#000000" transform="translate(390,186)"/>
<path d="M0 0 C0.66 0.33 1.32 0.66 2 1 C1.01 1 0.02 1 -1 1 C-0.67 0.67 -0.34 0.34 0 0 Z " fill="#000000" transform="translate(161,168)"/>
<path d="M0 0 C0.99 0.33 1.98 0.66 3 1 C2.01 1 1.02 1 0 1 C0 0.67 0 0.34 0 0 Z " fill="#000000" transform="translate(391,155)"/>
<path d="M0 0 C0.99 0.33 1.98 0.66 3 1 C2.01 1 1.02 1 0 1 C0 0.67 0 0.34 0 0 Z " fill="#000000" transform="translate(376,144)"/>
<path d="M0 0 C0.99 0.33 1.98 0.66 3 1 C2.01 1 1.02 1 0 1 C0 0.67 0 0.34 0 0 Z " fill="#000000" transform="translate(371,140)"/>
<path d="M0 0 C0.66 0.33 1.32 0.66 2 1 C1.01 1 0.02 1 -1 1 C-0.67 0.67 -0.34 0.34 0 0 Z " fill="#000000" transform="translate(200,70)"/>
<path d="M0 0 C0.99 0.495 0.99 0.495 2 1 C1.67 1.66 1.34 2.32 1 3 C0.67 2.01 0.34 1.02 0 0 Z " fill="#000000" transform="translate(460,58)"/>
<path d="M0 0 C0.99 0.33 1.98 0.66 3 1 C2.01 1 1.02 1 0 1 C0 0.67 0 0.34 0 0 Z " fill="#000000" transform="translate(248,57)"/>
<path d="M0 0 C3 1 3 1 3 1 Z " fill="#000000" transform="translate(332,371)"/>
<path d="M0 0 C3 1 3 1 3 1 Z " fill="#000000" transform="translate(375,348)"/>
<path d="M0 0 C3 1 3 1 3 1 Z " fill="#000000" transform="translate(357,348)"/>
<path d="" fill="#000000" transform="translate(0,0)"/>
<path d="" fill="#000000" transform="translate(0,0)"/>
<path d="M0 0 C3 1 3 1 3 1 Z " fill="#000000" transform="translate(375,296)"/>
<path d="M0 0 C3 1 3 1 3 1 Z " fill="#000000" transform="translate(332,273)"/>
<path d="M0 0 C3 1 3 1 3 1 Z " fill="#000000" transform="translate(396,159)"/>
<path d="M0 0 C0.99 0.495 0.99 0.495 2 1 C1.01 1.495 1.01 1.495 0 2 C0 1.34 0 0.68 0 0 Z " fill="#000000" transform="translate(105,153)"/>
<path d="" fill="#000000" transform="translate(0,0)"/>
<path d="M0 0 C3 1 3 1 3 1 Z " fill="#000000" transform="translate(238,51)"/>
<path d="M0 0 C2 1 2 1 2 1 Z " fill="#000000" transform="translate(44,456)"/>
<path d="M0 0 C2 1 2 1 2 1 Z " fill="#000000" transform="translate(42,455)"/>
<path d="M0 0 C2 1 2 1 2 1 Z " fill="#000000" transform="translate(402,453)"/>
<path d="" fill="#000000" transform="translate(0,0)"/>
<path d="" fill="#000000" transform="translate(0,0)"/>
<path d="" fill="#000000" transform="translate(0,0)"/>
<path d="" fill="#000000" transform="translate(0,0)"/>
<path d="M0 0 C2 1 2 1 2 1 Z " fill="#000000" transform="translate(378,347)"/>
<path d="M0 0 C2 1 2 1 2 1 Z " fill="#000000" transform="translate(355,347)"/>
<path d="M0 0 C2 1 2 1 2 1 Z " fill="#000000" transform="translate(382,345)"/>
<path d="M0 0 C2 1 2 1 2 1 Z " fill="#000000" transform="translate(378,297)"/>
<path d="M0 0 C2 1 2 1 2 1 Z " fill="#000000" transform="translate(355,297)"/>
<path d="" fill="#000000" transform="translate(0,0)"/>
<path d="" fill="#000000" transform="translate(0,0)"/>
<path d="" fill="#000000" transform="translate(0,0)"/>
<path d="" fill="#000000" transform="translate(0,0)"/>
<path d="M0 0 C2 1 2 1 2 1 Z " fill="#000000" transform="translate(402,191)"/>
<path d="M0 0 C2 1 2 1 2 1 Z " fill="#000000" transform="translate(42,189)"/>
<path d="M0 0 C2 1 2 1 2 1 Z " fill="#000000" transform="translate(44,188)"/>
<path d="" fill="#000000" transform="translate(0,0)"/>
<path d="M0 0 C2 1 2 1 2 1 Z " fill="#000000" transform="translate(129,172)"/>
<path d="M0 0 C2 1 2 1 2 1 Z " fill="#000000" transform="translate(131,171)"/>
<path d="M0 0 C2 1 2 1 2 1 Z " fill="#000000" transform="translate(133,170)"/>
<path d="M0 0 C2 1 2 1 2 1 Z " fill="#000000" transform="translate(135,169)"/>
<path d="M0 0 C2 1 2 1 2 1 Z " fill="#000000" transform="translate(87,169)"/>
<path d="M0 0 C2 1 2 1 2 1 Z " fill="#000000" transform="translate(137,168)"/>
<path d="M0 0 C2 1 2 1 2 1 Z " fill="#000000" transform="translate(163,167)"/>
<path d="M0 0 C2 1 2 1 2 1 Z " fill="#000000" transform="translate(165,166)"/>
<path d="M0 0 C2 1 2 1 2 1 Z " fill="#000000" transform="translate(146,164)"/>
<path d="M0 0 C2 1 2 1 2 1 Z " fill="#000000" transform="translate(148,163)"/>
<path d="M0 0 C2 1 2 1 2 1 Z " fill="#000000" transform="translate(150,162)"/>
<path d="M0 0 C2 1 2 1 2 1 Z " fill="#000000" transform="translate(152,161)"/>
<path d="M0 0 C2 1 2 1 2 1 Z " fill="#000000" transform="translate(178,160)"/>
<path d="M0 0 C2 1 2 1 2 1 Z " fill="#000000" transform="translate(154,160)"/>
<path d="M0 0 C2 1 2 1 2 1 Z " fill="#000000" transform="translate(180,159)"/>
<path d="M0 0 C2 1 2 1 2 1 Z " fill="#000000" transform="translate(182,158)"/>
<path d="M0 0 C2 1 2 1 2 1 Z " fill="#000000" transform="translate(184,157)"/>
<path d="M0 0 C2 1 2 1 2 1 Z " fill="#000000" transform="translate(186,156)"/>
<path d="M0 0 C2 1 2 1 2 1 Z " fill="#000000" transform="translate(161,156)"/>
<path d="M0 0 C2 1 2 1 2 1 Z " fill="#000000" transform="translate(188,155)"/>
<path d="M0 0 C2 1 2 1 2 1 Z " fill="#000000" transform="translate(163,155)"/>
<path d="M0 0 C2 1 2 1 2 1 Z " fill="#000000" transform="translate(190,154)"/>
<path d="M0 0 C2 1 2 1 2 1 Z " fill="#000000" transform="translate(165,154)"/>
<path d="M0 0 C2 1 2 1 2 1 Z " fill="#000000" transform="translate(192,153)"/>
<path d="M0 0 C2 1 2 1 2 1 Z " fill="#000000" transform="translate(167,153)"/>
<path d="M0 0 C2 1 2 1 2 1 Z " fill="#000000" transform="translate(176,149)"/>
<path d="M0 0 C2 1 2 1 2 1 Z " fill="#000000" transform="translate(178,148)"/>
<path d="M0 0 C2 1 2 1 2 1 Z " fill="#000000" transform="translate(180,147)"/>
<path d="M0 0 C2 1 2 1 2 1 Z " fill="#000000" transform="translate(182,146)"/>
<path d="M0 0 C2 1 2 1 2 1 Z " fill="#000000" transform="translate(208,145)"/>
<path d="M0 0 C2 1 2 1 2 1 Z " fill="#000000" transform="translate(184,145)"/>
<path d="M0 0 C2 1 2 1 2 1 Z " fill="#000000" transform="translate(210,144)"/>
<path d="M0 0 C2 1 2 1 2 1 Z " fill="#000000" transform="translate(212,143)"/>
<path d="M0 0 C2 1 2 1 2 1 Z " fill="#000000" transform="translate(214,142)"/>
<path d="M0 0 C2 1 2 1 2 1 Z " fill="#000000" transform="translate(216,141)"/>
<path d="M0 0 C2 1 2 1 2 1 Z " fill="#000000" transform="translate(218,140)"/>
<path d="M0 0 C2 1 2 1 2 1 Z " fill="#000000" transform="translate(193,140)"/>
<path d="M0 0 C2 1 2 1 2 1 Z " fill="#000000" transform="translate(220,139)"/>
<path d="M0 0 C2 1 2 1 2 1 Z " fill="#000000" transform="translate(195,139)"/>
<path d="M0 0 C2 1 2 1 2 1 Z " fill="#000000" transform="translate(222,138)"/>
<path d="M0 0 C2 1 2 1 2 1 Z " fill="#000000" transform="translate(197,138)"/>
<path d="" fill="#000000" transform="translate(0,0)"/>
<path d="M0 0 C2 1 2 1 2 1 Z " fill="#000000" transform="translate(208,133)"/>
<path d="M0 0 C2 1 2 1 2 1 Z " fill="#000000" transform="translate(210,132)"/>
<path d="M0 0 C2 1 2 1 2 1 Z " fill="#000000" transform="translate(369,131)"/>
<path d="M0 0 C2 1 2 1 2 1 Z " fill="#000000" transform="translate(212,131)"/>
<path d="M0 0 C2 1 2 1 2 1 Z " fill="#000000" transform="translate(214,130)"/>
<path d="M0 0 C2 1 2 1 2 1 Z " fill="#000000" transform="translate(372,129)"/>
<path d="M0 0 C2 1 2 1 2 1 Z " fill="#000000" transform="translate(242,128)"/>
<path d="M0 0 C2 1 2 1 2 1 Z " fill="#000000" transform="translate(244,127)"/>
<path d="M0 0 C2 1 2 1 2 1 Z " fill="#000000" transform="translate(246,126)"/>
<path d="M0 0 C2 1 2 1 2 1 Z " fill="#000000" transform="translate(248,125)"/>
<path d="M0 0 C2 1 2 1 2 1 Z " fill="#000000" transform="translate(250,124)"/>
<path d="M0 0 C2 1 2 1 2 1 Z " fill="#000000" transform="translate(225,124)"/>
<path d="M0 0 C2 1 2 1 2 1 Z " fill="#000000" transform="translate(252,123)"/>
<path d="M0 0 C2 1 2 1 2 1 Z " fill="#000000" transform="translate(227,123)"/>
<path d="" fill="#000000" transform="translate(0,0)"/>
<path d="" fill="#000000" transform="translate(0,0)"/>
<path d="M0 0 C2 1 2 1 2 1 Z " fill="#000000" transform="translate(238,118)"/>
<path d="M0 0 C2 1 2 1 2 1 Z " fill="#000000" transform="translate(240,117)"/>
<path d="M0 0 C2 1 2 1 2 1 Z " fill="#000000" transform="translate(242,116)"/>
<path d="M0 0 C2 1 2 1 2 1 Z " fill="#000000" transform="translate(244,115)"/>
<path d="M0 0 C2 1 2 1 2 1 Z " fill="#000000" transform="translate(246,114)"/>
<path d="M0 0 C2 1 2 1 2 1 Z " fill="#000000" transform="translate(274,112)"/>
<path d="M0 0 C2 1 2 1 2 1 Z " fill="#000000" transform="translate(276,111)"/>
<path d="M0 0 C2 1 2 1 2 1 Z " fill="#000000" transform="translate(278,110)"/>
<path d="M0 0 C2 1 2 1 2 1 Z " fill="#000000" transform="translate(280,109)"/>
<path d="M0 0 C2 1 2 1 2 1 Z " fill="#000000" transform="translate(282,108)"/>
<path d="" fill="#000000" transform="translate(0,0)"/>
<path d="M0 0 C2 1 2 1 2 1 Z " fill="#000000" transform="translate(284,107)"/>
<path d="M0 0 C2 1 2 1 2 1 Z " fill="#000000" transform="translate(312,106)"/>
<path d="" fill="#000000" transform="translate(0,0)"/>
<path d="M0 0 C2 1 2 1 2 1 Z " fill="#000000" transform="translate(209,62)"/>
<path d="" fill="#000000" transform="translate(0,0)"/>
<path d="" fill="#000000" transform="translate(0,0)"/>
<path d="M0 0 C2 1 2 1 2 1 Z " fill="#000000" transform="translate(215,57)"/>
<path d="M0 0 C2 1 2 1 2 1 Z " fill="#000000" transform="translate(241,52)"/>
<path d="M0 0 C2 1 2 1 2 1 Z " fill="#000000" transform="translate(222,52)"/>
<path d="" fill="#000000" transform="translate(0,0)"/>
<path d="" fill="#000000" transform="translate(0,0)"/>
<path d="" fill="#000000" transform="translate(0,0)"/>
<path d="" fill="#000000" transform="translate(0,0)"/>
<path d="" fill="#000000" transform="translate(0,0)"/>
<path d="" fill="#000000" transform="translate(0,0)"/>
<path d="" fill="#000000" transform="translate(0,0)"/>
<path d="" fill="#000000" transform="translate(0,0)"/>
<path d="" fill="#000000" transform="translate(0,0)"/>
<path d="" fill="#000000" transform="translate(0,0)"/>
<path d="" fill="#000000" transform="translate(0,0)"/>
<path d="" fill="#000000" transform="translate(0,0)"/>
<path d="" fill="#000000" transform="translate(0,0)"/>
<path d="" fill="#000000" transform="translate(0,0)"/>
<path d="" fill="#000000" transform="translate(0,0)"/>
<path d="" fill="#000000" transform="translate(0,0)"/>
<path d="" fill="#000000" transform="translate(0,0)"/>
<path d="" fill="#000000" transform="translate(0,0)"/>
<path d="" fill="#000000" transform="translate(0,0)"/>
<path d="" fill="#000000" transform="translate(0,0)"/>
<path d="" fill="#000000" transform="translate(0,0)"/>
<path d="" fill="#000000" transform="translate(0,0)"/>
<path d="" fill="#000000" transform="translate(0,0)"/>
<path d="" fill="#000000" transform="translate(0,0)"/>
<path d="" fill="#000000" transform="translate(0,0)"/>
<path d="" fill="#000000" transform="translate(0,0)"/>
<path d="" fill="#000000" transform="translate(0,0)"/>
<path d="" fill="#000000" transform="translate(0,0)"/>
<path d="" fill="#000000" transform="translate(0,0)"/>
<path d="" fill="#000000" transform="translate(0,0)"/>
<path d="" fill="#000000" transform="translate(0,0)"/>
<path d="" fill="#000000" transform="translate(0,0)"/>
<path d="" fill="#000000" transform="translate(0,0)"/>
<path d="" fill="#000000" transform="translate(0,0)"/>
<path d="" fill="#000000" transform="translate(0,0)"/>
<path d="" fill="#000000" transform="translate(0,0)"/>
<path d="" fill="#000000" transform="translate(0,0)"/>
<path d="" fill="#000000" transform="translate(0,0)"/>
<path d="" fill="#000000" transform="translate(0,0)"/>
<path d="" fill="#000000" transform="translate(0,0)"/>
<path d="" fill="#000000" transform="translate(0,0)"/>
<path d="" fill="#000000" transform="translate(0,0)"/>
<path d="" fill="#000000" transform="translate(0,0)"/>
<path d="" fill="#000000" transform="translate(0,0)"/>
<path d="" fill="#000000" transform="translate(0,0)"/>
<path d="" fill="#000000" transform="translate(0,0)"/>
<path d="" fill="#000000" transform="translate(0,0)"/>
<path d="" fill="#000000" transform="translate(0,0)"/>
<path d="" fill="#000000" transform="translate(0,0)"/>
<path d="" fill="#000000" transform="translate(0,0)"/>
<path d="" fill="#000000" transform="translate(0,0)"/>
<path d="" fill="#000000" transform="translate(0,0)"/>
<path d="" fill="#000000" transform="translate(0,0)"/>
<path d="" fill="#000000" transform="translate(0,0)"/>
<path d="" fill="#000000" transform="translate(0,0)"/>
<path d="" fill="#000000" transform="translate(0,0)"/>
<path d="" fill="#000000" transform="translate(0,0)"/>
<path d="" fill="#000000" transform="translate(0,0)"/>
<path d="" fill="#000000" transform="translate(0,0)"/>
<path d="" fill="#000000" transform="translate(0,0)"/>
<path d="" fill="#000000" transform="translate(0,0)"/>
<path d="" fill="#000000" transform="translate(0,0)"/>
<path d="" fill="#000000" transform="translate(0,0)"/>
<path d="" fill="#000000" transform="translate(0,0)"/>
<path d="" fill="#000000" transform="translate(0,0)"/>
<path d="" fill="#000000" transform="translate(0,0)"/>
<path d="" fill="#000000" transform="translate(0,0)"/>
<path d="" fill="#000000" transform="translate(0,0)"/>
<path d="" fill="#000000" transform="translate(0,0)"/>
<path d="" fill="#000000" transform="translate(0,0)"/>
<path d="" fill="#000000" transform="translate(0,0)"/>
<path d="" fill="#000000" transform="translate(0,0)"/>
<path d="" fill="#000000" transform="translate(0,0)"/>
<path d="" fill="#000000" transform="translate(0,0)"/>
<path d="" fill="#000000" transform="translate(0,0)"/>
<path d="" fill="#000000" transform="translate(0,0)"/>
<path d="" fill="#000000" transform="translate(0,0)"/>
<path d="" fill="#000000" transform="translate(0,0)"/>
<path d="" fill="#000000" transform="translate(0,0)"/>
<path d="" fill="#000000" transform="translate(0,0)"/>
<path d="" fill="#000000" transform="translate(0,0)"/>
<path d="" fill="#000000" transform="translate(0,0)"/>
<path d="" fill="#000000" transform="translate(0,0)"/>
<path d="" fill="#000000" transform="translate(0,0)"/>
<path d="" fill="#000000" transform="translate(0,0)"/>
<path d="" fill="#000000" transform="translate(0,0)"/>
<path d="" fill="#000000" transform="translate(0,0)"/>
<path d="" fill="#000000" transform="translate(0,0)"/>
<path d="" fill="#000000" transform="translate(0,0)"/>
<path d="" fill="#000000" transform="translate(0,0)"/>
<path d="" fill="#000000" transform="translate(0,0)"/>
<path d="" fill="#000000" transform="translate(0,0)"/>
<path d="" fill="#000000" transform="translate(0,0)"/>
<path d="" fill="#000000" transform="translate(0,0)"/>
<path d="" fill="#000000" transform="translate(0,0)"/>
<path d="" fill="#000000" transform="translate(0,0)"/>
<path d="" fill="#000000" transform="translate(0,0)"/>
<path d="" fill="#000000" transform="translate(0,0)"/>
<path d="" fill="#000000" transform="translate(0,0)"/>
<path d="" fill="#000000" transform="translate(0,0)"/>
<path d="" fill="#000000" transform="translate(0,0)"/>
<path d="" fill="#000000" transform="translate(0,0)"/>
<path d="" fill="#000000" transform="translate(0,0)"/>
<path d="" fill="#000000" transform="translate(0,0)"/>
<path d="" fill="#000000" transform="translate(0,0)"/>
<path d="" fill="#000000" transform="translate(0,0)"/>
<path d="" fill="#000000" transform="translate(0,0)"/>
<path d="" fill="#000000" transform="translate(0,0)"/>
<path d="" fill="#000000" transform="translate(0,0)"/>
<path d="" fill="#000000" transform="translate(0,0)"/>
<path d="" fill="#000000" transform="translate(0,0)"/>
<path d="" fill="#000000" transform="translate(0,0)"/>
<path d="" fill="#000000" transform="translate(0,0)"/>
<path d="" fill="#000000" transform="translate(0,0)"/>
<path d="" fill="#000000" transform="translate(0,0)"/>
<path d="" fill="#000000" transform="translate(0,0)"/>
<path d="" fill="#000000" transform="translate(0,0)"/>
<path d="" fill="#000000" transform="translate(0,0)"/>
<path d="" fill="#000000" transform="translate(0,0)"/>
<path d="" fill="#000000" transform="translate(0,0)"/>
<path d="" fill="#000000" transform="translate(0,0)"/>
<path d="" fill="#000000" transform="translate(0,0)"/>
<path d="" fill="#000000" transform="translate(0,0)"/>
<path d="" fill="#000000" transform="translate(0,0)"/>
<path d="" fill="#000000" transform="translate(0,0)"/>
<path d="" fill="#000000" transform="translate(0,0)"/>
<path d="" fill="#000000" transform="translate(0,0)"/>
<path d="" fill="#000000" transform="translate(0,0)"/>
<path d="" fill="#000000" transform="translate(0,0)"/>
<path d="" fill="#000000" transform="translate(0,0)"/>
<path d="" fill="#000000" transform="translate(0,0)"/>
<path d="" fill="#000000" transform="translate(0,0)"/>
<path d="" fill="#000000" transform="translate(0,0)"/>
<path d="" fill="#000000" transform="translate(0,0)"/>
<path d="" fill="#000000" transform="translate(0,0)"/>
<path d="" fill="#000000" transform="translate(0,0)"/>
<path d="" fill="#000000" transform="translate(0,0)"/>
<path d="" fill="#000000" transform="translate(0,0)"/>
<path d="" fill="#000000" transform="translate(0,0)"/>
<path d="" fill="#000000" transform="translate(0,0)"/>
<path d="" fill="#000000" transform="translate(0,0)"/>
<path d="" fill="#000000" transform="translate(0,0)"/>
<path d="" fill="#000000" transform="translate(0,0)"/>
<path d="" fill="#000000" transform="translate(0,0)"/>
<path d="" fill="#000000" transform="translate(0,0)"/>
<path d="" fill="#000000" transform="translate(0,0)"/>
<path d="" fill="#000000" transform="translate(0,0)"/>
<path d="" fill="#000000" transform="translate(0,0)"/>
<path d="" fill="#000000" transform="translate(0,0)"/>
<path d="" fill="#000000" transform="translate(0,0)"/>
<path d="" fill="#000000" transform="translate(0,0)"/>
<path d="" fill="#000000" transform="translate(0,0)"/>
<path d="" fill="#000000" transform="translate(0,0)"/>
<path d="" fill="#000000" transform="translate(0,0)"/>
<path d="" fill="#000000" transform="translate(0,0)"/>
<path d="" fill="#000000" transform="translate(0,0)"/>
<path d="" fill="#000000" transform="translate(0,0)"/>
<path d="" fill="#000000" transform="translate(0,0)"/>
<path d="" fill="#000000" transform="translate(0,0)"/>
<path d="" fill="#000000" transform="translate(0,0)"/>
<path d="" fill="#000000" transform="translate(0,0)"/>
<path d="" fill="#000000" transform="translate(0,0)"/>
<path d="" fill="#000000" transform="translate(0,0)"/>
<path d="" fill="#000000" transform="translate(0,0)"/>
<path d="" fill="#000000" transform="translate(0,0)"/>
<path d="" fill="#000000" transform="translate(0,0)"/>
<path d="" fill="#000000" transform="translate(0,0)"/>
<path d="" fill="#000000" transform="translate(0,0)"/>
<path d="" fill="#000000" transform="translate(0,0)"/>
<path d="" fill="#000000" transform="translate(0,0)"/>
<path d="" fill="#000000" transform="translate(0,0)"/>
<path d="" fill="#000000" transform="translate(0,0)"/>
<path d="" fill="#000000" transform="translate(0,0)"/>
<path d="" fill="#000000" transform="translate(0,0)"/>
<path d="" fill="#000000" transform="translate(0,0)"/>
<path d="" fill="#000000" transform="translate(0,0)"/>
<path d="" fill="#000000" transform="translate(0,0)"/>
<path d="" fill="#000000" transform="translate(0,0)"/>
<path d="" fill="#000000" transform="translate(0,0)"/>
<path d="" fill="#000000" transform="translate(0,0)"/>
<path d="" fill="#000000" transform="translate(0,0)"/>
<path d="" fill="#000000" transform="translate(0,0)"/>
<path d="" fill="#000000" transform="translate(0,0)"/>
<path d="" fill="#000000" transform="translate(0,0)"/>
<path d="" fill="#000000" transform="translate(0,0)"/>
<path d="" fill="#000000" transform="translate(0,0)"/>
<path d="" fill="#000000" transform="translate(0,0)"/>
<path d="" fill="#000000" transform="translate(0,0)"/>
<path d="" fill="#000000" transform="translate(0,0)"/>
<path d="" fill="#000000" transform="translate(0,0)"/>
<path d="" fill="#000000" transform="translate(0,0)"/>
<path d="" fill="#000000" transform="translate(0,0)"/>
<path d="" fill="#000000" transform="translate(0,0)"/>
<path d="" fill="#000000" transform="translate(0,0)"/>
<path d="" fill="#000000" transform="translate(0,0)"/>
<path d="" fill="#000000" transform="translate(0,0)"/>
<path d="" fill="#000000" transform="translate(0,0)"/>
<path d="" fill="#000000" transform="translate(0,0)"/>
<path d="" fill="#000000" transform="translate(0,0)"/>
<path d="" fill="#000000" transform="translate(0,0)"/>
<path d="" fill="#000000" transform="translate(0,0)"/>
<path d="" fill="#000000" transform="translate(0,0)"/>
<path d="" fill="#000000" transform="translate(0,0)"/>
<path d="" fill="#000000" transform="translate(0,0)"/>
<path d="" fill="#000000" transform="translate(0,0)"/>
<path d="" fill="#000000" transform="translate(0,0)"/>
<path d="" fill="#000000" transform="translate(0,0)"/>
<path d="" fill="#000000" transform="translate(0,0)"/>
<path d="" fill="#000000" transform="translate(0,0)"/>
<path d="" fill="#000000" transform="translate(0,0)"/>
<path d="" fill="#000000" transform="translate(0,0)"/>
<path d="" fill="#000000" transform="translate(0,0)"/>
<path d="" fill="#000000" transform="translate(0,0)"/>
<path d="" fill="#000000" transform="translate(0,0)"/>
<path d="" fill="#000000" transform="translate(0,0)"/>
<path d="" fill="#000000" transform="translate(0,0)"/>
<path d="" fill="#000000" transform="translate(0,0)"/>
<path d="" fill="#000000" transform="translate(0,0)"/>
<path d="" fill="#000000" transform="translate(0,0)"/>
<path d="" fill="#000000" transform="translate(0,0)"/>
<path d="" fill="#000000" transform="translate(0,0)"/>
<path d="" fill="#000000" transform="translate(0,0)"/>
<path d="" fill="#000000" transform="translate(0,0)"/>
<path d="" fill="#000000" transform="translate(0,0)"/>
<path d="" fill="#000000" transform="translate(0,0)"/>
<path d="" fill="#000000" transform="translate(0,0)"/>
<path d="" fill="#000000" transform="translate(0,0)"/>
<path d="" fill="#000000" transform="translate(0,0)"/>
<path d="" fill="#000000" transform="translate(0,0)"/>
<path d="" fill="#000000" transform="translate(0,0)"/>
<path d="" fill="#000000" transform="translate(0,0)"/>
<path d="" fill="#000000" transform="translate(0,0)"/>
<path d="" fill="#000000" transform="translate(0,0)"/>
<path d="" fill="#000000" transform="translate(0,0)"/>
<path d="" fill="#000000" transform="translate(0,0)"/>
<path d="" fill="#000000" transform="translate(0,0)"/>
<path d="" fill="#000000" transform="translate(0,0)"/>
<path d="" fill="#000000" transform="translate(0,0)"/>
<path d="" fill="#000000" transform="translate(0,0)"/>
<path d="" fill="#000000" transform="translate(0,0)"/>
<path d="" fill="#000000" transform="translate(0,0)"/>
<path d="" fill="#000000" transform="translate(0,0)"/>
<path d="" fill="#000000" transform="translate(0,0)"/>
<path d="" fill="#000000" transform="translate(0,0)"/>
<path d="" fill="#000000" transform="translate(0,0)"/>
<path d="" fill="#000000" transform="translate(0,0)"/>
<path d="" fill="#000000" transform="translate(0,0)"/>
<path d="" fill="#000000" transform="translate(0,0)"/>
<path d="" fill="#000000" transform="translate(0,0)"/>
<path d="" fill="#000000" transform="translate(0,0)"/>
<path d="" fill="#000000" transform="translate(0,0)"/>
<path d="" fill="#000000" transform="translate(0,0)"/>
<path d="" fill="#000000" transform="translate(0,0)"/>
<path d="" fill="#000000" transform="translate(0,0)"/>
<path d="" fill="#000000" transform="translate(0,0)"/>
<path d="" fill="#000000" transform="translate(0,0)"/>
<path d="" fill="#000000" transform="translate(0,0)"/>
<path d="" fill="#000000" transform="translate(0,0)"/>
<path d="" fill="#000000" transform="translate(0,0)"/>
<path d="" fill="#000000" transform="translate(0,0)"/>
<path d="" fill="#000000" transform="translate(0,0)"/>
<path d="" fill="#000000" transform="translate(0,0)"/>
<path d="" fill="#000000" transform="translate(0,0)"/>
<path d="" fill="#000000" transform="translate(0,0)"/>
</svg>
