<?xml version="1.0" encoding="UTF-8"?>
<svg version="1.1" xmlns="http://www.w3.org/2000/svg" width="512" height="512">
<path d="M0 0 C11.59146357 7.12675832 20.62143228 18.38150254 28.05755615 29.62567139 C28.05755615 29.95567139 28.05755615 30.28567139 28.05755615 30.62567139 C26.64054161 30.63447075 26.64054161 30.63447075 25.19490051 30.64344788 C16.26484044 30.70081716 7.33502057 30.7736523 -1.59479427 30.8613863 C-6.18502462 30.90599409 -10.77516817 30.94527104 -15.36553955 30.97210693 C-19.80071929 30.998236 -24.2355633 31.03870542 -28.67053413 31.08885765 C-30.3572425 31.1054617 -32.04400884 31.11701603 -33.73078728 31.12328529 C-46.14649545 31.0910029 -46.14649545 31.0910029 -57.94244385 34.62567139 C-62.53393273 39.33194749 -63.29743565 42.69481863 -63.22369385 49.08270264 C-62.8106314 52.81747557 -61.43370053 54.86508966 -58.94244385 57.62567139 C-54.29371816 61.08241613 -49.76492653 61.74600424 -44.0792799 61.76433659 C-43.12184106 61.76981103 -42.16440222 61.77528547 -41.17795008 61.78092581 C-39.61228949 61.78239297 -39.61228949 61.78239297 -38.01499939 61.78388977 C-36.90000102 61.78882775 -35.78500266 61.79376572 -34.63621646 61.79885334 C-30.89283478 61.8142351 -27.14947027 61.82259085 -23.40606689 61.83099365 C-20.72555797 61.84057164 -18.04505311 61.85053843 -15.36454773 61.86099243 C-9.58987326 61.88273746 -3.81519647 61.90088915 1.95949745 61.91659737 C10.30872544 61.93931398 18.65792823 61.96745432 27.00713482 61.99691664 C40.55330905 62.04457059 54.0994936 62.08784073 67.64569092 62.12835693 C80.80422773 62.16772304 93.96275537 62.20915194 107.12127686 62.25335693 C107.93242604 62.25608121 108.74357521 62.25880548 109.57930467 62.2616123 C113.648619 62.27529197 117.71793318 62.2890122 121.7872473 62.30275261 C155.543998 62.41668287 189.30076782 62.52349986 223.05755615 62.62567139 C222.92270175 60.06795794 222.78111745 57.51091197 222.63568115 54.95379639 C222.57984863 53.87509277 222.57984863 53.87509277 222.52288818 52.77459717 C222.1349964 46.11959101 221.47092354 40.24015272 216.80755615 35.18817139 C211.19606428 31.99982373 205.5458539 31.32656939 199.19451904 31.30682373 C198.06644836 31.29175529 198.06644836 31.29175529 196.91558838 31.27638245 C194.45380348 31.24573091 191.99212641 31.22856604 189.5302124 31.21160889 C187.81384871 31.19288269 186.09749409 31.1733082 184.38114929 31.15292358 C179.8816972 31.10174967 175.38221531 31.06204537 170.88262939 31.02478027 C166.28396319 30.98464786 161.68541937 30.9335978 157.08685303 30.88348389 C148.07717356 30.7868993 139.06742475 30.70243899 130.05755615 30.62567139 C130.44327789 30.19173569 130.82899963 29.75779999 131.22640991 29.31071472 C134.53563572 25.52950686 137.39302227 21.68840992 140.14349365 17.47332764 C146.33726217 8.88267371 153.41716774 0.41063812 164.14611816 -2.09588623 C172.69638955 -3.35416673 181.24609472 -3.37860571 189.87005615 -3.18682861 C191.11446472 -3.16023163 192.35887329 -3.13363464 193.64099121 -3.10623169 C197.26964959 -2.9996082 200.88976047 -2.84078145 204.5145874 -2.64385986 C205.59840195 -2.58503632 206.68221649 -2.52621277 207.7988739 -2.46560669 C222.40470443 -1.3515817 234.35274239 4.00478326 244.46380615 14.68817139 C253.86830603 26.12109281 255.52496051 37.2817693 255.24505615 51.75067139 C255.22997047 53.10221885 255.21628898 54.45378274 255.20404053 55.80535889 C255.16896339 59.0792251 255.11980712 62.35222818 255.05755615 65.62567139 C256.2198877 65.8371582 256.2198877 65.8371582 257.40570068 66.05291748 C266.14029294 67.93943501 273.63289994 74.80639614 278.6786499 81.90692139 C280.29680775 84.457235 281.74168976 86.90221602 283.05755615 89.62567139 C283.40608643 90.29123047 283.7546167 90.95678955 284.1137085 91.64251709 C288.49343004 101.3850246 287.49303377 111.87305616 287.30755615 122.31317139 C287.28745859 124.28646053 287.26921359 126.25976946 287.25286865 128.23309326 C287.20913545 133.03111412 287.14028813 137.82817099 287.05755615 142.62567139 C285.59748894 142.63780167 285.59748894 142.63780167 284.10792542 142.650177 C274.8848421 142.72803618 265.66189913 142.81587178 256.43900013 142.91319847 C251.69868138 142.96290858 246.95838223 143.00923846 242.21795654 143.04754639 C237.63370246 143.0847216 233.0496233 143.13116372 228.46552086 143.18373489 C226.72628571 143.20210922 224.98701332 143.217278 223.24772072 143.22901535 C204.02420815 143.36325107 187.55171951 144.53373462 173.1161499 158.50457764 C163.26159176 169.04022835 160.42779554 181.08328132 160.7489624 195.10614014 C161.37646722 207.59114268 167.4350849 217.49257135 176.37005615 225.93817139 C187.79153757 235.56957395 200.95091317 237.71461309 215.42303467 237.83099365 C216.20463455 237.84089325 216.98623444 237.85079285 217.79151917 237.86099243 C220.33980422 237.89223447 222.88810783 237.91721501 225.4364624 237.94207764 C227.21722358 237.96267951 228.99798022 237.98367676 230.7787323 238.00505066 C235.43928325 238.05993778 240.09987587 238.10949253 244.76049805 238.15789795 C249.52687232 238.20835838 254.29318696 238.26391564 259.05950928 238.31903076 C268.39214049 238.42620356 277.72482374 238.52773728 287.05755615 238.62567139 C287.15734525 244.3873403 287.22945457 250.14849267 287.27728271 255.91082764 C287.29724655 257.86599505 287.32442751 259.82110393 287.35931396 261.77606201 C287.6728878 279.81578028 285.41580835 292.71875216 272.74505615 306.37567139 C262.1944274 316.36108788 250.38208381 319.08653836 236.2428894 319.01335144 C234.98507782 319.01873698 233.72726623 319.02412252 232.43133914 319.02967125 C228.96533975 319.04404759 225.49957973 319.03990586 222.03356767 319.03250444 C218.28567197 319.02775556 214.53782678 319.04029778 210.78994751 319.05052185 C203.457268 319.06768176 196.12467429 319.06855569 188.79197992 319.06330895 C182.82930709 319.05926068 176.86665952 319.06071859 170.90398788 319.06605721 C170.0539962 319.06680563 169.20400451 319.06755405 168.3282555 319.06832515 C166.60126361 319.06985669 164.87427172 319.07139504 163.14727984 319.07294012 C146.96682971 319.08665506 130.78642797 319.0812346 114.60597895 319.06975491 C99.8192608 319.05982414 85.0326678 319.07276228 70.24596895 319.0966891 C55.0446546 319.12110055 39.84339849 319.13068291 24.64206493 319.12403637 C16.11500907 319.12054863 7.58804944 319.12274677 -0.93899155 319.1402874 C-8.19800173 319.15503502 -15.45684793 319.15561151 -22.71585499 319.13821649 C-26.41565063 319.12972499 -30.11515366 319.12751116 -33.81493378 319.14286804 C-37.83479445 319.15934621 -41.85395409 319.14452051 -45.87380981 319.12687683 C-47.03044659 319.13648184 -48.18708338 319.14608684 -49.37876976 319.15598291 C-63.59346734 319.02806644 -74.36687951 313.89312604 -84.69244385 304.31317139 C-93.84106986 294.64669862 -97.41636694 283.32883602 -97.3301239 270.24069214 C-97.33550944 269.2442279 -97.34089498 268.24776367 -97.34644371 267.22110355 C-97.3606621 263.90807709 -97.35363461 260.59545364 -97.34649658 257.28240967 C-97.35220335 254.8964913 -97.35916879 252.51057566 -97.36729431 250.12466431 C-97.38334953 244.33203467 -97.38533312 238.53952973 -97.38008141 232.74688257 C-97.37602861 228.03516108 -97.37749639 223.32347154 -97.38282967 218.61175156 C-97.38357809 217.93938299 -97.38432651 217.26701442 -97.38509761 216.57427105 C-97.3866292 215.20804715 -97.38816755 213.84182327 -97.38971258 212.47559939 C-97.40341899 199.68299277 -97.39801314 186.89044741 -97.38652737 174.0978422 C-97.37659791 162.41504394 -97.38953393 150.73240413 -97.41346156 139.0496303 C-97.43789123 127.03042742 -97.44745089 115.01129822 -97.44080883 102.99207103 C-97.43732506 96.25352868 -97.43949271 89.5151081 -97.45705986 82.77658463 C-97.47255889 76.4382792 -97.46854021 70.1002756 -97.44975471 63.76198196 C-97.44607703 61.44170691 -97.44915323 59.12140935 -97.4596405 56.80115509 C-97.53750286 38.14374172 -95.8156003 25.08756997 -82.62994385 10.87567139 C-64.80069196 -5.998442 -21.71555501 -10.14269436 0 0 Z " fill="#000000" transform="translate(160.94244384765625,161.37432861328125)"/>
<path d="M0 0 C4.97447267 2.3095766 7.31899945 5.280301 10 10 C10.48101807 13.3789978 10.48101807 13.3789978 10.45410156 17.10693359 C10.45468567 17.79055969 10.45526978 18.47418579 10.45587158 19.17852783 C10.45310371 21.41902975 10.42207681 23.65817051 10.390625 25.8984375 C10.38315791 27.45927199 10.37746719 29.02011589 10.37347412 30.58096313 C10.35825441 34.67468478 10.31900507 38.76783222 10.2746582 42.86132812 C10.23362584 47.04419183 10.21544617 51.22714898 10.1953125 55.41015625 C10.15250648 63.60703335 10.08430054 71.8034451 10 80 C11.11971191 79.97905273 12.23942383 79.95810547 13.39306641 79.93652344 C17.56383377 79.86389574 21.73454568 79.81811789 25.90576172 79.78027344 C27.70794081 79.76020967 29.51005521 79.73295187 31.31201172 79.69824219 C33.90869136 79.64949171 36.50450729 79.62697918 39.1015625 79.609375 C40.30191635 79.57840729 40.30191635 79.57840729 41.52651978 79.54681396 C46.83916147 79.54470295 49.76422625 80.51659669 54 84 C58.41415841 88.64648254 58.46758261 92.88793066 58.53125 99 C57.48192537 104.92559792 53.1948252 109.06041687 49.08300781 113.22338867 C48.60759552 113.70712448 48.13218323 114.19086029 47.6423645 114.68925476 C46.08463453 116.27088506 44.51953144 117.84493388 42.953125 119.41796875 C41.85692405 120.52314879 40.76079487 121.62840002 39.66473389 122.73371887 C37.37198284 125.04290648 35.07492179 127.34771176 32.77539062 129.65014648 C29.84047542 132.5904504 26.92207082 135.54657908 24.00737381 138.50690746 C21.75094852 140.79317413 19.48325436 143.0680078 17.2123642 145.33989906 C16.13185844 146.42459033 15.05544261 147.51337276 13.98337555 148.60640526 C2.03479317 160.76997122 2.03479317 160.76997122 -6.04119873 161.07780457 C-13.46448191 160.57798698 -18.19656088 156.05299354 -23.23925781 151.01953125 C-23.72459991 150.53769379 -24.20994202 150.05585632 -24.70999146 149.55941772 C-26.29606812 147.9820687 -27.87480428 146.39760682 -29.453125 144.8125 C-30.56047889 143.7064949 -31.6681294 142.6007867 -32.77606201 141.49536133 C-35.08899805 139.18536402 -37.39830271 136.87181293 -39.70507812 134.55566406 C-42.65952851 131.58979314 -45.62290369 128.63302786 -48.58903885 125.67884827 C-50.87461565 123.40050105 -53.15540447 121.1174087 -55.43477631 118.83285522 C-56.52573687 117.7405626 -57.61817929 116.64974791 -58.71213531 115.56045532 C-60.23909277 114.03858404 -61.75948094 112.51043633 -63.27832031 110.98046875 C-64.57687958 109.67952271 -64.57687958 109.67952271 -65.90167236 108.35229492 C-70.30850898 103.41208482 -70.43838031 99.38116334 -70.3125 92.9140625 C-69.74647158 87.63584747 -67.37684028 85.13228191 -63.40771484 81.86816406 C-59.06975601 79.49002529 -55.95268438 79.48422178 -51.1015625 79.609375 C-50.26660248 79.61503479 -49.43164246 79.62069458 -48.57138062 79.62652588 C-45.92198734 79.64879777 -43.27397984 79.69897477 -40.625 79.75 C-38.82163421 79.77007698 -37.01824708 79.78832565 -35.21484375 79.8046875 C-30.80936731 79.84863214 -26.40491806 79.91759399 -22 80 C-22.00888245 79.13635834 -22.01776489 78.27271667 -22.0269165 77.38290405 C-22.10716339 69.2320842 -22.16801565 61.08139759 -22.20724869 52.93027306 C-22.22809718 48.73996462 -22.25636416 44.54998341 -22.30175781 40.35986328 C-22.34531419 36.31387758 -22.3691577 32.26820605 -22.37950897 28.22200394 C-22.38688286 26.68065065 -22.40128257 25.13931398 -22.42292023 23.59809494 C-22.45208611 21.43400064 -22.45595076 19.27119375 -22.45410156 17.10693359 C-22.46298401 15.87671478 -22.47186646 14.64649597 -22.48101807 13.3789978 C-21.74442897 8.20469542 -19.21864835 5.15771594 -15.5 1.625 C-10.33499991 -0.77303575 -5.5997712 -0.75381535 0 0 Z " fill="#000000" transform="translate(246,32)"/>
<path d="M0 0 C0.83968323 -0.00058411 1.67936646 -0.00116821 2.54449463 -0.00177002 C5.3043432 0.00100417 8.06309533 0.03206406 10.82275391 0.06347656 C12.74231374 0.07094133 14.66188122 0.07663315 16.58145142 0.08062744 C21.62206233 0.09586518 26.66220873 0.13513103 31.70263672 0.17944336 C36.85068479 0.22043617 41.99880826 0.23864702 47.14697266 0.25878906 C57.239657 0.30162717 67.33187532 0.37196187 77.42431641 0.45410156 C77.42431641 11.01410156 77.42431641 21.57410156 77.42431641 32.45410156 C66.31494646 32.54451777 55.20582143 32.61788406 44.09616661 32.66135025 C38.93734426 32.68221323 33.77878699 32.71050753 28.62011719 32.75585938 C23.64046248 32.7993628 18.66106254 32.82324837 13.68123245 32.83361053 C11.78262955 32.84099381 9.88404038 32.8554117 7.98554611 32.87702179 C5.32339238 32.90611564 2.66228748 32.91005508 0 32.90820312 C-0.78259186 32.92258423 -1.56518372 32.93696533 -2.37149048 32.95178223 C-7.56261089 32.91278025 -10.42944364 31.83124924 -14.57568359 28.45410156 C-18.20402023 24.63479984 -18.88568818 21.5713115 -19.07568359 16.45410156 C-18.88568818 11.33689162 -18.20402023 8.27340328 -14.57568359 4.45410156 C-9.59722054 0.3991011 -6.14909874 -0.11299737 0 0 Z " fill="#000000" transform="translate(370.57568359375,335.5458984375)"/>
</svg>
